<svg aria-hidden="true" style="width:0;height:0;position:absolute;overflow:hidden" xmlns="http://www.w3.org/2000/svg"><defs><symbol id="facebook" viewBox="0 0 32 32"><path d="M24.65.006 20.5 0c-4.662 0-7.676 3.092-7.676 7.876v3.63H8.652a.652.652 0 0 0-.652.652v5.262c0 .36.292.652.652.652h4.172v13.276c0 .36.292.652.654.652h5.442c.36 0 .654-.292.654-.652V18.072h4.878c.36 0 .652-.292.652-.652l.002-5.26a.654.654 0 0 0-.652-.654h-4.88V8.428c0-1.48.352-2.23 2.28-2.23h2.794c.36 0 .652-.294.652-.654V.658a.652.652 0 0 0-.65-.652z"/></symbol><symbol id="instagram" viewBox="0 0 32 32"><path d="M16.316 32h-.32l-.461.001c-2.329 0-4.64-.072-6.933-.212l.314.015c-2.066-.126-3.952-.84-5.454-2.064-1.45-1.182-2.44-2.78-2.942-4.75-.44-1.716-.46-3.4-.484-5.026C.02 18.794.004 17.41 0 16.004c.004-1.414.02-2.8.036-3.968.022-1.628.046-3.31.484-5.026.5-1.97 1.492-3.568 2.94-4.75C4.966 1.036 6.852.32 8.92.196c2.252-.138 4.57-.2 7.084-.196l.443-.001c2.335 0 4.653.071 6.952.212l-.316-.015c2.066.124 3.952.84 5.454 2.064 1.45 1.182 2.44 2.78 2.944 4.75.436 1.716.46 3.4.48 5.026.018 1.17.034 2.554.038 3.96v.006c-.004 1.408-.02 2.792-.036 3.96-.022 1.63-.046 3.312-.482 5.028-.504 1.97-1.494 3.568-2.944 4.75-1.502 1.224-3.388 1.94-5.454 2.064-1.968.125-4.268.196-6.585.196h-.193.01zm-.32-2.5.48.001c2.271 0 4.526-.069 6.763-.206l-.307.015c1.56-.096 2.916-.602 4.026-1.508 1.026-.836 1.734-1.99 2.1-3.43.364-1.428.386-2.96.406-4.444.016-1.16.032-2.534.036-3.928-.004-1.394-.02-2.768-.036-3.93-.02-1.48-.04-3.014-.406-4.44-.368-1.44-1.074-2.596-2.1-3.432-1.11-.906-2.464-1.412-4.026-1.508-1.93-.122-4.186-.191-6.457-.191l-.5.001h.026l-.485-.001c-2.269 0-4.522.069-6.756.206l.307-.015c-1.56.096-2.916.602-4.026 1.508-1.026.836-1.734 1.99-2.1 3.43-.364 1.428-.386 2.96-.406 4.442a364.21 364.21 0 0 0-.036 3.932c.004 1.39.02 2.766.036 3.926.02 1.484.04 3.016.406 4.444.366 1.44 1.074 2.594 2.1 3.43 1.11.906 2.464 1.412 4.026 1.508 2.2.134 4.468.196 6.928.19zm-.06-5.688A7.82 7.82 0 0 1 8.126 16a7.82 7.82 0 0 1 7.814-7.812A7.82 7.82 0 0 1 23.75 16a7.82 7.82 0 0 1-7.812 7.812zm0-13.124A5.32 5.32 0 0 0 10.626 16a5.32 5.32 0 0 0 5.314 5.312A5.32 5.32 0 0 0 21.25 16a5.32 5.32 0 0 0-5.312-5.312zm8.69-5-.061-.001a1.876 1.876 0 0 0 0 3.752l.064-.001h-.003a1.877 1.877 0 0 0 .003-3.75h-.003z"/></symbol><symbol id="twitter" viewBox="0 0 32 32"><path d="M32 7c-1.1.481-2.377.835-3.712 1.001l-.068.007a6.425 6.425 0 0 0 2.873-3.487l.013-.045a13.077 13.077 0 0 1-4.076 1.532l-.084.014A6.636 6.636 0 0 0 22.168 4h-.015.001c-3.632 0-6.556 2.872-6.556 6.394 0 .506.044.994.152 1.458A18.715 18.715 0 0 1 2.251 5.194l-.023-.028a6.24 6.24 0 0 0-.898 3.229v.001a6.355 6.355 0 0 0 2.89 5.297l.024.015a6.587 6.587 0 0 1-2.999-.803l.035.017v.07c0 3.106 2.274 5.686 5.256 6.28-.5.134-1.074.21-1.666.21h-.056.003c-.42 0-.844-.022-1.242-.108.907 2.578 3.299 4.402 6.124 4.452h.006a13.313 13.313 0 0 1-8.102 2.726H1.57h.002a12.29 12.29 0 0 1-1.57-.088c2.835 1.801 6.288 2.87 9.991 2.87h.077-.004c12.072 0 18.672-9.744 18.672-18.19 0-.282-.01-.556-.024-.826a13.03 13.03 0 0 0 3.26-3.277l.028-.043z"/></symbol><symbol id="logo-desckop" viewBox="0 0 61 32"><path d="M36.152 16.031c0 .256-.007.512 0 .768.076 2.603-.63 4.949-1.762 7.161a28.558 28.558 0 0 0-.985 2.051l-.085.219c-.27.637-.645 1.083-1.228 1.344-.326.145-.628.397-.901.657-1.257 1.196-2.682 2.052-4.207 2.655-1.013.4-2.056.753-3.156.737-.328-.004-.657.112-.985.113s-.657-.121-.983-.105c-1.419.07-2.733-.433-4.039-.961-1.425-.576-2.682-1.485-3.865-2.568-1.669-1.529-2.86-3.454-3.734-5.659-.471-1.188-.855-2.414-.963-3.733-.018-.219-.081-.435-.137-.648-.397-1.479-.168-2.929.077-4.403.188-1.127.381-2.24.747-3.31.967-2.83 2.502-5.147 4.628-6.968C16.347 1.865 18.331.933 20.488.533c2.475-.46 4.891-.129 7.236.945 1.17.537 2.274 1.218 3.238 2.119.899.84 1.71 1.824 2.476 2.829.695.911 1.187 1.996 1.628 3.103.687 1.729 1.136 3.519 1.09 5.442-.01.355-.003.708-.003 1.06zm-.951-3.504c-.069-.604-.111-1.305-.239-1.984-.365-1.955-1.348-3.481-2.658-4.728-.744-.709-1.555-1.324-2.354-1.951-.271-.212-.585-.407-.901-.472-.812-.172-1.634-.333-2.457-.382-1.429-.084-2.713-.509-3.792-1.654-.794-.842-1.659-.923-2.484-.182-.936.839-2.001 1.332-3.086 1.82-.795.358-1.561.808-2.326 1.253-.639.372-1.011.953-1.002 1.832.005.494-.191.905-.588 1.179a9.23 9.23 0 0 0-.958.765l.007-.006c-.846.767-1.505 1.63-1.647 2.971-.113 1.06-.391 2.108-1.022 2.981a2.147 2.147 0 0 0-.376 1.04l-.001.008c-.058.793-.034 1.595-.017 2.392.005.213.085.442.18.63.258.524.494.947.749 1.357l-.038-.066c.619.992 1.158 2.008 1.282 3.267.12 1.22.632 2.215 1.498 2.974 1.254 1.1 2.463 2.268 3.736 3.339.684.577 1.416 1.082 2.319 1.199s1.787.399 2.596.923c.17.105.356.171.547.194 1.141.142 2.198-.184 3.2-.799.243-.152.559-.33.881-.497l.083-.039c.783-.404 1.652-.669 2.334-1.232.76-.627 1.571-.905 2.442-1.081.376-.076.684-.254.929-.577.292-.383.563-.788.867-1.157.315-.382.543-.788.598-1.331.085-.833.394-1.569.787-2.276.665-1.194 1.043-2.514 1.24-3.918.052-.368.081-.68-.077-1.004-.458-.935-.271-1.997-.416-2.992-.073-.538.096-1.127.166-1.798l-.002.001zm-5.509-9.34c-.193-.246-.254-.357-.342-.426-.158-.126-.33-.229-.498-.338-1.437-.932-3.01-1.385-4.618-1.711-.323-.066-.662-.036-.992-.022-.086.004-.188.099-.242.186-.025.039.031.177.079.243a3.12 3.12 0 0 0 1.35 1.072 7.841 7.841 0 0 0 2.814.611h.013c.409.013.816.102 1.223.166.347.057.694.125 1.216.219zM17.485 30.053c-.964-.908-1.81-1.719-2.67-2.509a97.596 97.596 0 0 0-2.168-1.915c-.082-.071-.211-.069-.39-.122.877 1.696 3.806 4.273 5.227 4.546zM10.988 8.869c.582-.512 1.12-1.05 1.711-1.496.828-.622 1.145-1.394.949-2.721-.588.554-1.007 1.221-1.46 1.826-.479.639-.834 1.4-1.233 2.115-.031.058.019.172.034.276zm19.614 19.355c-.542-.043-1.089.067-1.429.405-.646.64-1.414.961-2.196 1.281-.41.168-.797.414-1.184.649-.054.032-.064.205-.052.307.004.034.148.09.208.067.702-.276 1.427-.497 2.092-.866.815-.45 1.58-1.021 2.36-1.55.082-.053.125-.177.201-.294zM9.875 19.352c-.156.53-.125.823-.027 1.135.272.866.437 1.78.927 2.537.182.281.219.908.554.773.295-.118-.05-.615-.071-.95-.077-1.28-.662-2.311-1.384-3.495zm5.263-15.937.073.126c.405-.174.815-.337 1.216-.522a92.59 92.59 0 0 0 3.636-1.687l-1.028.456c.175-.085.335-.221.484-.359.042-.039.034-.172.021-.254-.007-.037-.089-.076-.137-.079a.73.73 0 0 0-.239.046c-1.178.386-2.289.956-3.353 1.649-.249.162-.45.414-.673.625zm20.69 13.745c.071-.095.127-.135.131-.18.114-1.395-.014-2.776-.18-4.155-.008-.069-.091-.168-.148-.177-.062-.01-.16.05-.198.115a.795.795 0 0 0-.112.342v.003a15.307 15.307 0 0 0 .207 3.486l-.013-.091c.037.226.2.424.314.655zM9.591 13.312c.46-.202.528-.568.578-.898.12-.805.42-1.58.321-2.431-.481 1.016-.907 2.045-.899 3.328zm11.127 17.673c-1.03-.525-1.31-.58-2.227-.433.389.17.739.44 1.091.443.367.007.765.524 1.137-.01z"/><path d="M22.843 20.542c-.705-.014-1.189-.354-1.548-1.01-.334-.612-.889-.93-1.398-1.307-.641-.475-1.163-1.012-1.311-1.975a2.997 2.997 0 0 1 .247-1.736c.193-.431.538-.832.9-1.088.393-.278.718-.54.9-1.053.205-.591.723-.627 1.181-.733.431-.1.87-.164 1.295-.289.581-.171 1.109-.118 1.534.403.328.405.712.695 1.139.941.445.254.591.553.452 1.086-.095.362-.003.608.114.897.128.315.259.635.348.968.293 1.107-.044 2.039-.946 2.532-.559.305-.987.712-1.126 1.428-.056.289-.212.453-.433.527-.446.15-.898.274-1.349.409zm2.959-4.641c.014-1.95-1.269-3.51-2.938-3.512-1.498 0-3.004 1.167-3.063 3.404-.047 1.79 1.248 3.458 2.936 3.464 2.055.012 3.025-1.632 3.065-3.357zm-6.018 1.864c0-.25.021-.378-.003-.494-.222-1.059-.366-2.109.137-3.129.036-.073-.047-.224-.076-.339-.098.037-.217.044-.292.114-.83.784-1.2 2.667.234 3.847zm3.081-5.865c.347.146.546.25.753.315.765.233 1.417.652 1.871 1.424.089.152.205.378.376.204.091-.093.121-.375.068-.516-.071-.188-.231-.422-.386-.459-.42-.101-.65-.452-.924-.757-.46-.509-.975-.669-1.758-.211zm-.047 7.676-.01-.073c-.22 0-.443-.022-.659.009-.112.016-.213.125-.319.192.096.098.18.252.291.284.592.172 1.19.209 1.774-.054.1-.045.211-.104.274-.197.056-.079.073-.219.062-.325-.004-.039-.143-.099-.211-.086-.401.072-.801.164-1.2.249l-.002.001zm3.03-2c.41-.088.594-.355.618-.764a8.157 8.157 0 0 0-.013-1.037c-.007-.091-.117-.172-.179-.258-.091.1-.277.234-.26.293.167.598-.182 1.133-.166 1.764v.001zm3.755 2.7c-.024.014-.119.106-.222.118-.094.012-.231-.024-.289-.099a16.082 16.082 0 0 1-.797-1.112l-.039-.064c-.068-.107-.096-.394-.057-.419.128-.082.379-.167.435-.096.33.419.621.881.919 1.332.029.046.02.123.05.34zM15.628 23.56c.153.014.454.025.748.083.073.014.171.179.171.278s-.085.269-.158.29c-.571.163-1.14.204-1.645-.236a.31.31 0 0 1-.064-.108l-.001-.002a.315.315 0 0 1-.017-.104l.001-.029v.001c.011-.066.099-.157.159-.162.219-.021.439-.01.806-.01zM33.53 9.716l.216.136c-.061.126-.099.33-.188.366a7.434 7.434 0 0 1-1.208.403l-.055.011c-.123.028-.303-.112-.416-.227-.131-.133-.053-.423.113-.452.487-.086.977-.152 1.538-.238zM18.988 26.379c.229.123.42.157.514.288.256.365.49.75.7 1.152.103.192.009.399-.164.454-.095.03-.266-.059-.336-.158a11.977 11.977 0 0 1-.741-1.152l-.033-.062c-.055-.1.03-.302.061-.522zm8.966-15.235c.014-.112 0-.24.046-.289.062-.064.194-.118.257-.083.087.048.143.178.202.281.166.285.329.573.487.866.071.131.165.271.171.412a.59.59 0 0 1-.148.39c-.048.05-.244.018-.292-.052-.316-.463-.695-.896-.723-1.526zm.984-4.914c-.068.472-.096.82-.175 1.153a.968.968 0 0 1-.273.456h-.001c-.091.084-.249.072-.376.103-.01-.138-.047-.281-.026-.411.067-.402.156-.8.236-1.199.006-.031.004-.064.012-.095.063-.241.199-.424.417-.325.11.05.161.271.186.317zM23.04 9.302c.192.028.441.042.679.109.081.023.2.191.187.263-.025.13-.118.3-.217.338a.711.711 0 0 1-.486.001l.005.002c-.274-.1-.528-.134-.802-.002-.179.086-.347-.005-.395-.21-.064-.275.116-.409.318-.448.216-.041.438-.035.712-.053zm4.266 13.572c-.078.391-.137.734-.221 1.069-.016.066-.137.154-.187.139-.091-.025-.219-.108-.238-.194a1.44 1.44 0 0 1-.013-.576l-.001.009c.064-.343.127-.669.007-1.02-.058-.168-.041-.436.18-.436.12 0 .291.17.345.311.088.225.093.49.127.697zm-3.366-.1c-.044.092-.066.2-.125.247-.36.285-.721.573-1.1.822-.097.064-.267.025-.391-.018-.181-.062-.219-.335-.068-.446.414-.306.832-.61 1.259-.891.068-.046.205.003.293.054.06.035.086.146.131.232zM19.351 4.409c.059.04.169.074.184.136.143.606.281 1.215.394 1.829.032.17-.165.265-.296.163-.414-.32-.671-1.507-.43-2.004.025-.049.086-.074.148-.125zm5.111 1.724c-.125-.096-.259-.145-.277-.227-.019-.089.045-.243.115-.315.303-.312.621-.606.951-.881.111-.09.342-.154.428-.083.202.163.096.394-.045.562-.189.227-.376.466-.594.65-.167.138-.381.198-.578.294zm-7.864 3.205-.302.329c-.086-.108-.214-.197-.251-.325-.1-.32-.232-.833-.349-1.351l-.033-.176c-.016-.07.034-.214.086-.239.084-.039.222-.055.285 0 .125.107.269.249.31.41.108.417.165.854.254 1.351zm-3.311 8.42c-.278.586-.488 1.185-1.005 1.504-.087.054-.279-.015-.372-.1-.158-.145 0-.264.077-.388.242-.384.466-.785.724-1.155.066-.095.235-.142.349-.129.078.008.142.161.226.267zm3.134.05c.145.096.25.125.269.188.032.104.049.268 0 .339-.079.115-.215.181-.332.258-.303.2-.603.412-.918.583a.37.37 0 0 1-.355-.034c-.176-.145-.114-.376.027-.478.433-.312.889-.585 1.31-.857zm15.683-2.651c-.111.289-.268.726-.454 1.145-.029.065-.209.1-.285.062-.071-.037-.148-.201-.134-.29.075-.466.157-.935.283-1.385.039-.137.211-.262.344-.308.049-.017.179.197.239.328.035.074.006.187.006.448zM13.2 11.678c.491.507.433 1.196.487 1.831.01.118-.117.287-.219.373-.053.045-.27-.027-.275-.069a41.603 41.603 0 0 1-.184-1.934c-.004-.055.112-.122.192-.201zm11.471 15.701c.082.025.163.056.243.091.295.157.591.31.879.484.136.082.274.184.372.315.113.152-.016.443-.175.403-.535-.133-1.058-.319-1.458-.78-.059-.068-.058-.238-.039-.352.011-.064.114-.108.177-.162zM18.16 11.864c.028.102.125.26.091.359-.18.525-.388 1.039-.6 1.549-.026.062-.137.118-.202.108-.058-.008-.137-.101-.152-.172-.112-.568.242-1.585.636-1.841.04-.027.106-.004.226-.004zm15.298 8.625c-.062-.045-.19-.1-.256-.206-.027-.042.059-.234.134-.296.3-.256.631-.511.974-.748l.041-.027c.094-.063.291-.068.36.003.064.066.074.315.016.406-.293.471-.664.83-1.268.866zm-2.032 4.054c-.254-.03-.364-.034-.47-.061-.045-.012-.112-.072-.112-.112l-.001-.027c0-.083.022-.162.06-.23l-.001.002a.42.42 0 0 1 .205-.148c.391-.135.783-.271 1.18-.381.086-.024.268.042.279.098a.9.9 0 0 1-.051.433c-.024.072-.121.131-.195.158-.34.107-.682.204-.894.266zm-11.784-3.254c-.028.137-.074.441-.162.729-.022.071-.193.14-.271.114s-.171-.175-.168-.269c.007-.573.035-1.127.084-1.675l-.006.083c.01-.116.137-.217.21-.325.088.106.229.2.252.323.049.274.039.562.062 1.019zM37.981 4.672c0-1.125.236-1.978.709-2.559.478-.588 1.091-.881 1.837-.881s1.34.253 1.78.76c.446.507.669 1.317.669 2.429s-.236 1.954-.709 2.522c-.473.569-1.104.853-1.893.853-.682 0-1.241-.226-1.676-.677-.226-.235-.403-.559-.532-.973-.123-.42-.185-.912-.185-1.474zm2.522-3.348c-.542 0-.988.278-1.337.835-.344.556-.515 1.373-.515 2.448s.164 1.861.492 2.355c.327.494.763.742 1.305.742.548 0 .994-.278 1.337-.835.349-.563.524-1.375.524-2.439 0-1.069-.166-1.854-.499-2.355-.328-.5-.763-.751-1.305-.751zm3.867 6.435h-.669V1.268h.669v2.986h2.619V1.269h.669V7.76h-.669V4.348H44.37V7.76zm6.725 0h-.105l.701-6.491h.266l1.692 5.999 1.684-5.999h.266l.701 6.491h-.669l-.556-5.192-1.458 5.192h-.508l-1.474-5.128-.54 5.128zm9.668-6.49a.669.669 0 0 1 .153.454c0 .155-.03.312-.089.473l-1.442 3.366V7.76h-.669V5.767L57.104 1.27h.685l1.539 4.182 1.402-3.254c.059-.154.089-.315.089-.482s-.04-.297-.121-.389l.064-.056zM1.136 9.465c.364-.021.79-.033 1.22-.033h.001c.407 0 .833.049 1.278.147.455.098.899.283 1.335.555.449.266.823.611 1.114 1.018l.007.011c.312.414.563.964.752 1.651s.284 1.519.284 2.5-.142 1.863-.426 2.647c-.274.773-.653 1.367-1.136 1.781-.937.806-2.068 1.209-3.394 1.209-.464 0-.951-.022-1.462-.066h-.71V9.464h1.136zm.042 11.29c.199.022.45.033.753.033s.53-.005.682-.017a3.22 3.22 0 0 0 1.377-.482l-.014.008a3.47 3.47 0 0 0 .71-.621c.256-.287.475-.615.643-.972l.011-.025c.407-.893.61-2.059.61-3.497 0-1.024-.109-1.906-.327-2.647-.218-.752-.468-1.307-.753-1.667a3.025 3.025 0 0 0-.991-.842l-.016-.008c-.397-.218-.715-.343-.952-.376a5.962 5.962 0 0 0-.773-.049h-.054.003c-.312 0-.615.017-.908.049v11.111zm37.033.131h-.185V9.448h.483l5.907 10.572V9.448h.185v11.438h-1.036l-5.353-9.477v9.477zM53.343 9.448h.185v6.536c0 1.71-.293 2.968-.88 3.774-.587.795-1.354 1.192-2.3 1.192-.596 0-1.103-.06-1.519-.18a3.156 3.156 0 0 1-1.179-.702c-.757-.675-1.136-2.037-1.136-4.085V9.447h1.179v6.52c0 1.982.26 3.306.781 3.97.265.327.539.55.824.67.293.12.643.18 1.051.18.909 0 1.633-.382 2.172-1.144.549-.773.824-1.999.824-3.676v-6.52zm5.028 11.438h-1.179V9.612h-2.456v-.163h6.105v.163H58.37v11.274z"/></symbol><symbol id="logo-tablet" viewBox="0 0 63 32"><path d="M37.207 15.991c0 .255-.007.509 0 .764.078 2.588-.648 4.92-1.814 7.119-.307.55-.675 1.291-1.016 2.048l-.085.21c-.278.633-.663 1.078-1.264 1.337-.336.144-.647.394-.927.653-1.293 1.189-2.761 2.04-4.33 2.64-1.043.398-2.116.748-3.249.733-.338-.005-.676.111-1.014.112s-.677-.121-1.012-.105c-1.46.07-2.813-.431-4.156-.955-1.466-.572-2.761-1.476-3.978-2.554-1.719-1.52-2.943-3.434-3.843-5.626-.485-1.181-.88-2.401-.992-3.711-.018-.217-.083-.433-.14-.644-.409-1.471-.174-2.913.079-4.378.193-1.121.392-2.227.769-3.291.995-2.814 2.575-5.118 4.763-6.928A13.031 13.031 0 0 1 21.085.583c2.547-.457 5.034-.128 7.447.939 1.204.534 2.34 1.211 3.332 2.107.926.836 1.761 1.814 2.55 2.813.714.906 1.221 1.985 1.675 3.085.707 1.72 1.169 3.5 1.122 5.412-.01.353-.003.703-.003 1.053zm-.978-3.484c-.071-.601-.114-1.298-.246-1.973-.376-1.944-1.388-3.462-2.736-4.701-.765-.705-1.6-1.317-2.422-1.94-.278-.211-.602-.405-.927-.47-.836-.171-1.682-.332-2.529-.379-1.471-.084-2.792-.506-3.903-1.644-.817-.837-1.707-.918-2.557-.181-.963.835-2.059 1.324-3.176 1.809-.819.356-1.607.803-2.394 1.246-.658.37-1.041.948-1.032 1.822.005.49-.197.901-.605 1.172-.34.228-.667.479-.98.754-.87.762-1.548 1.621-1.695 2.954-.116 1.054-.402 2.096-1.051 2.965a2.1 2.1 0 0 0-.387 1.034l-.001.008c-.059.788-.035 1.585-.018 2.378.005.212.088.439.185.627.224.441.468.869.731 1.283.637.986 1.191 1.996 1.319 3.249.124 1.213.651 2.202 1.542 2.956 1.291 1.094 2.535 2.255 3.845 3.32.704.573 1.458 1.076 2.386 1.192s1.839.398 2.672.918c.174.105.366.17.563.192 1.175.141 2.262-.183 3.294-.794.323-.192.656-.366.991-.533.807-.402 1.7-.666 2.403-1.225.781-.624 1.616-.9 2.513-1.074.387-.076.705-.253.957-.574.3-.38.579-.782.893-1.15.325-.379.558-.783.615-1.324.087-.829.406-1.56.81-2.263.684-1.188 1.074-2.501 1.276-3.895.053-.366.083-.676-.08-.998-.471-.93-.279-1.985-.428-2.975-.076-.536.098-1.121.171-1.787l-.002.001zm-5.67-9.287c-.199-.244-.262-.355-.353-.424-.162-.125-.34-.227-.513-.336-1.479-.927-3.098-1.378-4.752-1.701-.333-.065-.682-.036-1.021-.022-.088.003-.193.099-.249.185-.026.039.033.176.081.242.353.472.823.838 1.368 1.058l.021.008a8.458 8.458 0 0 0 2.909.607c.421.013.84.102 1.258.165.357.056.714.124 1.251.217zM17.996 29.932c-.993-.903-1.863-1.709-2.747-2.495a94.042 94.042 0 0 0-2.067-1.771l-.164-.133c-.084-.071-.217-.069-.401-.121.903 1.686 3.917 4.248 5.38 4.52zM11.309 8.869c.599-.509 1.153-1.045 1.761-1.488.852-.618 1.178-1.386.977-2.705-.605.55-1.036 1.213-1.503 1.816-.493.635-.858 1.392-1.27 2.103-.031.058.02.171.035.274zm20.186 19.245c-.559-.042-1.121.067-1.471.403-.665.636-1.455.955-2.26 1.273-.423.167-.821.412-1.219.646-.055.032-.065.204-.054.305.004.035.153.09.214.067.722-.274 1.469-.495 2.153-.861.839-.447 1.626-1.015 2.429-1.541.084-.052.128-.176.206-.292zm-21.332-8.821c-.161.526-.129.818-.028 1.128.28.861.451 1.77.955 2.522.187.279.225.903.57.769.304-.118-.052-.611-.072-.944-.08-1.273-.681-2.299-1.425-3.475zm5.416-15.847.075.126c.417-.172.838-.335 1.251-.52A95.524 95.524 0 0 0 20.7 1.354l-1.111.474c.18-.085.345-.22.498-.357.042-.039.035-.17.022-.252-.007-.036-.091-.076-.14-.078a.8.8 0 0 0-.252.047l.006-.002c-1.213.383-2.356.95-3.45 1.639-.256.161-.464.411-.693.62zm21.294 13.667c.073-.095.131-.134.135-.178.118-1.386-.013-2.761-.184-4.131-.008-.069-.095-.167-.153-.176-.065-.009-.165.05-.204.114a.766.766 0 0 0-.116.344c-.065 1.13.003 2.265.199 3.376.039.224.206.421.323.651zM9.87 13.287c.473-.2.544-.564.595-.892.124-.801.433-1.571.33-2.418-.494 1.01-.933 2.034-.925 3.31zm11.452 17.572c-1.061-.522-1.348-.577-2.292-.43.4.169.76.437 1.123.441.377.007.787.52 1.17-.011z"/><path d="M23.51 20.476c-.725-.014-1.224-.353-1.593-1.005-.343-.609-.915-.925-1.439-1.3-.66-.472-1.197-1.006-1.349-1.963-.106-.65.017-1.213.254-1.726a2.82 2.82 0 0 1 .918-1.076l.009-.006c.404-.276.739-.537.926-1.047.211-.588.743-.623 1.215-.729.444-.099.895-.163 1.333-.287.599-.17 1.142-.118 1.579.401.338.402.733.691 1.173.935.457.253.609.55.465 1.08-.097.359-.003.604.118.891.132.313.268.631.358.963.301 1.1-.046 2.027-.974 2.517-.575.304-1.015.709-1.159 1.42-.057.287-.218.451-.445.524-.459.15-.925.273-1.388.407zm3.045-4.614c.015-1.94-1.306-3.49-3.024-3.492-1.541 0-3.092 1.161-3.152 3.385-.048 1.78 1.285 3.438 3.022 3.444 2.115.012 3.113-1.623 3.154-3.337zm-6.193 1.853c0-.248.022-.375-.003-.49-.228-1.054-.375-2.096.141-3.112.037-.072-.049-.223-.078-.337-.101.037-.224.044-.3.114-.854.78-1.234 2.652.24 3.825zm3.17-5.832c.357.146.562.248.775.313.787.231 1.458.648 1.926 1.416.091.151.211.376.387.203.093-.091.124-.372.07-.513-.073-.187-.238-.42-.397-.457-.432-.101-.669-.449-.951-.753-.473-.505-1.003-.665-1.809-.21zm-.048 7.633-.01-.074c-.227 0-.456-.022-.679.009-.115.016-.219.124-.328.191.099.098.185.251.3.283.609.171 1.224.208 1.825-.054.103-.045.217-.104.282-.196a.512.512 0 0 0 .064-.322c-.005-.039-.147-.098-.217-.086-.413.072-.824.163-1.234.248l-.002.001zm3.118-1.989c.423-.087.611-.353.636-.759a7.644 7.644 0 0 0-.015-1.059l.002.028c-.007-.09-.121-.17-.185-.256-.094.099-.285.232-.268.291.172.594-.187 1.127-.17 1.754v.001zm3.865 2.685c-.024.013-.122.105-.229.117-.096.013-.237-.023-.296-.099-.3-.377-.592-.764-.861-1.17-.071-.106-.099-.392-.059-.416.131-.081.39-.166.447-.095.34.417.638.875.946 1.324.029.045.02.122.052.338zm-14.383 3.265c.157.014.467.024.769.082.076.015.176.179.176.277s-.087.266-.163.287c-.588.163-1.173.202-1.693-.235a.29.29 0 0 1-.065-.108l-.001-.002a.315.315 0 0 1-.017-.104l.001-.027v.001c.011-.065.103-.157.163-.161.226-.021.453-.009.829-.009zM34.508 9.711l.222.136c-.063.126-.101.328-.193.364a8.315 8.315 0 0 1-1.3.412c-.127.028-.312-.111-.428-.225-.135-.133-.055-.421.116-.451.501-.085 1.006-.151 1.584-.236zM19.543 26.279c.235.122.432.157.528.287.263.363.504.746.721 1.145a.307.307 0 0 1-.166.45l-.002.001c-.098.031-.274-.058-.346-.156-.261-.346-.524-.74-.765-1.15l-.032-.059c-.056-.099.031-.3.063-.519zm9.227-15.147c.015-.111 0-.238.047-.287.063-.064.199-.118.265-.082.089.047.147.177.208.28.17.284.339.569.501.861.073.131.17.27.176.41a.576.576 0 0 1-.153.388c-.049.05-.251.018-.3-.052-.325-.46-.715-.89-.744-1.516zm1.012-4.887c-.071.47-.098.816-.18 1.147a.963.963 0 0 1-.281.453l-.001.001c-.093.084-.256.072-.387.102-.01-.137-.049-.279-.026-.409.069-.4.16-.795.242-1.192.007-.031.005-.064.013-.094.065-.24.205-.422.429-.323.113.05.166.27.191.315zM23.713 9.3c.197.027.453.042.697.108.084.022.207.189.192.261-.025.129-.121.299-.223.337a.752.752 0 0 1-.501.001l.005.002c-.281-.099-.544-.133-.825-.002-.184.086-.358-.005-.407-.209-.066-.274.119-.406.327-.445.222-.041.451-.035.733-.052zm4.39 13.495c-.08.389-.14.729-.227 1.063-.017.065-.141.153-.193.139-.093-.026-.225-.108-.244-.193a1.422 1.422 0 0 1-.012-.572l-.001.009c.065-.342.131-.666.007-1.014-.059-.167-.042-.434.186-.433.123 0 .3.169.355.309.09.223.096.487.131.693zm-3.464-.1c-.046.091-.069.199-.129.245-.37.285-.742.569-1.132.818-.1.063-.274.024-.402-.018-.187-.061-.225-.334-.071-.444.328-.242.75-.534 1.18-.815l.116-.071c.07-.046.211.003.302.054.062.035.088.146.135.231zM19.916 4.436c.06.039.174.074.189.135.147.603.289 1.208.406 1.819.033.17-.17.264-.305.162-.426-.319-.69-1.499-.442-1.992.025-.049.088-.074.152-.125zm5.259 1.713c-.128-.095-.266-.144-.285-.225-.02-.089.046-.242.118-.313.312-.31.639-.603.979-.875.114-.089.352-.153.44-.083.208.162.098.392-.046.559-.194.226-.387.464-.611.647-.172.137-.392.196-.594.291zm-8.093 3.187-.311.327c-.089-.106-.22-.196-.257-.323-.104-.322-.24-.831-.359-1.346l-.034-.172c-.016-.071.035-.214.088-.238.086-.039.229-.055.294 0 .129.106.276.248.319.407.111.415.17.849.261 1.344zm-3.407 8.372c-.286.581-.503 1.178-1.034 1.495-.089.053-.287-.015-.383-.1-.163-.144 0-.263.078-.385.25-.382.481-.781.746-1.148.069-.095.242-.141.36-.128.08.008.146.16.233.266zm3.225.049c.149.096.257.124.277.187.033.103.051.266 0 .338-.082.114-.221.18-.342.257-.312.199-.62.409-.945.579a.391.391 0 0 1-.367-.035l.001.001c-.182-.144-.118-.374.028-.475.445-.31.914-.582 1.347-.852zm16.142-2.635c-.115.287-.276.722-.468 1.139-.029.065-.214.1-.293.061-.072-.037-.152-.2-.137-.289.076-.464.161-.929.291-1.377.039-.137.217-.261.355-.307.05-.016.183.196.246.327.036.072.007.185.007.445zm-19.457-3.459c.505.504.445 1.189.502 1.821.01.118-.121.285-.226.37-.055.044-.278-.027-.283-.068-.063-.458-.13-1.12-.181-1.786l-.008-.137c-.004-.055.114-.121.197-.2zm11.806 15.611c.085.025.168.055.249.091.304.157.609.309.905.481.14.082.281.183.383.313.117.15-.016.44-.18.4-.551-.133-1.089-.317-1.5-.775-.061-.067-.059-.237-.04-.349.012-.063.118-.107.183-.161zm-6.7-15.427c.029.101.129.259.093.357a25.331 25.331 0 0 1-.616 1.54c-.027.063-.141.118-.209.108-.059-.008-.14-.101-.156-.171-.115-.565.249-1.576.655-1.831.042-.026.108-.003.233-.003zm15.744 8.576c-.063-.045-.195-.099-.264-.204-.027-.042.061-.233.137-.294.34-.274.685-.535 1.046-.771.097-.063.299-.067.371.004.065.065.075.313.016.404-.302.468-.682.825-1.305.861zm-2.092 4.031c-.261-.03-.375-.033-.483-.06-.046-.011-.115-.072-.116-.111l-.001-.028c0-.083.022-.16.061-.227l-.001.002a.423.423 0 0 1 .209-.145l.003-.001c.403-.135.806-.27 1.215-.379.089-.023.276.041.287.098a.879.879 0 0 1-.052.43c-.025.071-.125.131-.201.157-.35.106-.701.202-.92.265zm-12.128-3.235c-.029.137-.076.439-.167.725-.022.071-.199.139-.279.113s-.176-.174-.173-.267c.008-.528.032-1.057.08-1.582.01-.115.141-.215.216-.323.091.106.236.199.259.321.051.272.041.558.064 1.013zM39.09 4.696c0-1.119.244-1.967.73-2.544.492-.584 1.122-.876 1.891-.876s1.379.251 1.833.756c.458.504.688 1.309.688 2.416s-.244 1.942-.73 2.508c-.487.565-1.136.848-1.949.848-.702 0-1.277-.224-1.724-.673-.233-.234-.415-.556-.548-.968-.127-.418-.191-.907-.191-1.466zm2.595-3.328c-.558 0-1.017.276-1.376.829-.354.553-.531 1.365-.531 2.434s.169 1.85.506 2.342c.337.492.785.738 1.343.738.564 0 1.023-.277 1.376-.83.359-.56.539-1.367.539-2.425 0-1.063-.172-1.844-.514-2.342-.338-.498-.786-.746-1.344-.746zm3.98 6.398h-.689V1.312h.688v2.969h2.695V1.312h.688v6.454h-.688V4.373h-2.695v3.393zm6.921 0h-.108l.721-6.454h.274l1.741 5.965 1.732-5.965h.274l.721 6.454h-.688l-.572-5.163-1.501 5.163h-.522L53.14 2.668l-.555 5.098zm9.95-6.453a.651.651 0 0 1 .157.452c0 .153-.031.31-.091.47l-1.484 3.346v2.185h-.688V5.784l-1.659-4.471h.705l1.584 4.158 1.443-3.236c.061-.154.091-.313.091-.479s-.042-.295-.124-.387l.065-.056zM1.169 9.462c.428-.022.848-.033 1.256-.033.419 0 .857.048 1.315.146.519.114.979.305 1.392.563l-.018-.011c.458.261.842.601 1.155 1.024.321.411.579.959.775 1.64s.292 1.511.292 2.486c0 .975-.146 1.853-.438 2.632-.283.769-.673 1.36-1.169 1.771-.965.801-2.129 1.202-3.493 1.202-.477 0-.979-.022-1.505-.065H0V9.462h1.169zm.044 11.226c.204.022.463.033.775.033s.545-.006.701-.017c.156-.01.37-.054.643-.129.29-.093.542-.208.775-.35l-.016.009c.234-.141.477-.346.731-.617a4.03 4.03 0 0 0 .662-.968l.011-.024c.418-.888.628-2.047.628-3.476 0-1.019-.112-1.896-.336-2.632-.224-.748-.483-1.3-.775-1.657a3.077 3.077 0 0 0-1.02-.837l-.017-.008c-.409-.216-.735-.341-.98-.374a6.338 6.338 0 0 0-.797-.049h-.052.003c-.321 0-.633.016-.935.049V20.69zm38.114.13h-.19V9.446h.496l6.079 10.511V9.446h.19v11.372h-1.066l-5.509-9.424v9.424zM54.9 9.446h.19v6.498c0 1.701-.302 2.952-.906 3.753-.604.79-1.393 1.186-2.367 1.186-.614 0-1.135-.059-1.563-.179a3.234 3.234 0 0 1-1.213-.699c-.779-.671-1.169-2.024-1.169-4.061V9.445h1.213v6.482c0 1.971.268 3.287.803 3.948.273.325.555.547.848.666.302.119.663.178 1.081.178.935 0 1.68-.379 2.236-1.137.565-.769.847-1.987.847-3.655V9.445zm5.175 11.372h-1.213V9.608h-2.527v-.162h6.282v.162h-2.542v11.21z"/></symbol><symbol id="logo-mob" viewBox="0 0 68 32"><path d="M40.514 15.811c0 .256-.008.511 0 .767.085 2.598-.705 4.939-1.975 7.147-.426.74-.832 1.493-1.199 2.266-.302.636-.722 1.081-1.376 1.342-.365.144-.704.396-1.01.655-1.408 1.193-3.006 2.048-4.715 2.65-1.136.4-2.304.752-3.538.736-.368-.005-.736.112-1.104.112s-.737-.121-1.102-.105c-1.59.07-3.063-.432-4.526-.959-1.596-.574-3.006-1.482-4.332-2.564-1.872-1.525-3.205-3.447-4.185-5.647-.528-1.186-.959-2.41-1.08-3.726-.02-.218-.09-.434-.153-.646-.445-1.476-.189-2.923.086-4.394.21-1.125.427-2.236.837-3.304 1.083-2.825 2.804-5.138 5.187-6.955 1.987-1.513 4.21-2.443 6.628-2.842 2.773-.459 5.482-.128 8.11.943 1.311.536 2.548 1.216 3.628 2.115 1.008.839 1.917 1.82 2.776 2.823.778.91 1.33 1.993 1.824 3.097.77 1.727 1.273 3.513 1.222 5.432-.011.355-.004.706-.004 1.057zm-1.065-3.497c-.077-.603-.124-1.302-.268-1.98-.41-1.951-1.511-3.474-2.979-4.718-.833-.708-1.742-1.322-2.638-1.947-.303-.212-.656-.406-1.01-.471-.91-.172-1.831-.333-2.754-.381-1.601-.084-3.04-.508-4.25-1.65-.89-.841-1.859-.923-2.784-.183-1.049.838-2.242 1.33-3.458 1.816-.892.357-1.749.806-2.607 1.25-.716.372-1.133.951-1.124 1.829.006.492-.214.903-.659 1.176-.37.229-.727.482-1.067.757-.947.765-1.686 1.627-1.846 2.965-.126 1.058-.438 2.103-1.145 2.975-.228.288-.38.647-.421 1.038l-.001.009c-.065.791-.038 1.591-.019 2.386.006.213.095.441.202.629.282.51.546.931.829 1.337l-.033-.049c.694.99 1.297 2.004 1.436 3.261.135 1.218.709 2.211 1.679 2.968 1.406 1.098 2.761 2.263 4.187 3.332.767.576 1.587 1.079 2.598 1.196s2.003.399 2.91.922c.19.105.398.171.613.193 1.279.141 2.463-.184 3.587-.798.352-.192.715-.368 1.079-.535.878-.403 1.851-.668 2.616-1.23.85-.626 1.76-.903 2.736-1.079.422-.075.767-.254 1.042-.576.327-.382.631-.786.972-1.154.353-.381.608-.786.67-1.328.095-.832.442-1.567.882-2.272.745-1.192 1.169-2.509 1.389-3.91.058-.368.09-.678-.087-1.002-.513-.933-.304-1.993-.466-2.986-.083-.537.107-1.124.186-1.794l-.002.001zm-6.174-9.322c-.217-.245-.285-.356-.384-.425-.176-.126-.37-.228-.558-.337C30.723 1.3 28.96.848 27.158.523c-.363-.065-.743-.036-1.112-.021-.096.003-.21.1-.272.185-.028.04.036.178.088.243.393.479.904.847 1.489 1.062l.024.008a9.67 9.67 0 0 0 3.154.61h.014c.458.013.915.102 1.37.165.389.057.777.124 1.363.219zm-13.68 26.813c-1.081-.906-2.028-1.716-2.992-2.504a92.529 92.529 0 0 0-2.173-1.722l-.257-.19c-.091-.071-.236-.069-.437-.122.983 1.692 4.265 4.264 5.858 4.537zM12.314 8.663c.652-.511 1.255-1.048 1.917-1.493.928-.62 1.283-1.392 1.064-2.716-.659.553-1.129 1.218-1.636 1.823-.537.638-.934 1.397-1.382 2.112-.034.057.021.171.038.274zm21.981 19.316c-.609-.043-1.22.068-1.602.404-.724.639-1.584.96-2.46 1.279-.46.168-.894.414-1.327.649-.06.032-.071.204-.059.306.004.035.166.091.233.068.787-.275 1.6-.496 2.345-.864.913-.45 1.771-1.019 2.645-1.547.091-.053.139-.177.225-.293zm-23.228-8.853c-.175.528-.14.821-.031 1.133.305.864.491 1.776 1.04 2.532.203.28.245.907.621.772.331-.118-.056-.614-.078-.949-.087-1.277-.742-2.306-1.552-3.487zm5.897-15.907.082.127c.454-.173.912-.336 1.363-.521 2.337-.917 3.3-1.331 4.26-1.751l-1.337.522c.196-.085.375-.22.543-.358.046-.039.038-.171.023-.253-.007-.036-.1-.076-.153-.078a.949.949 0 0 0-.275.047l.007-.002c-1.321.384-2.566.954-3.757 1.645-.279.162-.505.413-.755.623zm23.187 13.718c.08-.095.142-.135.147-.179.129-1.392-.014-2.771-.201-4.146-.009-.07-.103-.169-.166-.177-.07-.009-.179.05-.222.114a.745.745 0 0 0-.127.345 13.58 13.58 0 0 0 .231 3.475l-.014-.086c.043.225.224.424.352.654zm-29.403-3.84c.516-.201.592-.567.648-.896.135-.804.471-1.577.36-2.426-.538 1.013-1.016 2.041-1.007 3.322zm12.47 17.638c-1.155-.524-1.468-.579-2.496-.432.436.169.828.438 1.222.442.411.007.857.523 1.274-.011z"/><path d="M25.6 20.313c-.789-.014-1.333-.353-1.734-1.008-.374-.612-.996-.928-1.567-1.305-.718-.474-1.303-1.01-1.469-1.971-.115-.652.018-1.218.277-1.733.216-.43.603-.829 1.009-1.085.44-.277.805-.539 1.008-1.052.23-.589.809-.625 1.323-.731.484-.1.975-.164 1.451-.289.652-.171 1.243-.118 1.719.402.368.404.798.693 1.277.939.498.255.663.553.506 1.084-.106.361-.004.607.128.895.144.314.292.634.39.966.328 1.104-.05 2.034-1.06 2.527-.626.305-1.106.711-1.262 1.426a.662.662 0 0 1-.48.525l-.005.001c-.5.15-1.007.274-1.511.408zm3.315-4.632c.016-1.946-1.422-3.502-3.292-3.505-1.678 0-3.367 1.165-3.433 3.398-.053 1.787 1.399 3.451 3.29 3.457 2.303.012 3.39-1.628 3.435-3.349zm-6.743 1.861c0-.249.023-.377-.004-.492-.248-1.057-.409-2.105.154-3.123.041-.073-.053-.223-.085-.338-.11.037-.244.044-.327.114a2.428 2.428 0 0 0 .262 3.84zm3.452-5.854c.389.146.612.25.843.314.857.233 1.588.651 2.097 1.421.1.151.23.377.422.204.102-.092.135-.375.076-.516-.079-.188-.26-.421-.432-.458-.471-.101-.729-.451-1.035-.756-.516-.508-1.092-.667-1.97-.21zm-.052 7.661-.011-.074c-.247 0-.496-.021-.74.009-.125.016-.238.124-.357.192.108.097.202.251.326.283.663.172 1.333.208 1.988-.054.112-.046.237-.105.307-.196.062-.079.082-.218.07-.324-.005-.039-.16-.098-.237-.085-.449.071-.897.164-1.344.248l-.002.001zm3.395-1.996c.46-.087.666-.353.693-.762.02-.345.014-.691-.014-1.035-.008-.091-.132-.171-.201-.257-.102.1-.31.233-.292.293.187.597-.203 1.131-.185 1.761v.001zm4.208 2.695c-.026.014-.133.105-.249.118-.105.012-.258-.023-.323-.1a16.532 16.532 0 0 1-.904-1.126l-.033-.047c-.077-.107-.108-.393-.064-.418.143-.081.425-.166.487-.095.37.418.695.878 1.03 1.33.032.045.022.122.056.338zm-15.661 3.276c.171.014.508.025.838.083.082.014.192.179.192.277s-.095.267-.177.289c-.64.163-1.277.203-1.844-.236a.294.294 0 0 1-.091-.213c0-.01 0-.02.002-.03v.001c.012-.065.112-.156.178-.161.246-.021.493-.01.903-.01zM37.576 9.508l.242.137c-.068.126-.11.329-.211.366a9.71 9.71 0 0 1-1.415.414c-.138.028-.339-.112-.467-.227-.147-.133-.06-.422.126-.451.545-.086 1.095-.152 1.724-.238zM21.28 26.138c.256.122.47.156.575.287.287.365.549.749.785 1.15.115.191.01.398-.183.453-.107.03-.299-.059-.377-.157-.289-.354-.575-.75-.837-1.162l-.03-.051c-.061-.1.034-.302.068-.521zm10.047-15.204c.016-.112 0-.239.051-.289.069-.064.217-.117.288-.082.097.048.16.178.227.28.185.286.369.572.545.865.079.131.185.27.192.411.007.131-.07.3-.166.39-.053.05-.273.018-.327-.052-.354-.462-.779-.894-.811-1.522zm1.102-4.905c-.077.471-.107.819-.196 1.151a.955.955 0 0 1-.306.454l-.002.001c-.101.084-.279.072-.422.102-.011-.137-.053-.28-.028-.41.075-.402.174-.799.264-1.197.007-.031.005-.064.014-.095.07-.24.223-.424.467-.324.123.05.181.27.208.316zM25.82 9.095c.215.028.494.043.759.109.091.022.225.19.209.262-.027.129-.132.299-.243.338a.904.904 0 0 1-.54.003c-.306-.1-.592-.134-.898-.003-.201.087-.39-.004-.443-.209-.072-.275.13-.408.356-.447.242-.041.491-.034.799-.053zm4.781 13.546c-.087.39-.153.732-.247 1.067-.018.065-.154.154-.21.139-.102-.026-.245-.108-.266-.193a1.31 1.31 0 0 1-.014-.574l-.001.008c.071-.343.142-.668.007-1.018-.064-.168-.046-.435.203-.434.134 0 .326.169.386.309.098.225.105.489.142.696zm-3.772-.1c-.05.091-.075.199-.14.246-.403.284-.808.571-1.232.821-.109.064-.299.025-.437-.018-.203-.061-.245-.334-.077-.446.334-.229.794-.523 1.262-.805l.149-.084c.076-.046.23.003.329.053.068.035.096.146.147.233zM21.686 4.213c.065.039.189.073.206.135.16.606.315 1.213.442 1.826.036.171-.185.265-.332.164-.464-.32-.752-1.505-.481-2 .028-.049.096-.074.166-.124zm5.727 1.719c-.139-.095-.29-.144-.31-.227-.022-.09.05-.242.128-.314.34-.311.696-.604 1.066-.878.124-.09.383-.154.479-.083.226.163.107.393-.05.561-.211.226-.422.465-.666.649-.187.138-.427.197-.647.293zm-8.812 3.199-.339.329c-.097-.107-.24-.196-.28-.324a17.647 17.647 0 0 1-.393-1.358l-.035-.165c-.018-.07.038-.214.096-.238.094-.04.249-.055.32 0 .14.107.301.249.347.409.121.416.185.852.284 1.348zm-3.71 8.404c-.311.585-.548 1.183-1.126 1.501-.097.053-.313-.014-.417-.1-.178-.144 0-.265.085-.388.272-.384.523-.783.812-1.152.075-.095.263-.142.392-.129.087.009.159.161.254.267zm3.511.049c.162.096.28.124.302.188.036.104.055.267 0 .339-.089.114-.241.181-.372.257-.34.2-.676.411-1.029.582a.456.456 0 0 1-.4-.036l.002.001c-.198-.144-.128-.375.031-.476.485-.312.996-.585 1.467-.855zm17.577-2.646c-.125.289-.301.725-.509 1.143-.032.065-.233.1-.319.061-.079-.036-.166-.201-.149-.289.083-.465.176-.932.316-1.382.043-.137.237-.262.386-.308.055-.017.199.196.268.327.039.073.007.186.007.448zm-21.186-3.471c.55.506.485 1.193.546 1.828.011.118-.132.287-.246.372-.06.045-.303-.027-.309-.068a30.592 30.592 0 0 1-.197-1.795l-.009-.135c-.004-.055.124-.122.215-.201zm12.855 15.67c.092.025.183.055.272.091.331.157.663.31.986.484.153.081.306.183.417.314.127.151-.018.442-.196.402-.599-.132-1.185-.318-1.633-.778-.066-.068-.065-.238-.043-.351.013-.064.128-.107.199-.161zm-7.296-15.485c.031.102.14.26.102.359a24.015 24.015 0 0 1-.671 1.545c-.029.063-.154.118-.228.108-.064-.009-.153-.101-.17-.171-.125-.567.271-1.582.713-1.838.046-.026.118-.004.253-.004zm17.143 8.608c-.069-.045-.213-.1-.287-.205-.03-.043.067-.234.149-.295.324-.248.696-.503 1.08-.739l.059-.034c.106-.063.326-.068.404.004.071.066.082.314.017.405-.329.469-.743.828-1.421.864zm-2.277 4.046c-.284-.03-.408-.033-.526-.06-.05-.011-.125-.073-.126-.112l-.001-.027c0-.084.024-.162.066-.228l-.001.002a.466.466 0 0 1 .227-.146l.003-.001c.439-.135.877-.27 1.323-.38.097-.023.3.042.313.098a.823.823 0 0 1-.057.432c-.028.071-.136.132-.219.157-.381.107-.764.203-1.002.266zm-13.206-3.247c-.031.137-.082.441-.181.727-.024.071-.216.14-.304.114s-.192-.175-.188-.268c.009-.53.035-1.061.087-1.589.011-.115.154-.216.235-.324.099.107.257.2.282.322.055.274.044.562.07 1.017zM42.564 4.474c0-1.124.265-1.975.795-2.554.535-.586 1.222-.879 2.059-.879s1.502.252 1.995.759c.499.506.749 1.314.749 2.425 0 1.109-.265 1.948-.795 2.517s-1.237.851-2.122.851c-.764 0-1.39-.225-1.877-.676-.253-.235-.452-.558-.597-.971-.138-.42-.208-.91-.208-1.472zm2.826-3.341c-.608 0-1.107.277-1.498.832-.385.556-.578 1.37-.578 2.443s.183 1.857.551 2.351c.367.494.855.74 1.463.74.614 0 1.114-.277 1.498-.832.391-.562.587-1.372.587-2.434 0-1.067-.187-1.851-.56-2.35-.368-.5-.855-.75-1.463-.75zm4.334 6.423h-.75V1.078h.749v2.98h2.934v-2.98h.749v6.478h-.749V4.151h-2.934v3.405zm7.537 0h-.117l.785-6.478h.299l1.896 5.988 1.887-5.988h.299l.785 6.478h-.749l-.623-5.183-1.634 5.183h-.569l-1.653-5.117-.604 5.117zm10.834-6.478a.622.622 0 0 1 .171.453c0 .154-.033.311-.1.472L66.55 5.362v2.193h-.749v-1.99l-1.806-4.488h.768l1.724 4.173 1.571-3.248c.066-.154.1-.315.1-.481s-.046-.296-.135-.388l.071-.055zM1.273 9.257c.466-.021.923-.033 1.368-.033.457 0 .934.05 1.432.147a5.015 5.015 0 0 1 1.52.568l-.024-.013c.498.261.917.603 1.257 1.027.35.413.631.962.843 1.647s.318 1.517.318 2.496c0 .978-.159 1.858-.476 2.641-.308.772-.732 1.365-1.273 1.778-1.051.804-2.318 1.207-3.804 1.207-.519 0-1.066-.022-1.638-.065H0V9.258h1.273zm.048 11.269c.223.022.504.033.843.033s.594-.005.764-.016c.17-.011.403-.054.7-.13a4.01 4.01 0 0 0 .847-.353l-.02.011c.255-.141.52-.348.796-.619a4.04 4.04 0 0 0 .722-.973l.011-.022c.455-.892.683-2.055.683-3.489 0-1.023-.122-1.903-.365-2.642-.244-.75-.526-1.305-.843-1.664a3.313 3.313 0 0 0-1.11-.839l-.02-.008c-.445-.218-.801-.343-1.067-.375a7.367 7.367 0 0 0-.873-.05h-.052.003c-.35 0-.69.017-1.018.05v11.088zm41.502.13h-.207V9.241h.54l6.619 10.55V9.24h.207v11.415h-1.161l-5.999-9.458v9.458zM59.78 9.241h.207v6.523c0 1.707-.329 2.962-.986 3.767-.658.794-1.517 1.191-2.578 1.191-.668 0-1.236-.06-1.702-.18a3.622 3.622 0 0 1-1.326-.706l.006.005c-.848-.674-1.273-2.033-1.273-4.077V9.242h1.321v6.507c0 1.978.292 3.3.875 3.962.297.326.604.549.923.668.329.119.722.179 1.178.179 1.018 0 1.83-.38 2.435-1.141.615-.772.922-1.995.922-3.669V9.241zm5.635 11.415h-1.321V9.404h-2.752V9.24h6.841v.164h-2.768v11.252z"/></symbol><symbol id="logo-menu" viewBox="0 0 72 32"><path d="M42.45 15.997c0 .261-.008.522 0 .783.089 2.652-.739 5.042-2.069 7.296a32.692 32.692 0 0 0-1.256 2.314c-.317.649-.757 1.104-1.442 1.37-.383.148-.737.405-1.058.669-1.476 1.218-3.15 2.091-4.94 2.705-1.19.408-2.414.767-3.706.751-.385-.005-.771.114-1.157.115s-.772-.124-1.154-.108c-1.666.072-3.21-.441-4.742-.979-1.673-.587-3.15-1.513-4.539-2.618-1.96-1.557-3.357-3.52-4.385-5.766-.553-1.21-1.004-2.46-1.131-3.803-.021-.223-.095-.443-.161-.66-.466-1.507-.198-2.985.09-4.486.221-1.148.448-2.283.877-3.373 1.135-2.884 2.938-5.245 5.434-7.1C19.193 1.562 21.523.613 24.055.205c2.906-.468 5.744-.131 8.497.963 1.374.547 2.67 1.241 3.802 2.159 1.056.856 2.008 1.859 2.908 2.883.815.928 1.394 2.034 1.911 3.162.807 1.762 1.333 3.586 1.28 5.546-.012.362-.003.721-.003 1.08zm-1.115-3.57c-.081-.616-.131-1.329-.281-2.022-.429-1.992-1.583-3.547-3.121-4.817-.873-.722-1.825-1.35-2.763-1.988-.318-.216-.687-.415-1.058-.482-.954-.175-1.919-.34-2.886-.389-1.678-.085-3.186-.518-4.453-1.685-.933-.858-1.948-.941-2.918-.186-1.099.855-2.349 1.358-3.623 1.855-.934.364-1.833.823-2.732 1.276-.75.379-1.187.971-1.177 1.867.006.503-.224.923-.69 1.201-.427.258-.792.513-1.139.79l.022-.017c-.993.782-1.768 1.661-1.935 3.027-.132 1.08-.459 2.148-1.2 3.038a2.025 2.025 0 0 0-.441 1.059l-.001.009c-.068.808-.04 1.624-.02 2.437.006.217.1.451.211.642.256.452.535.891.835 1.315.727 1.01 1.359 2.046 1.506 3.329.141 1.243.742 2.257 1.759 3.031 1.472 1.12 2.892 2.31 4.387 3.402.803.588 1.663 1.102 2.723 1.221s2.098.408 3.048.941c.186.102.404.172.635.196l.007.001c1.34.145 2.581-.187 3.758-.814.369-.197.749-.375 1.131-.546.92-.411 1.94-.682 2.741-1.255.891-.639 1.845-.922 2.868-1.101.442-.078.803-.26 1.091-.588.344-.39.661-.802 1.019-1.179.37-.389.637-.802.702-1.356.099-.849.463-1.599.924-2.319.781-1.218 1.225-2.562 1.456-3.992.061-.375.095-.692-.091-1.023-.538-.952-.318-2.034-.488-3.049-.086-.548.112-1.148.195-1.832l-.002.001zm-6.47-9.517c-.227-.251-.299-.364-.402-.435-.186-.128-.388-.233-.585-.344-1.687-.95-3.535-1.412-5.423-1.743-.379-.068-.778-.038-1.166-.023-.101.004-.221.102-.285.19-.029.04.037.181.092.247.414.491.949.867 1.56 1.084l.025.008c.984.366 2.12.591 3.305.623H32c.48.013.958.104 1.435.169.407.058.814.127 1.428.223zM20.533 30.284c-1.132-.925-2.125-1.752-3.135-2.556-.836-.666-1.69-1.31-2.545-1.952-.096-.072-.248-.07-.458-.124 1.03 1.728 4.469 4.353 6.138 4.632zm-7.63-21.585c.683-.522 1.315-1.07 2.008-1.525.972-.633 1.344-1.42 1.114-2.772-.69.564-1.182 1.243-1.714 1.861-.562.651-.98 1.426-1.448 2.155-.036.059.023.175.04.281zm23.03 19.722c-.637-.044-1.279.069-1.678.413-.758.652-1.66.98-2.578 1.306-.482.171-.936.422-1.39.661-.063.033-.075.209-.061.313.004.035.174.092.244.069.824-.28 1.676-.507 2.456-.882.957-.459 1.856-1.04 2.772-1.579.096-.054.147-.181.236-.299zm-24.337-9.04c-.183.539-.147.838-.032 1.157.319.882.513 1.814 1.089 2.585.213.286.257.925.651.788.346-.12-.059-.627-.083-.968-.091-1.304-.777-2.355-1.625-3.561zm6.179-16.239.085.129c.476-.177.956-.343 1.428-.532 2.485-.948 3.496-1.371 4.502-1.801l-1.439.547c.205-.087.393-.226.568-.366.049-.04.04-.175.025-.258-.008-.037-.105-.078-.161-.08a.971.971 0 0 0-.288.049l.007-.002c-1.384.393-2.688.974-3.936 1.679-.292.166-.529.422-.791.636zm24.296 14.005c.084-.097.149-.137.154-.183.135-1.421-.016-2.829-.21-4.233-.01-.071-.108-.172-.174-.18-.073-.01-.188.051-.233.117a.744.744 0 0 0-.132.349v.003a13.574 13.574 0 0 0 .242 3.546l-.015-.087c.044.23.235.432.369.668zm-30.809-3.92c.54-.206.621-.579.678-.915.141-.82.494-1.609.377-2.477-.564 1.035-1.065 2.083-1.055 3.392zm13.066 18.007c-1.21-.535-1.538-.591-2.616-.441.457.173.868.448 1.281.452.431.007.898.534 1.335-.011z"/><path d="M26.824 20.593c-.827-.015-1.396-.361-1.817-1.03-.392-.624-1.045-.948-1.642-1.332-.753-.484-1.366-1.03-1.54-2.012-.12-.666.02-1.243.29-1.769.227-.439.632-.847 1.058-1.108.461-.283.843-.55 1.056-1.073.241-.602.848-.639 1.386-.747.506-.102 1.021-.168 1.521-.295.683-.174 1.303-.12 1.801.411.386.412.836.708 1.338.958.522.26.695.564.531 1.107-.111.369-.004.62.134.914.15.321.305.647.408.986.344 1.128-.052 2.077-1.111 2.58-.657.311-1.159.726-1.323 1.455a.682.682 0 0 1-.508.537c-.524.153-1.055.28-1.584.417zm3.473-4.729c.017-1.987-1.49-3.576-3.45-3.579-1.758 0-3.528 1.19-3.596 3.469-.055 1.824 1.465 3.524 3.447 3.53 2.413.012 3.552-1.663 3.599-3.42zm-7.065 1.9c0-.255.024-.385-.004-.503-.26-1.079-.429-2.149.161-3.188.043-.075-.056-.229-.088-.346-.116.037-.255.045-.343.117-.974.799-1.409 2.718.274 3.92zm3.617-5.977c.408.149.64.255.884.321.898.238 1.664.664 2.197 1.451.105.155.241.385.442.209.107-.094.142-.382.08-.526-.083-.191-.272-.43-.453-.468-.493-.103-.763-.46-1.085-.771-.541-.519-1.144-.681-2.065-.215zm-.055 7.822-.012-.075c-.259 0-.52-.022-.774.009-.131.016-.25.127-.374.195.113.1.211.257.341.29.696.175 1.397.213 2.083-.055.117-.046.248-.106.322-.201.065-.08.087-.223.073-.331-.005-.04-.168-.101-.248-.088-.471.074-.94.167-1.409.254l-.002.001zm3.557-2.038c.482-.089.698-.361.726-.779a7.298 7.298 0 0 0-.015-1.056c-.008-.093-.137-.175-.211-.263-.107.102-.325.238-.305.299.196.609-.213 1.155-.194 1.797v.001zm4.41 2.752c-.028.014-.139.107-.261.12-.11.013-.271-.024-.339-.101-.324-.36-.646-.75-.95-1.154l-.032-.044c-.08-.108-.113-.401-.068-.426.151-.083.445-.17.511-.098.388.427.728.897 1.079 1.357.034.046.024.125.059.346zm-16.41 3.346c.179.014.533.025.878.084.086.015.201.183.201.283s-.099.274-.185.295c-.671.166-1.338.207-1.932-.241a.299.299 0 0 1-.095-.22l.001-.028v.001c.012-.067.117-.16.186-.166.258-.021.516-.009.946-.009zM39.372 9.562l.254.139c-.072.129-.116.336-.221.373a10.45 10.45 0 0 1-1.483.423c-.145.029-.355-.114-.489-.232-.154-.136-.062-.431.132-.461.571-.088 1.147-.155 1.807-.242zM22.297 26.54c.268.125.493.161.602.294.3.373.575.764.822 1.174.12.195.011.406-.192.462-.111.031-.313-.059-.395-.16a12.394 12.394 0 0 1-.878-1.189l-.03-.049c-.064-.102.035-.308.071-.532zm10.527-15.522c.017-.114 0-.244.054-.294.072-.066.227-.12.302-.085.102.049.168.182.237.287.123.175.312.462.496.753l.076.129c.083.134.194.276.201.42a.563.563 0 0 1-.174.398c-.056.051-.286.018-.343-.053-.371-.472-.817-.913-.849-1.555zm1.155-5.008c-.08.482-.112.836-.206 1.175a.973.973 0 0 1-.319.463l-.002.002c-.107.086-.292.073-.442.105-.012-.14-.056-.286-.031-.419.078-.41.183-.815.277-1.222.008-.032.005-.065.014-.096.074-.245.234-.433.49-.331.129.052.189.277.218.324zm-6.925 3.131c.226.028.518.043.797.111.095.023.236.194.219.268-.029.132-.139.306-.255.345a.938.938 0 0 1-.572.001l.007.002c-.321-.102-.62-.136-.941-.002-.21.088-.408-.005-.464-.214-.075-.281.136-.417.373-.457.253-.042.515-.035.837-.053zm5.01 13.829c-.091.398-.161.748-.259 1.089-.019.067-.161.157-.22.142-.107-.026-.257-.11-.279-.198a1.273 1.273 0 0 1-.015-.586l-.001.008c.075-.35.15-.682.008-1.039-.067-.171-.048-.444.212-.443.14 0 .342.173.405.316.102.229.109.499.149.71zm-3.953-.102c-.052.094-.078.204-.146.251-.423.291-.847.584-1.292.838-.114.065-.313.025-.458-.018-.212-.063-.257-.343-.08-.456a34.41 34.41 0 0 1 1.478-.908c.081-.046.241.004.345.055.07.035.1.149.154.237zM22.723 4.155c.069.04.198.075.215.139.168.618.33 1.238.463 1.864.037.174-.193.271-.347.167-.486-.327-.788-1.536-.505-2.042.029-.05.101-.075.174-.127zm6.001 1.756c-.146-.098-.304-.147-.325-.232-.023-.091.053-.247.134-.321.335-.3.699-.594 1.077-.869l.04-.027c.13-.092.401-.157.502-.085.237.166.113.401-.053.573-.221.232-.442.475-.697.663-.196.14-.447.201-.678.299zm-9.235 3.266-.355.335c-.102-.109-.251-.2-.294-.331a23.371 23.371 0 0 1-.448-1.555c-.019-.072.04-.219.101-.244.098-.04.26-.056.335 0 .147.108.315.254.364.418.127.425.193.87.298 1.377zm-3.887 8.58c-.326.596-.573 1.207-1.18 1.533-.102.055-.328-.015-.437-.102-.186-.148 0-.27.09-.395.285-.392.548-.8.85-1.176.078-.097.276-.145.41-.131.092.009.166.164.266.273zm3.68.05c.17.098.293.128.316.192.038.106.057.273 0 .346-.093.117-.253.184-.39.263-.357.204-.708.419-1.078.594a.49.49 0 0 1-.418-.035c-.207-.147-.134-.383.032-.487.508-.318 1.043-.597 1.538-.873zm18.416-2.701c-.131.295-.315.74-.533 1.167-.034.066-.245.102-.334.063-.083-.038-.174-.205-.157-.295.088-.475.184-.952.332-1.411.045-.14.248-.267.404-.314.058-.017.209.201.281.334.041.075.007.191.007.457zM15.5 11.562c.576.517.507 1.218.571 1.866.012.12-.138.293-.258.379-.063.046-.317-.028-.323-.07a30.2 30.2 0 0 1-.207-1.832l-.01-.138c-.005-.056.131-.125.226-.205zM28.969 27.56c.097.026.192.056.285.093.346.16.695.316 1.032.493.161.083.321.187.437.321.133.154-.019.451-.204.41-.629-.136-1.242-.325-1.712-.794-.069-.069-.068-.243-.045-.358.013-.065.134-.11.208-.165zm-7.645-15.809c.033.104.147.265.107.366a24.698 24.698 0 0 1-.704 1.578c-.03.064-.161.12-.238.11-.068-.008-.161-.103-.178-.175-.132-.579.283-1.615.747-1.876.048-.027.124-.004.266-.004zm17.964 8.788c-.072-.046-.223-.102-.301-.209-.031-.043.07-.239.157-.301.337-.251.726-.512 1.127-.753l.065-.036c.111-.064.341-.069.423.003.075.067.086.321.018.414-.345.479-.779.845-1.49.882zm-2.387 4.131c-.298-.031-.428-.034-.552-.062-.053-.012-.131-.074-.132-.114l-.001-.026c0-.086.026-.167.07-.234l-.001.002a.498.498 0 0 1 .238-.15l.004-.001c.459-.138.919-.276 1.386-.388.101-.024.314.043.328.1.031.137-.006.303-.06.441-.029.073-.142.134-.23.16-.399.11-.8.207-1.049.272zm-13.837-3.315c-.033.14-.087.45-.19.743-.026.073-.227.142-.319.116s-.201-.178-.198-.274a20.04 20.04 0 0 1 .098-1.704l-.007.082c.012-.117.161-.221.247-.331.103.109.27.204.296.329.058.279.046.573.073 1.038zM44.599 4.422c0-1.146.278-2.016.833-2.607.561-.599 1.28-.898 2.157-.898s1.574.258 2.091.775c.524.517.785 1.342.785 2.475s-.277 1.99-.832 2.57c-.555.58-1.296.87-2.223.87-.801 0-1.457-.23-1.968-.69-.265-.239-.473-.57-.625-.992-.145-.428-.218-.929-.218-1.502zm2.961-3.41c-.637 0-1.16.283-1.57.85-.404.567-.606 1.398-.606 2.494s.192 1.896.577 2.4c.385.504.896.756 1.533.756.643 0 1.167-.283 1.571-.85.41-.573.615-1.402.615-2.485 0-1.09-.195-1.89-.587-2.4a1.827 1.827 0 0 0-1.533-.765zm4.541 6.557h-.785V.956h.785v3.042h3.075V.956h.785v6.613h-.785V4.092h-3.075v3.477zm7.896 0h-.123l.823-6.613h.312l1.987 6.113L64.973.956h.312l.823 6.613h-.785l-.653-5.291-1.713 5.291h-.596L60.63 2.344l-.634 5.225zM71.35.955c.12.12.18.274.18.463 0 .157-.035.318-.104.482l-1.694 3.43v2.239h-.785V5.538L67.055.956h.804l1.807 4.261 1.646-3.316c.069-.157.104-.321.104-.491s-.047-.302-.142-.397l.076-.056zM1.334 9.306c.427-.021.928-.033 1.432-.034h.001c.478 0 .978.05 1.501.15a5.35 5.35 0 0 1 1.567.566 4.06 4.06 0 0 1 1.317 1.049c.367.422.661.983.884 1.682s.334 1.548.334 2.547c0 .999-.167 1.898-.5 2.697-.322.788-.767 1.393-1.334 1.815-1.1.821-2.428 1.232-3.984 1.232-.545 0-1.117-.022-1.717-.067H.001V9.306h1.334zm.05 11.505c.233.022.528.033.884.033s.622-.006.8-.017c.178-.011.422-.056.734-.133.332-.094.619-.214.889-.361l-.022.011c.267-.144.544-.355.833-.632.3-.291.555-.626.756-.994l.011-.022c.478-.91.717-2.098.717-3.563 0-1.043-.128-1.943-.383-2.697-.256-.766-.55-1.332-.884-1.698a3.461 3.461 0 0 0-1.162-.857l-.022-.009c-.467-.222-.839-.349-1.117-.383a7.923 7.923 0 0 0-.905-.05h-.065.003c-.367 0-.723.017-1.067.05v11.322zm43.485.133h-.216V9.29h.567l6.936 10.772V9.289h.216v11.654h-1.217l-6.286-9.656v9.656zM62.638 9.289h.217v6.66c0 1.743-.344 3.025-1.034 3.846-.689.81-1.589 1.215-2.701 1.215-.7 0-1.295-.061-1.784-.183a3.843 3.843 0 0 1-1.384-.716c-.889-.688-1.333-2.075-1.333-4.162v-6.66h1.384v6.643c0 2.02.306 3.369.917 4.046.311.333.634.561.967.683.345.122.756.183 1.234.183 1.067 0 1.917-.389 2.551-1.166.645-.788.967-2.037.967-3.746V9.289zm5.904 11.655h-1.384V9.456h-2.884V9.29h7.169v.166h-2.901v11.488z"/></symbol><symbol id="close-burger" viewBox="0 0 32 32"><path d="M30.354 32a1.646 1.646 0 0 0 1.162-2.81L2.812.481A1.647 1.647 0 0 0 .483 2.81l28.708 28.708c.322.32.743.484 1.164.484z"/><path d="M1.644 32c.421 0 .843-.16 1.164-.484L31.517 2.81A1.647 1.647 0 0 0 29.188.481L.479 29.19a1.645 1.645 0 0 0 1.164 2.809z"/></symbol><symbol id="burger" viewBox="0 0 60 32"><path d="M2 0h56a2 2 0 1 1 0 4H2a2 2 0 1 1 0-4zM2 14h56a2 2 0 1 1 0 4H2a2 2 0 1 1 0-4zM2 28h56a2 2 0 1 1 0 4H2a2 2 0 1 1 0-4z"/></symbol><symbol id="phone" viewBox="0 0 32 32"><path d="M29.43 20.47h-.033c-2.027 0-3.978-.324-5.805-.924l.131.037c-.894-.295-1.991-.025-2.535.519l-3.599 2.649c-4.172-2.171-6.742-4.677-8.938-8.711l2.634-3.414a2.48 2.48 0 0 0 .638-2.555c-.577-1.653-.911-3.559-.911-5.543v-.026.001C11.01 1.122 9.855 0 8.442 0H2.566C1.151 0-.001 1.122-.001 2.503c0 15.815 13.201 28.682 29.43 28.682 1.415 0 2.567-1.122 2.567-2.503v-5.711c0-1.378-1.152-2.501-2.567-2.501z"/></symbol><symbol id="location" viewBox="0 0 23 32"><path d="M11.733 0c6.47 0 11.733 5.131 11.733 11.435 0 2.496-.811 4.866-2.34 6.854l-8.67 11.381c-.021.026-.055.036-.079.062a.886.886 0 0 1-1.364-.062l-.002-.002c-2.498-3.245-7.074-9.308-8.832-11.595l-.004-.004-.011-.013a11.071 11.071 0 0 1-2.165-6.605v-.017.001C-.001 5.131 5.262 0 11.732 0zm0 17.604c3.484 0 6.33-2.773 6.33-6.17 0-3.394-2.846-6.17-6.33-6.17s-6.33 2.773-6.33 6.17c0 3.394 2.846 6.17 6.33 6.17z"/></symbol><symbol id="star-check" viewBox="0 0 34 32"><path fill="#ab816c" d="M15.24 1.561c.505-1.551 2.7-1.551 3.203 0l2.558 7.872c.227.68.857 1.162 1.6 1.162h8.278c1.632 0 2.309 2.088.99 3.048l-6.696 4.864a1.683 1.683 0 0 0-.608 1.895l-.003-.012 2.557 7.872c.505 1.553-1.272 2.843-2.592 1.883l-6.695-4.864a1.68 1.68 0 0 0-1.985.003l.005-.003-6.696 4.864c-1.319.96-3.096-.332-2.59-1.883l2.557-7.872a1.682 1.682 0 0 0-.607-1.88l-.005-.003-6.696-4.864c-1.319-.96-.64-3.048.99-3.048h8.276c.744 0 1.374-.482 1.598-1.15l.003-.012 2.56-7.872z"/></symbol><symbol id="star-no-check" viewBox="0 0 34 32"><path fill="none" stroke="#ab816c" stroke-width="1.684" d="M16.04 1.822a.843.843 0 0 1 1.602-.006l.002.006 2.557 7.87a2.532 2.532 0 0 0 2.403 1.747h8.276a.842.842 0 0 1 .497 1.521l-.002.002-6.696 4.866a2.527 2.527 0 0 0-.912 2.842l-.005-.018 2.558 7.872a.842.842 0 0 1-1.3.94l.002.002-6.695-4.866c-.411-.302-.927-.483-1.485-.483s-1.074.181-1.493.488l.007-.005-6.695 4.866a.842.842 0 0 1-1.295-.949l-.002.006 2.558-7.87a2.524 2.524 0 0 0-.91-2.819l-.007-.005-6.698-4.866a.841.841 0 0 1 .495-1.522h8.276a2.527 2.527 0 0 0 2.398-1.729l.005-.018 2.557-7.87z"/></symbol><symbol id="icon-next-hover" viewBox="0 0 144 32"><path fill="#876655" style="fill:var(--color1,#876655)" d="M141.414 17.414a2 2 0 0 0 0-2.828L128.686 1.858a2 2 0 1 0-2.828 2.828L137.172 16l-11.314 11.314a2 2 0 1 0 2.828 2.828l12.728-12.728zM0 18h140v-4H0v4z"/></symbol><symbol id="icon-prev-hover" viewBox="0 0 144 32"><path fill="#876655" style="fill:var(--color1,#876655)" d="M2.586 14.586a2 2 0 0 0 0 2.828l12.728 12.728a2 2 0 1 0 2.828-2.828L6.828 16 18.142 4.686a2 2 0 1 0-2.828-2.828L2.586 14.586zM144 14H4v4h140v-4z"/></symbol><symbol id="icon-line" viewBox="0 0 144 32"><path fill="#876655" style="fill:var(--color1,#876655)" d="M142.83 14.585h-140v4h140v-4z"/><symbol id="chef-hat" viewBox="0 0 32 32"><path fill="#674d40" d="M23.048 8.572a.404.404 0 0 1-.304-.144v-.001a.529.529 0 0 1-.125-.343v-.005c-.033-1.889-.712-3.689-1.888-5.011s-2.757-2.063-4.404-2.063-3.228.741-4.404 2.063c-1.178 1.322-1.855 3.122-1.888 5.011a.532.532 0 0 1-.125.348.406.406 0 0 1-.304.145.405.405 0 0 1-.303-.144l-.001-.001a.528.528 0 0 1-.127-.345v-.004c.029-2.154.796-4.209 2.134-5.722C12.649.847 14.45-.002 16.327-.002c1.879 0 3.681.847 5.02 2.359 1.338 1.51 2.104 3.566 2.132 5.72a.532.532 0 0 1-.125.348.404.404 0 0 1-.303.145z"/><path fill="#674d40" d="M24.302 19.732a.4.4 0 0 1-.304-.143v-.001a.525.525 0 0 1-.128-.346v-.001c0-.132.044-.256.124-.351a.404.404 0 0 1 .303-.146c1.637-.012 3.205-.759 4.366-2.083 1.162-1.322 1.824-3.116 1.846-4.995-.017-1.896-.687-3.707-1.866-5.037s-2.769-2.068-4.422-2.054c-.635 0-1.266.106-1.873.32a.378.378 0 0 1-.326-.042l.002.001a.486.486 0 0 1-.207-.286l-.001-.003a.545.545 0 0 1 .031-.375l-.001.003a.457.457 0 0 1 .25-.243 6.264 6.264 0 0 1 2.118-.361h.008c1.882-.014 3.69.828 5.03 2.342s2.102 3.578 2.118 5.734c-.023 2.138-.774 4.179-2.095 5.687-1.32 1.508-3.104 2.362-4.966 2.377h-.005zm-15.956 0h-.004c-1.864-.015-3.647-.869-4.966-2.377-1.322-1.508-2.075-3.549-2.095-5.687.017-2.157.778-4.22 2.118-5.734s3.149-2.356 5.03-2.342a6.383 6.383 0 0 1 2.125.362.42.42 0 0 1 .15.09.48.48 0 0 1 .106.146l.001.003a.545.545 0 0 1-.048.552l.001-.002a.437.437 0 0 1-.13.12l-.002.001a.39.39 0 0 1-.333.031l.003.001a5.518 5.518 0 0 0-1.867-.319h-.007c-1.651-.013-3.242.724-4.421 2.054s-1.851 3.141-1.866 5.037c.02 1.879.684 3.672 1.844 4.995 1.162 1.324 2.73 2.071 4.367 2.083.06.001.116.015.166.039l-.002-.001a.45.45 0 0 1 .14.108.555.555 0 0 1-.005.698l.001-.001a.43.43 0 0 1-.138.105l-.003.001a.38.38 0 0 1-.164.037z"/><path fill="#674d40" d="M24.302 32H8.346a.404.404 0 0 1-.304-.144l-.001-.001a.529.529 0 0 1-.125-.343V19.238c0-.131.045-.256.125-.349a.403.403 0 0 1 .304-.143c.114 0 .223.051.303.143a.53.53 0 0 1 .125.349v11.773h15.098V19.238c0-.131.045-.256.125-.349a.403.403 0 0 1 .304-.143c.114 0 .223.051.303.143a.533.533 0 0 1 .127.349v12.268a.528.528 0 0 1-.127.348.404.404 0 0 1-.303.145z"/><path fill="#674d40" d="M27.293 27.222H11.338a.404.404 0 0 1-.304-.144l-.001-.001a.529.529 0 0 1-.125-.343v-.006c0-.131.045-.256.125-.348a.406.406 0 0 1 .304-.145h15.955a.4.4 0 0 1 .305.145.528.528 0 0 1 .125.348.534.534 0 0 1-.125.349.406.406 0 0 1-.304.145z"/></symbol><symbol id="people" viewBox="0 0 32 32"><path fill="#674d40" d="M11.887 0C8.594 0 5.913 3.077 5.913 6.856s2.682 6.856 5.975 6.856 5.975-3.077 5.975-6.856S15.18 0 11.888 0zm0 12.562c-2.749 0-4.979-2.566-4.979-5.714 0-3.146 2.236-5.713 4.979-5.713 2.749 0 4.979 2.566 4.979 5.713 0 3.149-2.236 5.714-4.979 5.714zm12.238-9.717c-2.474 0-4.484 2.307-4.484 5.146s2.01 5.146 4.484 5.146c2.476 0 4.485-2.307 4.485-5.146s-2.01-5.146-4.485-5.146zm0 9.155c-1.924 0-3.488-1.795-3.488-4.003s1.564-4.003 3.488-4.003c1.925 0 3.489 1.795 3.489 4.003S26.05 12 24.125 12z"/><path fill="#674d40" d="M32.148 20.678c-.452-3.126-2.145-5.761-5.029-7.142 0 0-1.276 1.107-2.994 1.073-1.875-.042-2.994-1.073-2.994-1.073s-1.393.596-2.516 1.837c-1.039-1.059-2.793-1.92-2.793-1.92s-1.606 1.402-3.941 1.38c-2.45-.02-3.928-1.381-3.928-1.381s-5.298 2.089-6.415 9.176c0 0-1.198 3.757 1.576 9.372h17.554s1.247-2.488 1.467-4.003h8.731c2.145-3.73 1.284-7.319 1.284-7.319zM20.05 30.857H3.73c-2.131-4.646-1.21-8.04-1.21-8.04.52-3.555 2.511-6.554 5.359-8.077 1.123.773 2.513 1.235 4.011 1.235s2.888-.462 4.035-1.251l-.024.016c2.848 1.523 4.838 4.522 5.359 8.077-.006 0 .879 4.178-1.211 8.04zm10.235-4.003h-7.949c.305-2.019-.099-4.227-.099-4.227-.36-2.496-1.386-4.746-2.89-6.484a7.21 7.21 0 0 1 1.669-1.3l.036-.019c.863.58 1.926.925 3.07.925s2.207-.345 3.09-.938l-.02.013c2.108 1.157 3.588 3.393 3.972 6.043 0 0 .727 2.833-.879 5.987z"/></symbol><symbol id="clock" viewBox="0 0 32 32"><path fill="#674d40" d="M16 0C7.177 0 0 7.177 0 16c0 8.822 7.177 16 16 16 8.822 0 16-7.178 16-16 0-8.823-7.178-16-16-16zm0 30.934c-8.234 0-14.934-6.7-14.934-14.934S7.766 1.066 16 1.066 30.934 7.766 30.934 16 24.234 30.934 16 30.934z"/><path fill="#674d40" d="M16.534 13.878V8.469a.534.534 0 1 0-1.068 0v5.409a2.14 2.14 0 0 0-1.52 1.51l-.003.015h-3.809l-.026-.001a.534.534 0 1 0 0 1.068l.027-.001h-.001 3.809a2.13 2.13 0 0 0 2.057 1.6 2.134 2.134 0 0 0 2.134-2.132c0-.992-.684-1.819-1.6-2.058zM16 17.002a1.067 1.067 0 0 1 .002-2.136h.001a1.067 1.067 0 0 1-.002 2.136H16zm0-11.734a.533.533 0 0 0 .534-.532v-.534a.534.534 0 1 0-1.068 0v.534c0 .294.239.532.534.532zm0 21.334a.534.534 0 0 0-.534.534v.532a.534.534 0 1 0 1.068 0v-.533a.532.532 0 0 0-.532-.532h-.001zm11.734-11.2H27.2l-.026-.001a.534.534 0 1 0 0 1.068l.027-.001H27.2h.534l.026.001a.534.534 0 1 0 0-1.068l-.027.001h.001zm-22.934 0h-.534a.533.533 0 0 0 0 1.066H4.8l.026.001a.534.534 0 1 0 0-1.068l-.027.001H4.8zm19.119-8.141-.378.378a.535.535 0 0 0 .756.754l.376-.378a.533.533 0 0 0-.754-.754zM7.703 23.478l-.376.378a.533.533 0 0 0 .754.754l.378-.378a.535.535 0 0 0-.756-.754zm16.594 0a.534.534 0 1 0-.756.756l.378.376a.531.531 0 0 0 .756 0 .53.53 0 0 0 0-.756l-.378-.376zM8.081 7.261a.534.534 0 1 0-.756.756l.378.376a.53.53 0 0 0 .756 0 .53.53 0 0 0 0-.756l-.378-.376z"/></symbol><symbol id="chat" viewBox="0 0 32 32"><path fill="#674d40" d="M24.621 14.939c0-6.705-6.161-11.099-12.311-11.099C6.135 3.84 0 8.256 0 14.939c0 2.529.965 5.002 2.719 6.963a.331.331 0 0 1 .066.3l.001-.002c-.55 2.314-1.855 4.403-2.39 5.197a.882.882 0 0 0-.069.854l-.002-.006c.12.271.357.438.621.438h.018c2.619-.074 5.654-.922 7.529-3.039a.244.244 0 0 1 .254-.077h-.002c1.152.312 2.353.472 3.566.472 6.173 0 12.311-4.415 12.311-11.1zM8.96 24.52a1.097 1.097 0 0 0-1.124.355l-.001.002c-1.876 2.116-4.94 2.598-6.39 2.705.663-1.05 1.74-2.976 2.245-5.1a1.514 1.514 0 0 0-.319-1.353l.002.002C1.779 19.349.937 17.208.937 14.938c0-5.527 5.102-10.022 11.373-10.022 6.272 0 11.373 4.495 11.373 10.022S18.582 24.962 12.31 24.962h-.016c-1.186 0-2.334-.162-3.423-.464l.09.021z"/><path fill="#674d40" d="M27.635 23.875C30.368 22.29 32 19.59 32 16.651c0-4.154-3.273-7.703-7.782-8.439-.256-.042-.494.163-.53.456-.037.294.141.567.397.609 4.045.659 6.979 3.761 6.979 7.374 0 2.525-1.44 4.867-3.85 6.264-.47.273-.721.873-.611 1.462.228 1.233.714 2.373 1.103 3.146-2.767-.529-3.817-2.052-4.148-2.711-.205-.408-.589-.66-1.001-.66h-.038c-.52 0-1.041-.041-1.546-.123-.256-.041-.494.164-.53.458s.142.566.399.607c.549.09 1.114.134 1.677.134h.038a.21.21 0 0 1 .188.122c1.27 2.524 4.188 3.168 5.385 3.328.264.035.515-.102.655-.362a.86.86 0 0 0-.006-.839l.002.004c-.361-.644-1.004-1.933-1.262-3.328a.267.267 0 0 1 .115-.278l.001-.001zM5.016 13.015c-.896 0-1.626.837-1.626 1.865s.73 1.864 1.626 1.864c.896 0 1.626-.836 1.626-1.864s-.73-1.865-1.626-1.865zm0 2.653c-.379 0-.687-.355-.687-.788 0-.435.307-.788.687-.788.379 0 .687.353.687.788s-.308.788-.687.788zm4.635-2.653c-.896 0-1.626.837-1.626 1.865s.73 1.864 1.626 1.864c.896 0 1.624-.836 1.624-1.864s-.73-1.865-1.626-1.865zm0 2.653c-.379 0-.687-.355-.687-.788 0-.435.307-.788.687-.788.378 0 .686.353.686.788s-.307.788-.686.788zm4.634-2.653c-.896 0-1.624.837-1.624 1.865s.73 1.864 1.626 1.864c.896 0 1.624-.836 1.624-1.864s-.73-1.865-1.626-1.865zm0 2.653c-.379 0-.686-.355-.686-.788 0-.435.307-.788.686-.788s.687.353.687.788c0 .435-.307.788-.687.788zm4.635-2.653c-.896 0-1.626.837-1.626 1.865s.73 1.864 1.626 1.864c.896 0 1.626-.836 1.626-1.864s-.73-1.865-1.626-1.865zm0 2.653c-.379 0-.687-.355-.687-.788 0-.435.308-.788.687-.788s.687.353.687.788c0 .435-.308.788-.687.788z"/></symbol></symbol></defs></svg>