<svg aria-hidden="true" style="position: absolute; width: 0; height: 0; overflow: hidden;" version="1.1" xmlns="http://www.w3.org/2000/svg" xmlns:xlink="http://www.w3.org/1999/xlink">
<defs>
<!-- social -->

<symbol id="facebook" viewBox="0 0 32 32">
<path d="M24.65 0.006l-4.15-0.006c-4.662 0-7.676 3.092-7.676 7.876v3.63h-4.172c0 0 0 0 0 0-0.36 0-0.652 0.292-0.652 0.652 0 0.001 0 0.001 0 0.002v-0 5.26c0 0.36 0.292 0.652 0.652 0.652h4.172v13.276c0 0.36 0.292 0.652 0.654 0.652h5.442c0.36 0 0.654-0.292 0.654-0.652v-13.276h4.878c0.36 0 0.652-0.292 0.652-0.652l0.002-5.26c0 0 0 0 0 0 0-0.361-0.292-0.653-0.652-0.654h-4.88v-3.078c0-1.48 0.352-2.23 2.28-2.23h2.794c0.36 0 0.652-0.294 0.652-0.654v-4.884c0-0.001 0-0.001 0-0.002 0-0.359-0.291-0.651-0.65-0.652h-0z"></path>
</symbol>
<symbol id="instagram" viewBox="0 0 32 32">
<path d="M16.316 32h-0.32c-0.137 0.001-0.299 0.001-0.461 0.001-2.329 0-4.64-0.072-6.933-0.212l0.314 0.015c-2.066-0.126-3.952-0.84-5.454-2.064-1.45-1.182-2.44-2.78-2.942-4.75-0.44-1.716-0.46-3.4-0.484-5.026-0.016-1.17-0.032-2.554-0.036-3.96 0.004-1.414 0.020-2.8 0.036-3.968 0.022-1.628 0.046-3.31 0.484-5.026 0.5-1.97 1.492-3.568 2.94-4.75 1.506-1.224 3.392-1.94 5.46-2.064 2.252-0.138 4.57-0.2 7.084-0.196 0.132-0.001 0.288-0.001 0.443-0.001 2.335 0 4.653 0.071 6.952 0.212l-0.316-0.015c2.066 0.124 3.952 0.84 5.454 2.064 1.45 1.182 2.44 2.78 2.944 4.75 0.436 1.716 0.46 3.4 0.48 5.026 0.018 1.17 0.034 2.554 0.038 3.96v0.006c-0.004 1.408-0.020 2.792-0.036 3.96-0.022 1.63-0.046 3.312-0.482 5.028-0.504 1.97-1.494 3.568-2.944 4.75-1.502 1.224-3.388 1.94-5.454 2.064-1.968 0.125-4.268 0.196-6.585 0.196-0.064 0-0.129-0-0.193-0h0.010zM15.996 29.5c0.143 0.001 0.312 0.001 0.48 0.001 2.271 0 4.526-0.069 6.763-0.206l-0.307 0.015c1.56-0.096 2.916-0.602 4.026-1.508 1.026-0.836 1.734-1.99 2.1-3.43 0.364-1.428 0.386-2.96 0.406-4.444 0.016-1.16 0.032-2.534 0.036-3.928-0.004-1.394-0.020-2.768-0.036-3.93-0.020-1.48-0.040-3.014-0.406-4.44-0.368-1.44-1.074-2.596-2.1-3.432-1.11-0.906-2.464-1.412-4.026-1.508-1.93-0.122-4.186-0.191-6.457-0.191-0.167 0-0.333 0-0.5 0.001l0.026-0c-0.144-0.001-0.314-0.001-0.485-0.001-2.269 0-4.522 0.069-6.756 0.206l0.307-0.015c-1.56 0.096-2.916 0.602-4.026 1.508-1.026 0.836-1.734 1.99-2.1 3.43-0.364 1.428-0.386 2.96-0.406 4.442-0.016 1.162-0.032 2.538-0.036 3.932 0.004 1.39 0.020 2.766 0.036 3.926 0.020 1.484 0.040 3.016 0.406 4.444 0.366 1.44 1.074 2.594 2.1 3.43 1.11 0.906 2.464 1.412 4.026 1.508 2.2 0.134 4.468 0.196 6.928 0.19zM15.936 23.812c-4.312-0.006-7.805-3.5-7.81-7.812v-0c0.005-4.313 3.501-7.809 7.814-7.812h0c4.312 0.006 7.805 3.5 7.81 7.812v0c-0.005 4.313-3.499 7.807-7.812 7.812h-0zM15.936 10.688c-2.931 0.006-5.305 2.381-5.31 5.312v0c0.005 2.933 2.381 5.309 5.314 5.312h0c2.931-0.006 5.305-2.381 5.31-5.312v-0c-0.005-2.932-2.38-5.307-5.312-5.312h-0zM24.626 5.688c-0.018-0.001-0.040-0.001-0.061-0.001-1.036 0-1.876 0.84-1.876 1.876s0.84 1.876 1.876 1.876c0.022 0 0.043-0 0.064-0.001l-0.003 0c1.009-0.034 1.815-0.86 1.815-1.875s-0.805-1.841-1.812-1.875l-0.003-0z"></path>
</symbol>
<symbol id="twitter" viewBox="0 0 32 32">
<path d="M32 7c-1.1 0.481-2.377 0.835-3.712 1.001l-0.068 0.007c1.353-0.786 2.373-2.016 2.873-3.487l0.013-0.045c-1.199 0.704-2.593 1.241-4.076 1.532l-0.084 0.014c-1.211-1.248-2.904-2.022-4.778-2.022-0.005 0-0.010 0-0.015 0h0.001c-3.632 0-6.556 2.872-6.556 6.394 0 0.506 0.044 0.994 0.152 1.458-5.438-0.251-10.239-2.785-13.499-6.658l-0.023-0.028c-0.562 0.922-0.895 2.037-0.898 3.229v0.001c0.012 2.219 1.159 4.168 2.89 5.297l0.024 0.015c-1.090-0.028-2.107-0.316-2.999-0.803l0.035 0.017v0.070c0 3.106 2.274 5.686 5.256 6.28-0.5 0.134-1.074 0.21-1.666 0.21-0.019 0-0.038-0-0.056-0l0.003 0c-0.42 0-0.844-0.022-1.242-0.108 0.907 2.578 3.299 4.402 6.124 4.452l0.006 0c-2.224 1.701-5.043 2.726-8.102 2.726-0.011 0-0.022 0-0.033-0h0.002c-0.538 0-1.054-0.022-1.57-0.088 2.835 1.801 6.288 2.87 9.991 2.87 0.026 0 0.051-0 0.077-0h-0.004c12.072 0 18.672-9.744 18.672-18.19 0-0.282-0.010-0.556-0.024-0.826 1.297-0.911 2.388-2.012 3.26-3.277l0.028-0.043z"></path>
</symbol>

<!-- logo -->

<symbol id="logo-desckop" viewBox="0 0 61 32">
<path d="M36.152 16.031c0 0.256-0.007 0.512 0 0.768 0.076 2.603-0.63 4.949-1.762 7.161-0.295 0.544-0.653 1.291-0.985 2.051l-0.085 0.219c-0.27 0.637-0.645 1.083-1.228 1.344-0.326 0.145-0.628 0.397-0.901 0.657-1.257 1.196-2.682 2.052-4.207 2.655-1.013 0.4-2.056 0.753-3.156 0.737-0.328-0.004-0.657 0.112-0.985 0.113s-0.657-0.121-0.983-0.105c-1.419 0.070-2.733-0.433-4.039-0.961-1.425-0.576-2.682-1.485-3.865-2.568-1.669-1.529-2.86-3.454-3.734-5.659-0.471-1.188-0.855-2.414-0.963-3.733-0.018-0.219-0.081-0.435-0.137-0.648-0.397-1.479-0.168-2.929 0.077-4.403 0.188-1.127 0.381-2.24 0.747-3.31 0.967-2.83 2.502-5.147 4.628-6.968 1.773-1.516 3.757-2.448 5.914-2.848 2.475-0.46 4.891-0.129 7.236 0.945 1.17 0.537 2.274 1.218 3.238 2.119 0.899 0.84 1.71 1.824 2.476 2.829 0.695 0.911 1.187 1.996 1.628 3.103 0.687 1.729 1.136 3.519 1.090 5.442-0.010 0.355-0.003 0.708-0.003 1.060zM35.201 12.527c-0.069-0.604-0.111-1.305-0.239-1.984-0.365-1.955-1.348-3.481-2.658-4.728-0.744-0.709-1.555-1.324-2.354-1.951-0.271-0.212-0.585-0.407-0.901-0.472-0.812-0.172-1.634-0.333-2.457-0.382-1.429-0.084-2.713-0.509-3.792-1.654-0.794-0.842-1.659-0.923-2.484-0.182-0.936 0.839-2.001 1.332-3.086 1.82-0.795 0.358-1.561 0.808-2.326 1.253-0.639 0.372-1.011 0.953-1.002 1.832 0.005 0.494-0.191 0.905-0.588 1.179-0.355 0.248-0.665 0.497-0.958 0.765l0.007-0.006c-0.846 0.767-1.505 1.63-1.647 2.971-0.113 1.060-0.391 2.108-1.022 2.981-0.206 0.295-0.342 0.653-0.376 1.040l-0.001 0.008c-0.058 0.793-0.034 1.595-0.017 2.392 0.005 0.213 0.085 0.442 0.18 0.63 0.258 0.524 0.494 0.947 0.749 1.357l-0.038-0.066c0.619 0.992 1.158 2.008 1.282 3.267 0.12 1.22 0.632 2.215 1.498 2.974 1.254 1.1 2.463 2.268 3.736 3.339 0.684 0.577 1.416 1.082 2.319 1.199s1.787 0.399 2.596 0.923c0.17 0.105 0.356 0.171 0.547 0.194 1.141 0.142 2.198-0.184 3.2-0.799 0.243-0.152 0.559-0.33 0.881-0.497l0.083-0.039c0.783-0.404 1.652-0.669 2.334-1.232 0.76-0.627 1.571-0.905 2.442-1.081 0.376-0.076 0.684-0.254 0.929-0.577 0.292-0.383 0.563-0.788 0.867-1.157 0.315-0.382 0.543-0.788 0.598-1.331 0.085-0.833 0.394-1.569 0.787-2.276 0.665-1.194 1.043-2.514 1.24-3.918 0.052-0.368 0.081-0.68-0.077-1.004-0.458-0.935-0.271-1.997-0.416-2.992-0.073-0.538 0.096-1.127 0.166-1.798l-0.002 0.001zM29.692 3.187c-0.193-0.246-0.254-0.357-0.342-0.426-0.158-0.126-0.33-0.229-0.498-0.338-1.437-0.932-3.010-1.385-4.618-1.711-0.323-0.066-0.662-0.036-0.992-0.022-0.086 0.004-0.188 0.099-0.242 0.186-0.025 0.039 0.031 0.177 0.079 0.243 0.358 0.491 0.824 0.861 1.35 1.072 0.833 0.357 1.799 0.578 2.814 0.611l0.013 0c0.409 0.013 0.816 0.102 1.223 0.166 0.347 0.057 0.694 0.125 1.216 0.219zM17.485 30.053c-0.964-0.908-1.81-1.719-2.67-2.509-0.712-0.654-1.44-1.285-2.168-1.915-0.082-0.071-0.211-0.069-0.39-0.122 0.877 1.696 3.806 4.273 5.227 4.546zM10.988 8.869c0.582-0.512 1.12-1.050 1.711-1.496 0.828-0.622 1.145-1.394 0.949-2.721-0.588 0.554-1.007 1.221-1.46 1.826-0.479 0.639-0.834 1.4-1.233 2.115-0.031 0.058 0.019 0.172 0.034 0.276zM30.602 28.224c-0.542-0.043-1.089 0.067-1.429 0.405-0.646 0.64-1.414 0.961-2.196 1.281-0.41 0.168-0.797 0.414-1.184 0.649-0.054 0.032-0.064 0.205-0.052 0.307 0.004 0.034 0.148 0.090 0.208 0.067 0.702-0.276 1.427-0.497 2.092-0.866 0.815-0.45 1.58-1.021 2.36-1.55 0.082-0.053 0.125-0.177 0.201-0.294zM9.875 19.352c-0.156 0.53-0.125 0.823-0.027 1.135 0.272 0.866 0.437 1.78 0.927 2.537 0.182 0.281 0.219 0.908 0.554 0.773 0.295-0.118-0.050-0.615-0.071-0.95-0.077-1.28-0.662-2.311-1.384-3.495zM15.138 3.415l0.073 0.126c0.405-0.174 0.815-0.337 1.216-0.522 1.927-0.857 2.784-1.268 3.636-1.687l-1.028 0.456c0.175-0.085 0.335-0.221 0.484-0.359 0.042-0.039 0.034-0.172 0.021-0.254-0.007-0.037-0.089-0.076-0.137-0.079-0.081 0.002-0.162 0.017-0.239 0.046-1.178 0.386-2.289 0.956-3.353 1.649-0.249 0.162-0.45 0.414-0.673 0.625zM35.828 17.16c0.071-0.095 0.127-0.135 0.131-0.18 0.114-1.395-0.014-2.776-0.18-4.155-0.008-0.069-0.091-0.168-0.148-0.177-0.062-0.010-0.16 0.050-0.198 0.115-0.060 0.099-0.101 0.216-0.112 0.342l-0 0.003c-0.015 0.25-0.023 0.543-0.023 0.837 0 0.904 0.079 1.789 0.23 2.649l-0.013-0.091c0.037 0.226 0.2 0.424 0.314 0.655zM9.591 13.312c0.46-0.202 0.528-0.568 0.578-0.898 0.12-0.805 0.42-1.58 0.321-2.431-0.481 1.016-0.907 2.045-0.899 3.328h-0zM20.718 30.985c-1.030-0.525-1.31-0.58-2.227-0.433 0.389 0.17 0.739 0.44 1.091 0.443 0.367 0.007 0.765 0.524 1.137-0.010h-0z"></path>
<path d="M22.843 20.542c-0.705-0.014-1.189-0.354-1.548-1.010-0.334-0.612-0.889-0.93-1.398-1.307-0.641-0.475-1.163-1.012-1.311-1.975-0.103-0.653 0.017-1.221 0.247-1.736 0.193-0.431 0.538-0.832 0.9-1.088 0.393-0.278 0.718-0.54 0.9-1.053 0.205-0.591 0.723-0.627 1.181-0.733 0.431-0.1 0.87-0.164 1.295-0.289 0.581-0.171 1.109-0.118 1.534 0.403 0.328 0.405 0.712 0.695 1.139 0.941 0.445 0.254 0.591 0.553 0.452 1.086-0.095 0.362-0.003 0.608 0.114 0.897 0.128 0.315 0.259 0.635 0.348 0.968 0.293 1.107-0.044 2.039-0.946 2.532-0.559 0.305-0.987 0.712-1.126 1.428-0.056 0.289-0.212 0.453-0.433 0.527-0.446 0.15-0.898 0.274-1.349 0.409zM25.802 15.901c0.014-1.95-1.269-3.51-2.938-3.512-1.498 0-3.004 1.167-3.063 3.404-0.047 1.79 1.248 3.458 2.936 3.464 2.055 0.012 3.025-1.632 3.065-3.357zM19.784 17.765c0-0.25 0.021-0.378-0.003-0.494-0.222-1.059-0.366-2.109 0.137-3.129 0.036-0.073-0.047-0.224-0.076-0.339-0.098 0.037-0.217 0.044-0.292 0.114-0.83 0.784-1.2 2.667 0.234 3.847zM22.865 11.9c0.347 0.146 0.546 0.25 0.753 0.315 0.765 0.233 1.417 0.652 1.871 1.424 0.089 0.152 0.205 0.378 0.376 0.204 0.091-0.093 0.121-0.375 0.068-0.516-0.071-0.188-0.231-0.422-0.386-0.459-0.42-0.101-0.65-0.452-0.924-0.757-0.46-0.509-0.975-0.669-1.758-0.211zM22.818 19.576l-0.010-0.073c-0.22 0-0.443-0.022-0.659 0.009-0.112 0.016-0.213 0.125-0.319 0.192 0.096 0.098 0.18 0.252 0.291 0.284 0.592 0.172 1.19 0.209 1.774-0.054 0.1-0.045 0.211-0.104 0.274-0.197 0.056-0.079 0.073-0.219 0.062-0.325-0.004-0.039-0.143-0.099-0.211-0.086-0.401 0.072-0.801 0.164-1.2 0.249l-0.002 0.001zM25.848 17.576c0.41-0.088 0.594-0.355 0.618-0.764 0.018-0.345 0.013-0.692-0.013-1.037-0.007-0.091-0.117-0.172-0.179-0.258-0.091 0.1-0.277 0.234-0.26 0.293 0.167 0.598-0.182 1.133-0.166 1.764v0.001zM29.603 20.276c-0.024 0.014-0.119 0.106-0.222 0.118-0.094 0.012-0.231-0.024-0.289-0.099-0.263-0.334-0.538-0.717-0.797-1.112l-0.039-0.064c-0.068-0.107-0.096-0.394-0.057-0.419 0.128-0.082 0.379-0.167 0.435-0.096 0.33 0.419 0.621 0.881 0.919 1.332 0.029 0.046 0.020 0.123 0.050 0.34zM15.628 23.56c0.153 0.014 0.454 0.025 0.748 0.083 0.073 0.014 0.171 0.179 0.171 0.278s-0.085 0.269-0.158 0.29c-0.571 0.163-1.14 0.204-1.645-0.236-0.028-0.031-0.050-0.067-0.064-0.108l-0.001-0.002c-0.011-0.031-0.017-0.067-0.017-0.104 0-0.010 0-0.019 0.001-0.029l-0 0.001c0.011-0.066 0.099-0.157 0.159-0.162 0.219-0.021 0.439-0.010 0.806-0.010zM33.53 9.716l0.216 0.136c-0.061 0.126-0.099 0.33-0.188 0.366-0.352 0.155-0.773 0.297-1.208 0.403l-0.055 0.011c-0.123 0.028-0.303-0.112-0.416-0.227-0.131-0.133-0.053-0.423 0.113-0.452 0.487-0.086 0.977-0.152 1.538-0.238zM18.988 26.379c0.229 0.123 0.42 0.157 0.514 0.288 0.256 0.365 0.49 0.75 0.7 1.152 0.103 0.192 0.009 0.399-0.164 0.454-0.095 0.030-0.266-0.059-0.336-0.158-0.252-0.344-0.508-0.741-0.741-1.152l-0.033-0.062c-0.055-0.1 0.030-0.302 0.061-0.522zM27.954 11.144c0.014-0.112 0-0.24 0.046-0.289 0.062-0.064 0.194-0.118 0.257-0.083 0.087 0.048 0.143 0.178 0.202 0.281 0.166 0.285 0.329 0.573 0.487 0.866 0.071 0.131 0.165 0.271 0.171 0.412 0.007 0.131-0.062 0.3-0.148 0.39-0.048 0.050-0.244 0.018-0.292-0.052-0.316-0.463-0.695-0.896-0.723-1.526zM28.938 6.23c-0.068 0.472-0.096 0.82-0.175 1.153-0.049 0.181-0.145 0.336-0.273 0.456l-0.001 0c-0.091 0.084-0.249 0.072-0.376 0.103-0.010-0.138-0.047-0.281-0.026-0.411 0.067-0.402 0.156-0.8 0.236-1.199 0.006-0.031 0.004-0.064 0.012-0.095 0.063-0.241 0.199-0.424 0.417-0.325 0.11 0.050 0.161 0.271 0.186 0.317zM23.040 9.302c0.192 0.028 0.441 0.042 0.679 0.109 0.081 0.023 0.2 0.191 0.187 0.263-0.025 0.13-0.118 0.3-0.217 0.338-0.073 0.027-0.157 0.043-0.245 0.043-0.085 0-0.166-0.015-0.241-0.042l0.005 0.002c-0.274-0.1-0.528-0.134-0.802-0.002-0.179 0.086-0.347-0.005-0.395-0.21-0.064-0.275 0.116-0.409 0.318-0.448 0.216-0.041 0.438-0.035 0.712-0.053zM27.306 22.874c-0.078 0.391-0.137 0.734-0.221 1.069-0.016 0.066-0.137 0.154-0.187 0.139-0.091-0.025-0.219-0.108-0.238-0.194-0.022-0.096-0.035-0.205-0.035-0.318 0-0.088 0.008-0.174 0.022-0.258l-0.001 0.009c0.064-0.343 0.127-0.669 0.007-1.020-0.058-0.168-0.041-0.436 0.18-0.436 0.12 0 0.291 0.17 0.345 0.311 0.088 0.225 0.093 0.49 0.127 0.697zM23.94 22.774c-0.044 0.092-0.066 0.2-0.125 0.247-0.36 0.285-0.721 0.573-1.1 0.822-0.097 0.064-0.267 0.025-0.391-0.018-0.181-0.062-0.219-0.335-0.068-0.446 0.414-0.306 0.832-0.61 1.259-0.891 0.068-0.046 0.205 0.003 0.293 0.054 0.060 0.035 0.086 0.146 0.131 0.232zM19.351 4.409c0.059 0.040 0.169 0.074 0.184 0.136 0.143 0.606 0.281 1.215 0.394 1.829 0.032 0.17-0.165 0.265-0.296 0.163-0.414-0.32-0.671-1.507-0.43-2.004 0.025-0.049 0.086-0.074 0.148-0.125zM24.462 6.133c-0.125-0.096-0.259-0.145-0.277-0.227-0.019-0.089 0.045-0.243 0.115-0.315 0.303-0.312 0.621-0.606 0.951-0.881 0.111-0.090 0.342-0.154 0.428-0.083 0.202 0.163 0.096 0.394-0.045 0.562-0.189 0.227-0.376 0.466-0.594 0.65-0.167 0.138-0.381 0.198-0.578 0.294zM16.598 9.338l-0.302 0.329c-0.086-0.108-0.214-0.197-0.251-0.325-0.1-0.32-0.232-0.833-0.349-1.351l-0.033-0.176c-0.016-0.070 0.034-0.214 0.086-0.239 0.084-0.039 0.222-0.055 0.285 0 0.125 0.107 0.269 0.249 0.31 0.41 0.108 0.417 0.165 0.854 0.254 1.351zM13.287 17.758c-0.278 0.586-0.488 1.185-1.005 1.504-0.087 0.054-0.279-0.015-0.372-0.1-0.158-0.145 0-0.264 0.077-0.388 0.242-0.384 0.466-0.785 0.724-1.155 0.066-0.095 0.235-0.142 0.349-0.129 0.078 0.008 0.142 0.161 0.226 0.267zM16.421 17.808c0.145 0.096 0.25 0.125 0.269 0.188 0.032 0.104 0.049 0.268 0 0.339-0.079 0.115-0.215 0.181-0.332 0.258-0.303 0.2-0.603 0.412-0.918 0.583-0.096 0.052-0.27 0.036-0.355-0.034-0.176-0.145-0.114-0.376 0.027-0.478 0.433-0.312 0.889-0.585 1.31-0.857zM32.104 15.157c-0.111 0.289-0.268 0.726-0.454 1.145-0.029 0.065-0.209 0.1-0.285 0.062-0.071-0.037-0.148-0.201-0.134-0.29 0.075-0.466 0.157-0.935 0.283-1.385 0.039-0.137 0.211-0.262 0.344-0.308 0.049-0.017 0.179 0.197 0.239 0.328 0.035 0.074 0.006 0.187 0.006 0.448zM13.2 11.678c0.491 0.507 0.433 1.196 0.487 1.831 0.010 0.118-0.117 0.287-0.219 0.373-0.053 0.045-0.27-0.027-0.275-0.069-0.077-0.642-0.137-1.288-0.184-1.934-0.004-0.055 0.112-0.122 0.192-0.201zM24.671 27.379c0.082 0.025 0.163 0.056 0.243 0.091 0.295 0.157 0.591 0.31 0.879 0.484 0.136 0.082 0.274 0.184 0.372 0.315 0.113 0.152-0.016 0.443-0.175 0.403-0.535-0.133-1.058-0.319-1.458-0.78-0.059-0.068-0.058-0.238-0.039-0.352 0.011-0.064 0.114-0.108 0.177-0.162zM18.16 11.864c0.028 0.102 0.125 0.26 0.091 0.359-0.18 0.525-0.388 1.039-0.6 1.549-0.026 0.062-0.137 0.118-0.202 0.108-0.058-0.008-0.137-0.101-0.152-0.172-0.112-0.568 0.242-1.585 0.636-1.841 0.040-0.027 0.106-0.004 0.226-0.004zM33.458 20.489c-0.062-0.045-0.19-0.1-0.256-0.206-0.027-0.042 0.059-0.234 0.134-0.296 0.3-0.256 0.631-0.511 0.974-0.748l0.041-0.027c0.094-0.063 0.291-0.068 0.36 0.003 0.064 0.066 0.074 0.315 0.016 0.406-0.293 0.471-0.664 0.83-1.268 0.866zM31.426 24.543c-0.254-0.030-0.364-0.034-0.47-0.061-0.045-0.012-0.112-0.072-0.112-0.112-0-0.008-0.001-0.017-0.001-0.027 0-0.083 0.022-0.162 0.060-0.23l-0.001 0.002c0.054-0.071 0.126-0.123 0.205-0.148 0.391-0.135 0.783-0.271 1.18-0.381 0.086-0.024 0.268 0.042 0.279 0.098 0.026 0.135-0.005 0.297-0.051 0.433-0.024 0.072-0.121 0.131-0.195 0.158-0.34 0.107-0.682 0.204-0.894 0.266zM19.642 21.289c-0.028 0.137-0.074 0.441-0.162 0.729-0.022 0.071-0.193 0.14-0.271 0.114s-0.171-0.175-0.168-0.269c0.007-0.573 0.035-1.127 0.084-1.675l-0.006 0.083c0.010-0.116 0.137-0.217 0.21-0.325 0.088 0.106 0.229 0.2 0.252 0.323 0.049 0.274 0.039 0.562 0.062 1.019zM37.981 4.672c0-1.125 0.236-1.978 0.709-2.559 0.478-0.588 1.091-0.881 1.837-0.881s1.34 0.253 1.78 0.76c0.446 0.507 0.669 1.317 0.669 2.429s-0.236 1.954-0.709 2.522c-0.473 0.569-1.104 0.853-1.893 0.853-0.682 0-1.241-0.226-1.676-0.677-0.226-0.235-0.403-0.559-0.532-0.973-0.123-0.42-0.185-0.912-0.185-1.474zM40.503 1.324c-0.542 0-0.988 0.278-1.337 0.835-0.344 0.556-0.515 1.373-0.515 2.448s0.164 1.861 0.492 2.355c0.327 0.494 0.763 0.742 1.305 0.742 0.548 0 0.994-0.278 1.337-0.835 0.349-0.563 0.524-1.375 0.524-2.439 0-1.069-0.166-1.854-0.499-2.355-0.328-0.5-0.763-0.751-1.305-0.751zM44.37 7.759h-0.669v-6.491h0.669v2.986h2.619v-2.985h0.669v6.491h-0.669v-3.412h-2.619v3.412zM51.095 7.759h-0.105l0.701-6.491h0.266l1.692 5.999 1.684-5.999h0.266l0.701 6.491h-0.669l-0.556-5.192-1.458 5.192h-0.508l-1.474-5.128-0.54 5.128zM60.763 1.269c0.102 0.118 0.153 0.269 0.153 0.454 0 0.155-0.030 0.312-0.089 0.473l-1.442 3.366v2.198h-0.669v-1.993l-1.612-4.497h0.685l1.539 4.182 1.402-3.254c0.059-0.154 0.089-0.315 0.089-0.482s-0.040-0.297-0.121-0.389l0.064-0.056zM1.136 9.465c0.364-0.021 0.79-0.033 1.22-0.033h0.001c0.407 0 0.833 0.049 1.278 0.147 0.455 0.098 0.899 0.283 1.335 0.555 0.449 0.266 0.823 0.611 1.114 1.018l0.007 0.011c0.312 0.414 0.563 0.964 0.752 1.651s0.284 1.519 0.284 2.5-0.142 1.863-0.426 2.647c-0.274 0.773-0.653 1.367-1.136 1.781-0.937 0.806-2.068 1.209-3.394 1.209-0.464 0-0.951-0.022-1.462-0.066h-0.71v-11.421h1.136zM1.178 20.755c0.199 0.022 0.45 0.033 0.753 0.033s0.53-0.005 0.682-0.017c0.152-0.011 0.36-0.054 0.625-0.131 0.282-0.093 0.526-0.209 0.752-0.351l-0.014 0.008c0.227-0.142 0.464-0.349 0.71-0.621 0.256-0.287 0.475-0.615 0.643-0.972l0.011-0.025c0.407-0.893 0.61-2.059 0.61-3.497 0-1.024-0.109-1.906-0.327-2.647-0.218-0.752-0.468-1.307-0.753-1.667-0.269-0.352-0.605-0.638-0.991-0.842l-0.016-0.008c-0.397-0.218-0.715-0.343-0.952-0.376-0.232-0.031-0.5-0.049-0.773-0.049-0.018 0-0.036 0-0.054 0l0.003-0c-0.312 0-0.615 0.017-0.908 0.049v11.111zM38.211 20.886h-0.185v-11.438h0.483l5.907 10.572v-10.572h0.185v11.438h-1.036l-5.353-9.477v9.477zM53.343 9.448h0.185v6.536c0 1.71-0.293 2.968-0.88 3.774-0.587 0.795-1.354 1.192-2.3 1.192-0.596 0-1.103-0.060-1.519-0.18-0.417-0.131-0.809-0.365-1.179-0.702-0.757-0.675-1.136-2.037-1.136-4.085v-6.536h1.179v6.52c0 1.982 0.26 3.306 0.781 3.97 0.265 0.327 0.539 0.55 0.824 0.67 0.293 0.12 0.643 0.18 1.051 0.18 0.909 0 1.633-0.382 2.172-1.144 0.549-0.773 0.824-1.999 0.824-3.676v-6.52zM58.371 20.886h-1.179v-11.274h-2.456v-0.163h6.105v0.163h-2.471v11.274z"></path>
</symbol>
<symbol id="logo-tablet" viewBox="0 0 63 32">
<path d="M37.207 15.991c0 0.255-0.007 0.509 0 0.764 0.078 2.588-0.648 4.92-1.814 7.119-0.307 0.55-0.675 1.291-1.016 2.048l-0.085 0.21c-0.278 0.633-0.663 1.078-1.264 1.337-0.336 0.144-0.647 0.394-0.927 0.653-1.293 1.189-2.761 2.040-4.33 2.64-1.043 0.398-2.116 0.748-3.249 0.733-0.338-0.005-0.676 0.111-1.014 0.112s-0.677-0.121-1.012-0.105c-1.46 0.070-2.813-0.431-4.156-0.955-1.466-0.572-2.761-1.476-3.978-2.554-1.719-1.52-2.943-3.434-3.843-5.626-0.485-1.181-0.88-2.401-0.992-3.711-0.018-0.217-0.083-0.433-0.14-0.644-0.409-1.471-0.174-2.913 0.079-4.378 0.193-1.121 0.392-2.227 0.769-3.291 0.995-2.814 2.575-5.118 4.763-6.928 1.825-1.507 3.866-2.434 6.087-2.832 2.547-0.457 5.034-0.128 7.447 0.939 1.204 0.534 2.34 1.211 3.332 2.107 0.926 0.836 1.761 1.814 2.55 2.813 0.714 0.906 1.221 1.985 1.675 3.085 0.707 1.72 1.169 3.5 1.122 5.412-0.010 0.353-0.003 0.703-0.003 1.053zM36.229 12.507c-0.071-0.601-0.114-1.298-0.246-1.973-0.376-1.944-1.388-3.462-2.736-4.701-0.765-0.705-1.6-1.317-2.422-1.94-0.278-0.211-0.602-0.405-0.927-0.47-0.836-0.171-1.682-0.332-2.529-0.379-1.471-0.084-2.792-0.506-3.903-1.644-0.817-0.837-1.707-0.918-2.557-0.181-0.963 0.835-2.059 1.324-3.176 1.809-0.819 0.356-1.607 0.803-2.394 1.246-0.658 0.37-1.041 0.948-1.032 1.822 0.005 0.49-0.197 0.901-0.605 1.172-0.34 0.228-0.667 0.479-0.98 0.754-0.87 0.762-1.548 1.621-1.695 2.954-0.116 1.054-0.402 2.096-1.051 2.965-0.211 0.292-0.351 0.648-0.387 1.034l-0.001 0.008c-0.059 0.788-0.035 1.585-0.018 2.378 0.005 0.212 0.088 0.439 0.185 0.627 0.224 0.441 0.468 0.869 0.731 1.283 0.637 0.986 1.191 1.996 1.319 3.249 0.124 1.213 0.651 2.202 1.542 2.956 1.291 1.094 2.535 2.255 3.845 3.32 0.704 0.573 1.458 1.076 2.386 1.192s1.839 0.398 2.672 0.918c0.174 0.105 0.366 0.17 0.563 0.192 1.175 0.141 2.262-0.183 3.294-0.794 0.323-0.192 0.656-0.366 0.991-0.533 0.807-0.402 1.7-0.666 2.403-1.225 0.781-0.624 1.616-0.9 2.513-1.074 0.387-0.076 0.705-0.253 0.957-0.574 0.3-0.38 0.579-0.782 0.893-1.15 0.325-0.379 0.558-0.783 0.615-1.324 0.087-0.829 0.406-1.56 0.81-2.263 0.684-1.188 1.074-2.501 1.276-3.895 0.053-0.366 0.083-0.676-0.080-0.998-0.471-0.93-0.279-1.985-0.428-2.975-0.076-0.536 0.098-1.121 0.171-1.787l-0.002 0.001zM30.559 3.22c-0.199-0.244-0.262-0.355-0.353-0.424-0.162-0.125-0.34-0.227-0.513-0.336-1.479-0.927-3.098-1.378-4.752-1.701-0.333-0.065-0.682-0.036-1.021-0.022-0.088 0.003-0.193 0.099-0.249 0.185-0.026 0.039 0.033 0.176 0.081 0.242 0.353 0.472 0.823 0.838 1.368 1.058l0.021 0.008c0.934 0.374 1.916 0.579 2.909 0.607 0.421 0.013 0.84 0.102 1.258 0.165 0.357 0.056 0.714 0.124 1.251 0.217zM17.996 29.932c-0.993-0.903-1.863-1.709-2.747-2.495-0.606-0.536-1.332-1.159-2.067-1.771l-0.164-0.133c-0.084-0.071-0.217-0.069-0.401-0.121 0.903 1.686 3.917 4.248 5.38 4.52zM11.309 8.869c0.599-0.509 1.153-1.045 1.761-1.488 0.852-0.618 1.178-1.386 0.977-2.705-0.605 0.55-1.036 1.213-1.503 1.816-0.493 0.635-0.858 1.392-1.27 2.103-0.031 0.058 0.020 0.171 0.035 0.274zM31.495 28.114c-0.559-0.042-1.121 0.067-1.471 0.403-0.665 0.636-1.455 0.955-2.26 1.273-0.423 0.167-0.821 0.412-1.219 0.646-0.055 0.032-0.065 0.204-0.054 0.305 0.004 0.035 0.153 0.090 0.214 0.067 0.722-0.274 1.469-0.495 2.153-0.861 0.839-0.447 1.626-1.015 2.429-1.541 0.084-0.052 0.128-0.176 0.206-0.292zM10.163 19.293c-0.161 0.526-0.129 0.818-0.028 1.128 0.28 0.861 0.451 1.77 0.955 2.522 0.187 0.279 0.225 0.903 0.57 0.769 0.304-0.118-0.052-0.611-0.072-0.944-0.080-1.273-0.681-2.299-1.425-3.475zM15.579 3.446l0.075 0.126c0.417-0.172 0.838-0.335 1.251-0.52 2.034-0.871 2.916-1.281 3.795-1.698l-1.111 0.474c0.18-0.085 0.345-0.22 0.498-0.357 0.042-0.039 0.035-0.17 0.022-0.252-0.007-0.036-0.091-0.076-0.14-0.078-0.089 0.002-0.174 0.019-0.252 0.047l0.006-0.002c-1.213 0.383-2.356 0.95-3.45 1.639-0.256 0.161-0.464 0.411-0.693 0.62zM36.873 17.113c0.073-0.095 0.131-0.134 0.135-0.178 0.118-1.386-0.013-2.761-0.184-4.131-0.008-0.069-0.095-0.167-0.153-0.176-0.065-0.009-0.165 0.050-0.204 0.114-0.065 0.102-0.105 0.22-0.116 0.344-0.065 1.13 0.003 2.265 0.199 3.376 0.039 0.224 0.206 0.421 0.323 0.651zM9.87 13.287c0.473-0.2 0.544-0.564 0.595-0.892 0.124-0.801 0.433-1.571 0.33-2.418-0.494 1.010-0.933 2.034-0.925 3.31zM21.322 30.859c-1.061-0.522-1.348-0.577-2.292-0.43 0.4 0.169 0.76 0.437 1.123 0.441 0.377 0.007 0.787 0.52 1.17-0.011z"></path>
<path d="M23.51 20.476c-0.725-0.014-1.224-0.353-1.593-1.005-0.343-0.609-0.915-0.925-1.439-1.3-0.66-0.472-1.197-1.006-1.349-1.963-0.106-0.65 0.017-1.213 0.254-1.726 0.217-0.442 0.532-0.806 0.918-1.076l0.009-0.006c0.404-0.276 0.739-0.537 0.926-1.047 0.211-0.588 0.743-0.623 1.215-0.729 0.444-0.099 0.895-0.163 1.333-0.287 0.599-0.17 1.142-0.118 1.579 0.401 0.338 0.402 0.733 0.691 1.173 0.935 0.457 0.253 0.609 0.55 0.465 1.080-0.097 0.359-0.003 0.604 0.118 0.891 0.132 0.313 0.268 0.631 0.358 0.963 0.301 1.1-0.046 2.027-0.974 2.517-0.575 0.304-1.015 0.709-1.159 1.42-0.057 0.287-0.218 0.451-0.445 0.524-0.459 0.15-0.925 0.273-1.388 0.407zM26.555 15.862c0.015-1.94-1.306-3.49-3.024-3.492-1.541 0-3.092 1.161-3.152 3.385-0.048 1.78 1.285 3.438 3.022 3.444 2.115 0.012 3.113-1.623 3.154-3.337zM20.362 17.715c0-0.248 0.022-0.375-0.003-0.49-0.228-1.054-0.375-2.096 0.141-3.112 0.037-0.072-0.049-0.223-0.078-0.337-0.101 0.037-0.224 0.044-0.3 0.114-0.854 0.78-1.234 2.652 0.24 3.825zM23.532 11.883c0.357 0.146 0.562 0.248 0.775 0.313 0.787 0.231 1.458 0.648 1.926 1.416 0.091 0.151 0.211 0.376 0.387 0.203 0.093-0.091 0.124-0.372 0.070-0.513-0.073-0.187-0.238-0.42-0.397-0.457-0.432-0.101-0.669-0.449-0.951-0.753-0.473-0.505-1.003-0.665-1.809-0.21zM23.484 19.516l-0.010-0.074c-0.227 0-0.456-0.022-0.679 0.009-0.115 0.016-0.219 0.124-0.328 0.191 0.099 0.098 0.185 0.251 0.3 0.283 0.609 0.171 1.224 0.208 1.825-0.054 0.103-0.045 0.217-0.104 0.282-0.196 0.057-0.078 0.075-0.217 0.064-0.322-0.005-0.039-0.147-0.098-0.217-0.086-0.413 0.072-0.824 0.163-1.234 0.248l-0.002 0.001zM26.602 17.527c0.423-0.087 0.611-0.353 0.636-0.759 0.007-0.125 0.011-0.27 0.011-0.417 0-0.216-0.009-0.43-0.026-0.642l0.002 0.028c-0.007-0.090-0.121-0.17-0.185-0.256-0.094 0.099-0.285 0.232-0.268 0.291 0.172 0.594-0.187 1.127-0.17 1.754v0.001zM30.467 20.212c-0.024 0.013-0.122 0.105-0.229 0.117-0.096 0.013-0.237-0.023-0.296-0.099-0.3-0.377-0.592-0.764-0.861-1.17-0.071-0.106-0.099-0.392-0.059-0.416 0.131-0.081 0.39-0.166 0.447-0.095 0.34 0.417 0.638 0.875 0.946 1.324 0.029 0.045 0.020 0.122 0.052 0.338zM16.084 23.477c0.157 0.014 0.467 0.024 0.769 0.082 0.076 0.015 0.176 0.179 0.176 0.277s-0.087 0.266-0.163 0.287c-0.588 0.163-1.173 0.202-1.693-0.235-0.029-0.030-0.051-0.067-0.065-0.108l-0.001-0.002c-0.011-0.031-0.017-0.067-0.017-0.104 0-0.009 0-0.018 0.001-0.027l-0 0.001c0.011-0.065 0.103-0.157 0.163-0.161 0.226-0.021 0.453-0.009 0.829-0.009zM34.508 9.711l0.222 0.136c-0.063 0.126-0.101 0.328-0.193 0.364-0.423 0.173-0.857 0.311-1.3 0.412-0.127 0.028-0.312-0.111-0.428-0.225-0.135-0.133-0.055-0.421 0.116-0.451 0.501-0.085 1.006-0.151 1.584-0.236zM19.543 26.279c0.235 0.122 0.432 0.157 0.528 0.287 0.263 0.363 0.504 0.746 0.721 1.145 0.028 0.045 0.045 0.1 0.045 0.159 0 0.136-0.089 0.251-0.211 0.291l-0.002 0.001c-0.098 0.031-0.274-0.058-0.346-0.156-0.261-0.346-0.524-0.74-0.765-1.15l-0.032-0.059c-0.056-0.099 0.031-0.3 0.063-0.519zM28.77 11.132c0.015-0.111 0-0.238 0.047-0.287 0.063-0.064 0.199-0.118 0.265-0.082 0.089 0.047 0.147 0.177 0.208 0.28 0.17 0.284 0.339 0.569 0.501 0.861 0.073 0.131 0.17 0.27 0.176 0.41-0.001 0.15-0.059 0.286-0.153 0.388l0-0c-0.049 0.050-0.251 0.018-0.3-0.052-0.325-0.46-0.715-0.89-0.744-1.516zM29.782 6.245c-0.071 0.47-0.098 0.816-0.18 1.147-0.052 0.181-0.15 0.335-0.281 0.453l-0.001 0.001c-0.093 0.084-0.256 0.072-0.387 0.102-0.010-0.137-0.049-0.279-0.026-0.409 0.069-0.4 0.16-0.795 0.242-1.192 0.007-0.031 0.005-0.064 0.013-0.094 0.065-0.24 0.205-0.422 0.429-0.323 0.113 0.050 0.166 0.27 0.191 0.315zM23.713 9.3c0.197 0.027 0.453 0.042 0.697 0.108 0.084 0.022 0.207 0.189 0.192 0.261-0.025 0.129-0.121 0.299-0.223 0.337-0.075 0.027-0.162 0.043-0.252 0.043-0.087 0-0.171-0.015-0.249-0.042l0.005 0.002c-0.281-0.099-0.544-0.133-0.825-0.002-0.184 0.086-0.358-0.005-0.407-0.209-0.066-0.274 0.119-0.406 0.327-0.445 0.222-0.041 0.451-0.035 0.733-0.052zM28.103 22.795c-0.080 0.389-0.14 0.729-0.227 1.063-0.017 0.065-0.141 0.153-0.193 0.139-0.093-0.026-0.225-0.108-0.244-0.193-0.022-0.095-0.035-0.204-0.035-0.316 0-0.087 0.008-0.173 0.023-0.256l-0.001 0.009c0.065-0.342 0.131-0.666 0.007-1.014-0.059-0.167-0.042-0.434 0.186-0.433 0.123 0 0.3 0.169 0.355 0.309 0.090 0.223 0.096 0.487 0.131 0.693zM24.639 22.695c-0.046 0.091-0.069 0.199-0.129 0.245-0.37 0.285-0.742 0.569-1.132 0.818-0.1 0.063-0.274 0.024-0.402-0.018-0.187-0.061-0.225-0.334-0.071-0.444 0.328-0.242 0.75-0.534 1.18-0.815l0.116-0.071c0.070-0.046 0.211 0.003 0.302 0.054 0.062 0.035 0.088 0.146 0.135 0.231zM19.916 4.436c0.060 0.039 0.174 0.074 0.189 0.135 0.147 0.603 0.289 1.208 0.406 1.819 0.033 0.17-0.17 0.264-0.305 0.162-0.426-0.319-0.69-1.499-0.442-1.992 0.025-0.049 0.088-0.074 0.152-0.125zM25.175 6.149c-0.128-0.095-0.266-0.144-0.285-0.225-0.020-0.089 0.046-0.242 0.118-0.313 0.312-0.31 0.639-0.603 0.979-0.875 0.114-0.089 0.352-0.153 0.44-0.083 0.208 0.162 0.098 0.392-0.046 0.559-0.194 0.226-0.387 0.464-0.611 0.647-0.172 0.137-0.392 0.196-0.594 0.291zM17.082 9.336l-0.311 0.327c-0.089-0.106-0.22-0.196-0.257-0.323-0.104-0.322-0.24-0.831-0.359-1.346l-0.034-0.172c-0.016-0.071 0.035-0.214 0.088-0.238 0.086-0.039 0.229-0.055 0.294 0 0.129 0.106 0.276 0.248 0.319 0.407 0.111 0.415 0.17 0.849 0.261 1.344zM13.675 17.708c-0.286 0.581-0.503 1.178-1.034 1.495-0.089 0.053-0.287-0.015-0.383-0.1-0.163-0.144 0-0.263 0.078-0.385 0.25-0.382 0.481-0.781 0.746-1.148 0.069-0.095 0.242-0.141 0.36-0.128 0.080 0.008 0.146 0.16 0.233 0.266zM16.9 17.757c0.149 0.096 0.257 0.124 0.277 0.187 0.033 0.103 0.051 0.266 0 0.338-0.082 0.114-0.221 0.18-0.342 0.257-0.312 0.199-0.62 0.409-0.945 0.579-0.045 0.019-0.097 0.030-0.151 0.030-0.080 0-0.154-0.024-0.216-0.065l0.001 0.001c-0.182-0.144-0.118-0.374 0.028-0.475 0.445-0.31 0.914-0.582 1.347-0.852zM33.042 15.122c-0.115 0.287-0.276 0.722-0.468 1.139-0.029 0.065-0.214 0.1-0.293 0.061-0.072-0.037-0.152-0.2-0.137-0.289 0.076-0.464 0.161-0.929 0.291-1.377 0.039-0.137 0.217-0.261 0.355-0.307 0.050-0.016 0.183 0.196 0.246 0.327 0.036 0.072 0.007 0.185 0.007 0.445zM13.585 11.663c0.505 0.504 0.445 1.189 0.502 1.821 0.010 0.118-0.121 0.285-0.226 0.37-0.055 0.044-0.278-0.027-0.283-0.068-0.063-0.458-0.13-1.12-0.181-1.786l-0.008-0.137c-0.004-0.055 0.114-0.121 0.197-0.2zM25.391 27.274c0.085 0.025 0.168 0.055 0.249 0.091 0.304 0.157 0.609 0.309 0.905 0.481 0.14 0.082 0.281 0.183 0.383 0.313 0.117 0.15-0.016 0.44-0.18 0.4-0.551-0.133-1.089-0.317-1.5-0.775-0.061-0.067-0.059-0.237-0.040-0.349 0.012-0.063 0.118-0.107 0.183-0.161zM18.691 11.847c0.029 0.101 0.129 0.259 0.093 0.357-0.185 0.522-0.398 1.033-0.616 1.54-0.027 0.063-0.141 0.118-0.209 0.108-0.059-0.008-0.14-0.101-0.156-0.171-0.115-0.565 0.249-1.576 0.655-1.831 0.042-0.026 0.108-0.003 0.233-0.003zM34.435 20.423c-0.063-0.045-0.195-0.099-0.264-0.204-0.027-0.042 0.061-0.233 0.137-0.294 0.34-0.274 0.685-0.535 1.046-0.771 0.097-0.063 0.299-0.067 0.371 0.004 0.065 0.065 0.075 0.313 0.016 0.404-0.302 0.468-0.682 0.825-1.305 0.861zM32.343 24.454c-0.261-0.030-0.375-0.033-0.483-0.060-0.046-0.011-0.115-0.072-0.116-0.111-0.001-0.008-0.001-0.018-0.001-0.028 0-0.083 0.022-0.16 0.061-0.227l-0.001 0.002c0.053-0.068 0.125-0.119 0.209-0.145l0.003-0.001c0.403-0.135 0.806-0.27 1.215-0.379 0.089-0.023 0.276 0.041 0.287 0.098 0.026 0.133-0.005 0.295-0.052 0.43-0.025 0.071-0.125 0.131-0.201 0.157-0.35 0.106-0.701 0.202-0.92 0.265zM20.215 21.219c-0.029 0.137-0.076 0.439-0.167 0.725-0.022 0.071-0.199 0.139-0.279 0.113s-0.176-0.174-0.173-0.267c0.008-0.528 0.032-1.057 0.080-1.582 0.010-0.115 0.141-0.215 0.216-0.323 0.091 0.106 0.236 0.199 0.259 0.321 0.051 0.272 0.041 0.558 0.064 1.013zM39.090 4.696c0-1.119 0.244-1.967 0.73-2.544 0.492-0.584 1.122-0.876 1.891-0.876s1.379 0.251 1.833 0.756c0.458 0.504 0.688 1.309 0.688 2.416s-0.244 1.942-0.73 2.508c-0.487 0.565-1.136 0.848-1.949 0.848-0.702 0-1.277-0.224-1.724-0.673-0.233-0.234-0.415-0.556-0.548-0.968-0.127-0.418-0.191-0.907-0.191-1.466zM41.685 1.368c-0.558 0-1.017 0.276-1.376 0.829-0.354 0.553-0.531 1.365-0.531 2.434s0.169 1.85 0.506 2.342c0.337 0.492 0.785 0.738 1.343 0.738 0.564 0 1.023-0.277 1.376-0.83 0.359-0.56 0.539-1.367 0.539-2.425 0-1.063-0.172-1.844-0.514-2.342-0.338-0.498-0.786-0.746-1.344-0.746zM45.665 7.766h-0.689v-6.454h0.688v2.969h2.695v-2.969h0.688v6.454h-0.688v-3.393h-2.695v3.393zM52.586 7.766h-0.108l0.721-6.454h0.274l1.741 5.965 1.732-5.965h0.274l0.721 6.454h-0.688l-0.572-5.163-1.501 5.163h-0.522l-1.518-5.098-0.555 5.098zM62.536 1.313c0.105 0.117 0.157 0.268 0.157 0.452 0 0.153-0.031 0.31-0.091 0.47l-1.484 3.346v2.185h-0.688v-1.982l-1.659-4.471h0.705l1.584 4.158 1.443-3.236c0.061-0.154 0.091-0.313 0.091-0.479s-0.042-0.295-0.124-0.387l0.065-0.056zM1.169 9.462c0.428-0.022 0.848-0.033 1.256-0.033 0.419 0 0.857 0.048 1.315 0.146 0.519 0.114 0.979 0.305 1.392 0.563l-0.018-0.011c0.458 0.261 0.842 0.601 1.155 1.024 0.321 0.411 0.579 0.959 0.775 1.64s0.292 1.511 0.292 2.486c0 0.975-0.146 1.853-0.438 2.632-0.283 0.769-0.673 1.36-1.169 1.771-0.965 0.801-2.129 1.202-3.493 1.202-0.477 0-0.979-0.022-1.505-0.065h-0.731v-11.355h1.169zM1.213 20.688c0.204 0.022 0.463 0.033 0.775 0.033s0.545-0.006 0.701-0.017c0.156-0.010 0.37-0.054 0.643-0.129 0.29-0.093 0.542-0.208 0.775-0.35l-0.016 0.009c0.234-0.141 0.477-0.346 0.731-0.617 0.264-0.285 0.488-0.612 0.662-0.968l0.011-0.024c0.418-0.888 0.628-2.047 0.628-3.476 0-1.019-0.112-1.896-0.336-2.632-0.224-0.748-0.483-1.3-0.775-1.657-0.278-0.351-0.624-0.636-1.020-0.837l-0.017-0.008c-0.409-0.216-0.735-0.341-0.98-0.374-0.239-0.031-0.516-0.049-0.797-0.049-0.017 0-0.035 0-0.052 0l0.003-0c-0.321 0-0.633 0.016-0.935 0.049v11.049zM39.327 20.818h-0.19v-11.372h0.496l6.079 10.511v-10.511h0.19v11.372h-1.066l-5.509-9.424v9.424zM54.9 9.446h0.19v6.498c0 1.701-0.302 2.952-0.906 3.753-0.604 0.79-1.393 1.186-2.367 1.186-0.614 0-1.135-0.059-1.563-0.179-0.428-0.129-0.833-0.362-1.213-0.699-0.779-0.671-1.169-2.024-1.169-4.061v-6.499h1.213v6.482c0 1.971 0.268 3.287 0.803 3.948 0.273 0.325 0.555 0.547 0.848 0.666 0.302 0.119 0.663 0.178 1.081 0.178 0.935 0 1.68-0.379 2.236-1.137 0.565-0.769 0.847-1.987 0.847-3.655v-6.482zM60.075 20.818h-1.213v-11.21h-2.527v-0.162h6.282v0.162h-2.542v11.21z"></path>
</symbol>
<symbol id="logo-mob" viewBox="0 0 68 32">
<path d="M40.514 15.811c0 0.256-0.008 0.511 0 0.767 0.085 2.598-0.705 4.939-1.975 7.147-0.426 0.74-0.832 1.493-1.199 2.266-0.302 0.636-0.722 1.081-1.376 1.342-0.365 0.144-0.704 0.396-1.010 0.655-1.408 1.193-3.006 2.048-4.715 2.65-1.136 0.4-2.304 0.752-3.538 0.736-0.368-0.005-0.736 0.112-1.104 0.112s-0.737-0.121-1.102-0.105c-1.59 0.070-3.063-0.432-4.526-0.959-1.596-0.574-3.006-1.482-4.332-2.564-1.872-1.525-3.205-3.447-4.185-5.647-0.528-1.186-0.959-2.41-1.080-3.726-0.020-0.218-0.090-0.434-0.153-0.646-0.445-1.476-0.189-2.923 0.086-4.394 0.21-1.125 0.427-2.236 0.837-3.304 1.083-2.825 2.804-5.138 5.187-6.955 1.987-1.513 4.21-2.443 6.628-2.842 2.773-0.459 5.482-0.128 8.11 0.943 1.311 0.536 2.548 1.216 3.628 2.115 1.008 0.839 1.917 1.82 2.776 2.823 0.778 0.91 1.33 1.993 1.824 3.097 0.77 1.727 1.273 3.513 1.222 5.432-0.011 0.355-0.004 0.706-0.004 1.057zM39.449 12.314c-0.077-0.603-0.124-1.302-0.268-1.98-0.41-1.951-1.511-3.474-2.979-4.718-0.833-0.708-1.742-1.322-2.638-1.947-0.303-0.212-0.656-0.406-1.010-0.471-0.91-0.172-1.831-0.333-2.754-0.381-1.601-0.084-3.040-0.508-4.25-1.65-0.89-0.841-1.859-0.923-2.784-0.183-1.049 0.838-2.242 1.33-3.458 1.816-0.892 0.357-1.749 0.806-2.607 1.25-0.716 0.372-1.133 0.951-1.124 1.829 0.006 0.492-0.214 0.903-0.659 1.176-0.37 0.229-0.727 0.482-1.067 0.757-0.947 0.765-1.686 1.627-1.846 2.965-0.126 1.058-0.438 2.103-1.145 2.975-0.228 0.288-0.38 0.647-0.421 1.038l-0.001 0.009c-0.065 0.791-0.038 1.591-0.019 2.386 0.006 0.213 0.095 0.441 0.202 0.629 0.282 0.51 0.546 0.931 0.829 1.337l-0.033-0.049c0.694 0.99 1.297 2.004 1.436 3.261 0.135 1.218 0.709 2.211 1.679 2.968 1.406 1.098 2.761 2.263 4.187 3.332 0.767 0.576 1.587 1.079 2.598 1.196s2.003 0.399 2.91 0.922c0.19 0.105 0.398 0.171 0.613 0.193 1.279 0.141 2.463-0.184 3.587-0.798 0.352-0.192 0.715-0.368 1.079-0.535 0.878-0.403 1.851-0.668 2.616-1.23 0.85-0.626 1.76-0.903 2.736-1.079 0.422-0.075 0.767-0.254 1.042-0.576 0.327-0.382 0.631-0.786 0.972-1.154 0.353-0.381 0.608-0.786 0.67-1.328 0.095-0.832 0.442-1.567 0.882-2.272 0.745-1.192 1.169-2.509 1.389-3.91 0.058-0.368 0.090-0.678-0.087-1.002-0.513-0.933-0.304-1.993-0.466-2.986-0.083-0.537 0.107-1.124 0.186-1.794l-0.002 0.001zM33.275 2.992c-0.217-0.245-0.285-0.356-0.384-0.425-0.176-0.126-0.37-0.228-0.558-0.337-1.61-0.93-3.373-1.382-5.175-1.707-0.363-0.065-0.743-0.036-1.112-0.021-0.096 0.003-0.21 0.1-0.272 0.185-0.028 0.040 0.036 0.178 0.088 0.243 0.393 0.479 0.904 0.847 1.489 1.062l0.024 0.008c0.938 0.358 2.022 0.579 3.154 0.61l0.014 0c0.458 0.013 0.915 0.102 1.37 0.165 0.389 0.057 0.777 0.124 1.363 0.219zM19.595 29.805c-1.081-0.906-2.028-1.716-2.992-2.504-0.583-0.48-1.374-1.106-2.173-1.722l-0.257-0.19c-0.091-0.071-0.236-0.069-0.437-0.122 0.983 1.692 4.265 4.264 5.858 4.537zM12.314 8.663c0.652-0.511 1.255-1.048 1.917-1.493 0.928-0.62 1.283-1.392 1.064-2.716-0.659 0.553-1.129 1.218-1.636 1.823-0.537 0.638-0.934 1.397-1.382 2.112-0.034 0.057 0.021 0.171 0.038 0.274zM34.295 27.979c-0.609-0.043-1.22 0.068-1.602 0.404-0.724 0.639-1.584 0.96-2.46 1.279-0.46 0.168-0.894 0.414-1.327 0.649-0.060 0.032-0.071 0.204-0.059 0.306 0.004 0.035 0.166 0.091 0.233 0.068 0.787-0.275 1.6-0.496 2.345-0.864 0.913-0.45 1.771-1.019 2.645-1.547 0.091-0.053 0.139-0.177 0.225-0.293zM11.067 19.126c-0.175 0.528-0.14 0.821-0.031 1.133 0.305 0.864 0.491 1.776 1.040 2.532 0.203 0.28 0.245 0.907 0.621 0.772 0.331-0.118-0.056-0.614-0.078-0.949-0.087-1.277-0.742-2.306-1.552-3.487zM16.964 3.219l0.082 0.127c0.454-0.173 0.912-0.336 1.363-0.521 2.337-0.917 3.3-1.331 4.26-1.751l-1.337 0.522c0.196-0.085 0.375-0.22 0.543-0.358 0.046-0.039 0.038-0.171 0.023-0.253-0.007-0.036-0.1-0.076-0.153-0.078-0.097 0.002-0.189 0.019-0.275 0.047l0.007-0.002c-1.321 0.384-2.566 0.954-3.757 1.645-0.279 0.162-0.505 0.413-0.755 0.623zM40.151 16.937c0.080-0.095 0.142-0.135 0.147-0.179 0.129-1.392-0.014-2.771-0.201-4.146-0.009-0.070-0.103-0.169-0.166-0.177-0.070-0.009-0.179 0.050-0.222 0.114-0.070 0.102-0.114 0.22-0.127 0.345-0.016 0.25-0.026 0.542-0.026 0.836 0 0.903 0.088 1.785 0.257 2.639l-0.014-0.086c0.043 0.225 0.224 0.424 0.352 0.654zM10.748 13.097c0.516-0.201 0.592-0.567 0.648-0.896 0.135-0.804 0.471-1.577 0.36-2.426-0.538 1.013-1.016 2.041-1.007 3.322zM23.218 30.735c-1.155-0.524-1.468-0.579-2.496-0.432 0.436 0.169 0.828 0.438 1.222 0.442 0.411 0.007 0.857 0.523 1.274-0.011z"></path>
<path d="M25.6 20.313c-0.789-0.014-1.333-0.353-1.734-1.008-0.374-0.612-0.996-0.928-1.567-1.305-0.718-0.474-1.303-1.010-1.469-1.971-0.115-0.652 0.018-1.218 0.277-1.733 0.216-0.43 0.603-0.829 1.009-1.085 0.44-0.277 0.805-0.539 1.008-1.052 0.23-0.589 0.809-0.625 1.323-0.731 0.484-0.1 0.975-0.164 1.451-0.289 0.652-0.171 1.243-0.118 1.719 0.402 0.368 0.404 0.798 0.693 1.277 0.939 0.498 0.255 0.663 0.553 0.506 1.084-0.106 0.361-0.004 0.607 0.128 0.895 0.144 0.314 0.292 0.634 0.39 0.966 0.328 1.104-0.050 2.034-1.060 2.527-0.626 0.305-1.106 0.711-1.262 1.426-0.046 0.257-0.235 0.46-0.48 0.525l-0.005 0.001c-0.5 0.15-1.007 0.274-1.511 0.408zM28.915 15.681c0.016-1.946-1.422-3.502-3.292-3.505-1.678 0-3.367 1.165-3.433 3.398-0.053 1.787 1.399 3.451 3.29 3.457 2.303 0.012 3.39-1.628 3.435-3.349zM22.172 17.542c0-0.249 0.023-0.377-0.004-0.492-0.248-1.057-0.409-2.105 0.154-3.123 0.041-0.073-0.053-0.223-0.085-0.338-0.11 0.037-0.244 0.044-0.327 0.114-0.929 0.782-1.344 2.662 0.262 3.84zM25.624 11.688c0.389 0.146 0.612 0.25 0.843 0.314 0.857 0.233 1.588 0.651 2.097 1.421 0.1 0.151 0.23 0.377 0.422 0.204 0.102-0.092 0.135-0.375 0.076-0.516-0.079-0.188-0.26-0.421-0.432-0.458-0.471-0.101-0.729-0.451-1.035-0.756-0.516-0.508-1.092-0.667-1.97-0.21zM25.572 19.349l-0.011-0.074c-0.247 0-0.496-0.021-0.74 0.009-0.125 0.016-0.238 0.124-0.357 0.192 0.108 0.097 0.202 0.251 0.326 0.283 0.663 0.172 1.333 0.208 1.988-0.054 0.112-0.046 0.237-0.105 0.307-0.196 0.062-0.079 0.082-0.218 0.070-0.324-0.005-0.039-0.16-0.098-0.237-0.085-0.449 0.071-0.897 0.164-1.344 0.248l-0.002 0.001zM28.967 17.353c0.46-0.087 0.666-0.353 0.693-0.762 0.020-0.345 0.014-0.691-0.014-1.035-0.008-0.091-0.132-0.171-0.201-0.257-0.102 0.1-0.31 0.233-0.292 0.293 0.187 0.597-0.203 1.131-0.185 1.761v0.001zM33.175 20.048c-0.026 0.014-0.133 0.105-0.249 0.118-0.105 0.012-0.258-0.023-0.323-0.1-0.307-0.349-0.614-0.731-0.904-1.126l-0.033-0.047c-0.077-0.107-0.108-0.393-0.064-0.418 0.143-0.081 0.425-0.166 0.487-0.095 0.37 0.418 0.695 0.878 1.030 1.33 0.032 0.045 0.022 0.122 0.056 0.338zM17.514 23.324c0.171 0.014 0.508 0.025 0.838 0.083 0.082 0.014 0.192 0.179 0.192 0.277s-0.095 0.267-0.177 0.289c-0.64 0.163-1.277 0.203-1.844-0.236-0.056-0.054-0.091-0.129-0.091-0.213 0-0.010 0-0.020 0.002-0.030l-0 0.001c0.012-0.065 0.112-0.156 0.178-0.161 0.246-0.021 0.493-0.010 0.903-0.010zM37.576 9.508l0.242 0.137c-0.068 0.126-0.11 0.329-0.211 0.366-0.461 0.174-0.934 0.312-1.415 0.414-0.138 0.028-0.339-0.112-0.467-0.227-0.147-0.133-0.060-0.422 0.126-0.451 0.545-0.086 1.095-0.152 1.724-0.238zM21.28 26.138c0.256 0.122 0.47 0.156 0.575 0.287 0.287 0.365 0.549 0.749 0.785 1.15 0.115 0.191 0.010 0.398-0.183 0.453-0.107 0.030-0.299-0.059-0.377-0.157-0.289-0.354-0.575-0.75-0.837-1.162l-0.030-0.051c-0.061-0.1 0.034-0.302 0.068-0.521zM31.327 10.934c0.016-0.112 0-0.239 0.051-0.289 0.069-0.064 0.217-0.117 0.288-0.082 0.097 0.048 0.16 0.178 0.227 0.28 0.185 0.286 0.369 0.572 0.545 0.865 0.079 0.131 0.185 0.27 0.192 0.411 0.007 0.131-0.070 0.3-0.166 0.39-0.053 0.050-0.273 0.018-0.327-0.052-0.354-0.462-0.779-0.894-0.811-1.522zM32.429 6.029c-0.077 0.471-0.107 0.819-0.196 1.151-0.058 0.184-0.165 0.338-0.306 0.454l-0.002 0.001c-0.101 0.084-0.279 0.072-0.422 0.102-0.011-0.137-0.053-0.28-0.028-0.41 0.075-0.402 0.174-0.799 0.264-1.197 0.007-0.031 0.005-0.064 0.014-0.095 0.070-0.24 0.223-0.424 0.467-0.324 0.123 0.050 0.181 0.27 0.208 0.316zM25.82 9.095c0.215 0.028 0.494 0.043 0.759 0.109 0.091 0.022 0.225 0.19 0.209 0.262-0.027 0.129-0.132 0.299-0.243 0.338-0.176 0.056-0.363 0.057-0.54 0.003-0.306-0.1-0.592-0.134-0.898-0.003-0.201 0.087-0.39-0.004-0.443-0.209-0.072-0.275 0.13-0.408 0.356-0.447 0.242-0.041 0.491-0.034 0.799-0.053zM30.601 22.641c-0.087 0.39-0.153 0.732-0.247 1.067-0.018 0.065-0.154 0.154-0.21 0.139-0.102-0.026-0.245-0.108-0.266-0.193-0.024-0.095-0.039-0.204-0.039-0.317 0-0.088 0.009-0.174 0.025-0.257l-0.001 0.008c0.071-0.343 0.142-0.668 0.007-1.018-0.064-0.168-0.046-0.435 0.203-0.434 0.134 0 0.326 0.169 0.386 0.309 0.098 0.225 0.105 0.489 0.142 0.696zM26.829 22.541c-0.050 0.091-0.075 0.199-0.14 0.246-0.403 0.284-0.808 0.571-1.232 0.821-0.109 0.064-0.299 0.025-0.437-0.018-0.203-0.061-0.245-0.334-0.077-0.446 0.334-0.229 0.794-0.523 1.262-0.805l0.149-0.084c0.076-0.046 0.23 0.003 0.329 0.053 0.068 0.035 0.096 0.146 0.147 0.233zM21.686 4.213c0.065 0.039 0.189 0.073 0.206 0.135 0.16 0.606 0.315 1.213 0.442 1.826 0.036 0.171-0.185 0.265-0.332 0.164-0.464-0.32-0.752-1.505-0.481-2 0.028-0.049 0.096-0.074 0.166-0.124zM27.413 5.932c-0.139-0.095-0.29-0.144-0.31-0.227-0.022-0.090 0.050-0.242 0.128-0.314 0.34-0.311 0.696-0.604 1.066-0.878 0.124-0.090 0.383-0.154 0.479-0.083 0.226 0.163 0.107 0.393-0.050 0.561-0.211 0.226-0.422 0.465-0.666 0.649-0.187 0.138-0.427 0.197-0.647 0.293zM18.601 9.131l-0.339 0.329c-0.097-0.107-0.24-0.196-0.28-0.324-0.116-0.333-0.263-0.842-0.393-1.358l-0.035-0.165c-0.018-0.070 0.038-0.214 0.096-0.238 0.094-0.040 0.249-0.055 0.32 0 0.14 0.107 0.301 0.249 0.347 0.409 0.121 0.416 0.185 0.852 0.284 1.348zM14.891 17.535c-0.311 0.585-0.548 1.183-1.126 1.501-0.097 0.053-0.313-0.014-0.417-0.1-0.178-0.144 0-0.265 0.085-0.388 0.272-0.384 0.523-0.783 0.812-1.152 0.075-0.095 0.263-0.142 0.392-0.129 0.087 0.009 0.159 0.161 0.254 0.267zM18.402 17.584c0.162 0.096 0.28 0.124 0.302 0.188 0.036 0.104 0.055 0.267 0 0.339-0.089 0.114-0.241 0.181-0.372 0.257-0.34 0.2-0.676 0.411-1.029 0.582-0.049 0.019-0.105 0.030-0.164 0.030-0.087 0-0.167-0.024-0.236-0.066l0.002 0.001c-0.198-0.144-0.128-0.375 0.031-0.476 0.485-0.312 0.996-0.585 1.467-0.855zM35.979 14.938c-0.125 0.289-0.301 0.725-0.509 1.143-0.032 0.065-0.233 0.1-0.319 0.061-0.079-0.036-0.166-0.201-0.149-0.289 0.083-0.465 0.176-0.932 0.316-1.382 0.043-0.137 0.237-0.262 0.386-0.308 0.055-0.017 0.199 0.196 0.268 0.327 0.039 0.073 0.007 0.186 0.007 0.448zM14.793 11.467c0.55 0.506 0.485 1.193 0.546 1.828 0.011 0.118-0.132 0.287-0.246 0.372-0.060 0.045-0.303-0.027-0.309-0.068-0.068-0.463-0.142-1.127-0.197-1.795l-0.009-0.135c-0.004-0.055 0.124-0.122 0.215-0.201zM27.648 27.137c0.092 0.025 0.183 0.055 0.272 0.091 0.331 0.157 0.663 0.31 0.986 0.484 0.153 0.081 0.306 0.183 0.417 0.314 0.127 0.151-0.018 0.442-0.196 0.402-0.599-0.132-1.185-0.318-1.633-0.778-0.066-0.068-0.065-0.238-0.043-0.351 0.013-0.064 0.128-0.107 0.199-0.161zM20.352 11.652c0.031 0.102 0.14 0.26 0.102 0.359-0.201 0.524-0.434 1.037-0.671 1.545-0.029 0.063-0.154 0.118-0.228 0.108-0.064-0.009-0.153-0.101-0.17-0.171-0.125-0.567 0.271-1.582 0.713-1.838 0.046-0.026 0.118-0.004 0.253-0.004zM37.495 20.26c-0.069-0.045-0.213-0.1-0.287-0.205-0.030-0.043 0.067-0.234 0.149-0.295 0.324-0.248 0.696-0.503 1.080-0.739l0.059-0.034c0.106-0.063 0.326-0.068 0.404 0.004 0.071 0.066 0.082 0.314 0.017 0.405-0.329 0.469-0.743 0.828-1.421 0.864zM35.218 24.306c-0.284-0.030-0.408-0.033-0.526-0.060-0.050-0.011-0.125-0.073-0.126-0.112-0.001-0.008-0.001-0.018-0.001-0.027 0-0.084 0.024-0.162 0.066-0.228l-0.001 0.002c0.059-0.069 0.138-0.121 0.227-0.146l0.003-0.001c0.439-0.135 0.877-0.27 1.323-0.38 0.097-0.023 0.3 0.042 0.313 0.098 0.028 0.135-0.006 0.297-0.057 0.432-0.028 0.071-0.136 0.132-0.219 0.157-0.381 0.107-0.764 0.203-1.002 0.266zM22.012 21.059c-0.031 0.137-0.082 0.441-0.181 0.727-0.024 0.071-0.216 0.14-0.304 0.114s-0.192-0.175-0.188-0.268c0.009-0.53 0.035-1.061 0.087-1.589 0.011-0.115 0.154-0.216 0.235-0.324 0.099 0.107 0.257 0.2 0.282 0.322 0.055 0.274 0.044 0.562 0.070 1.017zM42.564 4.474c0-1.124 0.265-1.975 0.795-2.554 0.535-0.586 1.222-0.879 2.059-0.879s1.502 0.252 1.995 0.759c0.499 0.506 0.749 1.314 0.749 2.425 0 1.109-0.265 1.948-0.795 2.517s-1.237 0.851-2.122 0.851c-0.764 0-1.39-0.225-1.877-0.676-0.253-0.235-0.452-0.558-0.597-0.971-0.138-0.42-0.208-0.91-0.208-1.472zM45.39 1.133c-0.608 0-1.107 0.277-1.498 0.832-0.385 0.556-0.578 1.37-0.578 2.443s0.183 1.857 0.551 2.351c0.367 0.494 0.855 0.74 1.463 0.74 0.614 0 1.114-0.277 1.498-0.832 0.391-0.562 0.587-1.372 0.587-2.434 0-1.067-0.187-1.851-0.56-2.35-0.368-0.5-0.855-0.75-1.463-0.75zM49.724 7.556h-0.75v-6.478h0.749v2.98h2.934v-2.98h0.749v6.478h-0.749v-3.405h-2.934v3.405zM57.261 7.556h-0.117l0.785-6.478h0.299l1.896 5.988 1.887-5.988h0.299l0.785 6.478h-0.749l-0.623-5.183-1.634 5.183h-0.569l-1.653-5.117-0.604 5.117zM68.095 1.078c0.114 0.117 0.171 0.268 0.171 0.453 0 0.154-0.033 0.311-0.1 0.472l-1.616 3.359v2.193h-0.749v-1.99l-1.806-4.488h0.768l1.724 4.173 1.571-3.248c0.066-0.154 0.1-0.315 0.1-0.481s-0.046-0.296-0.135-0.388l0.071-0.055zM1.273 9.257c0.466-0.021 0.923-0.033 1.368-0.033 0.457 0 0.934 0.050 1.432 0.147 0.563 0.114 1.064 0.306 1.52 0.568l-0.024-0.013c0.498 0.261 0.917 0.603 1.257 1.027 0.35 0.413 0.631 0.962 0.843 1.647s0.318 1.517 0.318 2.496c0 0.978-0.159 1.858-0.476 2.641-0.308 0.772-0.732 1.365-1.273 1.778-1.051 0.804-2.318 1.207-3.804 1.207-0.519 0-1.066-0.022-1.638-0.065h-0.796v-11.399h1.273zM1.321 20.526c0.223 0.022 0.504 0.033 0.843 0.033s0.594-0.005 0.764-0.016c0.17-0.011 0.403-0.054 0.7-0.13 0.316-0.093 0.591-0.209 0.847-0.353l-0.020 0.011c0.255-0.141 0.52-0.348 0.796-0.619 0.287-0.285 0.531-0.613 0.722-0.973l0.011-0.022c0.455-0.892 0.683-2.055 0.683-3.489 0-1.023-0.122-1.903-0.365-2.642-0.244-0.75-0.526-1.305-0.843-1.664-0.307-0.355-0.684-0.641-1.11-0.839l-0.020-0.008c-0.445-0.218-0.801-0.343-1.067-0.375-0.262-0.032-0.565-0.050-0.873-0.050-0.017 0-0.035 0-0.052 0h0.003c-0.35 0-0.69 0.017-1.018 0.050v11.088zM42.823 20.656h-0.207v-11.415h0.54l6.619 10.55v-10.551h0.207v11.415h-1.161l-5.999-9.458v9.458zM59.78 9.241h0.207v6.523c0 1.707-0.329 2.962-0.986 3.767-0.658 0.794-1.517 1.191-2.578 1.191-0.668 0-1.236-0.060-1.702-0.18-0.509-0.149-0.95-0.39-1.326-0.706l0.006 0.005c-0.848-0.674-1.273-2.033-1.273-4.077v-6.522h1.321v6.507c0 1.978 0.292 3.3 0.875 3.962 0.297 0.326 0.604 0.549 0.923 0.668 0.329 0.119 0.722 0.179 1.178 0.179 1.018 0 1.83-0.38 2.435-1.141 0.615-0.772 0.922-1.995 0.922-3.669v-6.507zM65.415 20.656h-1.321v-11.252h-2.752v-0.164h6.841v0.164h-2.768v11.252z"></path>
</symbol>
<symbol id="logo-menu" viewBox="0 0 72 32">
<path d="M42.45 15.997c0 0.261-0.008 0.522 0 0.783 0.089 2.652-0.739 5.042-2.069 7.296-0.446 0.756-0.872 1.524-1.256 2.314-0.317 0.649-0.757 1.104-1.442 1.37-0.383 0.148-0.737 0.405-1.058 0.669-1.476 1.218-3.15 2.091-4.94 2.705-1.19 0.408-2.414 0.767-3.706 0.751-0.385-0.005-0.771 0.114-1.157 0.115s-0.772-0.124-1.154-0.108c-1.666 0.072-3.21-0.441-4.742-0.979-1.673-0.587-3.15-1.513-4.539-2.618-1.96-1.557-3.357-3.52-4.385-5.766-0.553-1.21-1.004-2.46-1.131-3.803-0.021-0.223-0.095-0.443-0.161-0.66-0.466-1.507-0.198-2.985 0.090-4.486 0.221-1.148 0.448-2.283 0.877-3.373 1.135-2.884 2.938-5.245 5.434-7.1 2.082-1.545 4.412-2.494 6.944-2.902 2.906-0.468 5.744-0.131 8.497 0.963 1.374 0.547 2.67 1.241 3.802 2.159 1.056 0.856 2.008 1.859 2.908 2.883 0.815 0.928 1.394 2.034 1.911 3.162 0.807 1.762 1.333 3.586 1.28 5.546-0.012 0.362-0.003 0.721-0.003 1.080zM41.335 12.427c-0.081-0.616-0.131-1.329-0.281-2.022-0.429-1.992-1.583-3.547-3.121-4.817-0.873-0.722-1.825-1.35-2.763-1.988-0.318-0.216-0.687-0.415-1.058-0.482-0.954-0.175-1.919-0.34-2.886-0.389-1.678-0.085-3.186-0.518-4.453-1.685-0.933-0.858-1.948-0.941-2.918-0.186-1.099 0.855-2.349 1.358-3.623 1.855-0.934 0.364-1.833 0.823-2.732 1.276-0.75 0.379-1.187 0.971-1.177 1.867 0.006 0.503-0.224 0.923-0.69 1.201-0.427 0.258-0.792 0.513-1.139 0.79l0.022-0.017c-0.993 0.782-1.768 1.661-1.935 3.027-0.132 1.080-0.459 2.148-1.2 3.038-0.238 0.293-0.398 0.659-0.441 1.059l-0.001 0.009c-0.068 0.808-0.040 1.624-0.020 2.437 0.006 0.217 0.1 0.451 0.211 0.642 0.256 0.452 0.535 0.891 0.835 1.315 0.727 1.010 1.359 2.046 1.506 3.329 0.141 1.243 0.742 2.257 1.759 3.031 1.472 1.12 2.892 2.31 4.387 3.402 0.803 0.588 1.663 1.102 2.723 1.221s2.098 0.408 3.048 0.941c0.186 0.102 0.404 0.172 0.635 0.196l0.007 0.001c1.34 0.145 2.581-0.187 3.758-0.814 0.369-0.197 0.749-0.375 1.131-0.546 0.92-0.411 1.94-0.682 2.741-1.255 0.891-0.639 1.845-0.922 2.868-1.101 0.442-0.078 0.803-0.26 1.091-0.588 0.344-0.39 0.661-0.802 1.019-1.179 0.37-0.389 0.637-0.802 0.702-1.356 0.099-0.849 0.463-1.599 0.924-2.319 0.781-1.218 1.225-2.562 1.456-3.992 0.061-0.375 0.095-0.692-0.091-1.023-0.538-0.952-0.318-2.034-0.488-3.049-0.086-0.548 0.112-1.148 0.195-1.832l-0.002 0.001zM34.865 2.91c-0.227-0.251-0.299-0.364-0.402-0.435-0.186-0.128-0.388-0.233-0.585-0.344-1.687-0.95-3.535-1.412-5.423-1.743-0.379-0.068-0.778-0.038-1.166-0.023-0.101 0.004-0.221 0.102-0.285 0.19-0.029 0.040 0.037 0.181 0.092 0.247 0.414 0.491 0.949 0.867 1.56 1.084l0.025 0.008c0.984 0.366 2.12 0.591 3.305 0.623l0.014 0c0.48 0.013 0.958 0.104 1.435 0.169 0.407 0.058 0.814 0.127 1.428 0.223zM20.533 30.284c-1.132-0.925-2.125-1.752-3.135-2.556-0.836-0.666-1.69-1.31-2.545-1.952-0.096-0.072-0.248-0.070-0.458-0.124 1.030 1.728 4.469 4.353 6.138 4.632zM12.903 8.699c0.683-0.522 1.315-1.070 2.008-1.525 0.972-0.633 1.344-1.42 1.114-2.772-0.69 0.564-1.182 1.243-1.714 1.861-0.562 0.651-0.98 1.426-1.448 2.155-0.036 0.059 0.023 0.175 0.040 0.281zM35.933 28.421c-0.637-0.044-1.279 0.069-1.678 0.413-0.758 0.652-1.66 0.98-2.578 1.306-0.482 0.171-0.936 0.422-1.39 0.661-0.063 0.033-0.075 0.209-0.061 0.313 0.004 0.035 0.174 0.092 0.244 0.069 0.824-0.28 1.676-0.507 2.456-0.882 0.957-0.459 1.856-1.040 2.772-1.579 0.096-0.054 0.147-0.181 0.236-0.299zM11.596 19.381c-0.183 0.539-0.147 0.838-0.032 1.157 0.319 0.882 0.513 1.814 1.089 2.585 0.213 0.286 0.257 0.925 0.651 0.788 0.346-0.12-0.059-0.627-0.083-0.968-0.091-1.304-0.777-2.355-1.625-3.561zM17.775 3.142l0.085 0.129c0.476-0.177 0.956-0.343 1.428-0.532 2.485-0.948 3.496-1.371 4.502-1.801l-1.439 0.547c0.205-0.087 0.393-0.226 0.568-0.366 0.049-0.040 0.040-0.175 0.025-0.258-0.008-0.037-0.105-0.078-0.161-0.080-0.101 0.002-0.198 0.019-0.288 0.049l0.007-0.002c-1.384 0.393-2.688 0.974-3.936 1.679-0.292 0.166-0.529 0.422-0.791 0.636zM42.071 17.147c0.084-0.097 0.149-0.137 0.154-0.183 0.135-1.421-0.016-2.829-0.21-4.233-0.010-0.071-0.108-0.172-0.174-0.18-0.073-0.010-0.188 0.051-0.233 0.117-0.070 0.099-0.118 0.219-0.132 0.349l-0 0.003c-0.017 0.255-0.027 0.553-0.027 0.853 0 0.922 0.093 1.823 0.269 2.693l-0.015-0.087c0.044 0.23 0.235 0.432 0.369 0.668zM11.262 13.227c0.54-0.206 0.621-0.579 0.678-0.915 0.141-0.82 0.494-1.609 0.377-2.477-0.564 1.035-1.065 2.083-1.055 3.392zM24.328 31.234c-1.21-0.535-1.538-0.591-2.616-0.441 0.457 0.173 0.868 0.448 1.281 0.452 0.431 0.007 0.898 0.534 1.335-0.011z"></path>
<path d="M26.824 20.593c-0.827-0.015-1.396-0.361-1.817-1.030-0.392-0.624-1.045-0.948-1.642-1.332-0.753-0.484-1.366-1.030-1.54-2.012-0.12-0.666 0.020-1.243 0.29-1.769 0.227-0.439 0.632-0.847 1.058-1.108 0.461-0.283 0.843-0.55 1.056-1.073 0.241-0.602 0.848-0.639 1.386-0.747 0.506-0.102 1.021-0.168 1.521-0.295 0.683-0.174 1.303-0.12 1.801 0.411 0.386 0.412 0.836 0.708 1.338 0.958 0.522 0.26 0.695 0.564 0.531 1.107-0.111 0.369-0.004 0.62 0.134 0.914 0.15 0.321 0.305 0.647 0.408 0.986 0.344 1.128-0.052 2.077-1.111 2.58-0.657 0.311-1.159 0.726-1.323 1.455-0.066 0.294-0.249 0.461-0.508 0.537-0.524 0.153-1.055 0.28-1.584 0.417zM30.297 15.864c0.017-1.987-1.49-3.576-3.45-3.579-1.758 0-3.528 1.19-3.596 3.469-0.055 1.824 1.465 3.524 3.447 3.53 2.413 0.012 3.552-1.663 3.599-3.42zM23.232 17.764c0-0.255 0.024-0.385-0.004-0.503-0.26-1.079-0.429-2.149 0.161-3.188 0.043-0.075-0.056-0.229-0.088-0.346-0.116 0.037-0.255 0.045-0.343 0.117-0.974 0.799-1.409 2.718 0.274 3.92zM26.849 11.787c0.408 0.149 0.64 0.255 0.884 0.321 0.898 0.238 1.664 0.664 2.197 1.451 0.105 0.155 0.241 0.385 0.442 0.209 0.107-0.094 0.142-0.382 0.080-0.526-0.083-0.191-0.272-0.43-0.453-0.468-0.493-0.103-0.763-0.46-1.085-0.771-0.541-0.519-1.144-0.681-2.065-0.215zM26.794 19.609l-0.012-0.075c-0.259 0-0.52-0.022-0.774 0.009-0.131 0.016-0.25 0.127-0.374 0.195 0.113 0.1 0.211 0.257 0.341 0.29 0.696 0.175 1.397 0.213 2.083-0.055 0.117-0.046 0.248-0.106 0.322-0.201 0.065-0.080 0.087-0.223 0.073-0.331-0.005-0.040-0.168-0.101-0.248-0.088-0.471 0.074-0.94 0.167-1.409 0.254l-0.002 0.001zM30.351 17.571c0.482-0.089 0.698-0.361 0.726-0.779 0.021-0.352 0.015-0.705-0.015-1.056-0.008-0.093-0.137-0.175-0.211-0.263-0.107 0.102-0.325 0.238-0.305 0.299 0.196 0.609-0.213 1.155-0.194 1.797v0.001zM34.761 20.323c-0.028 0.014-0.139 0.107-0.261 0.12-0.11 0.013-0.271-0.024-0.339-0.101-0.324-0.36-0.646-0.75-0.95-1.154l-0.032-0.044c-0.080-0.108-0.113-0.401-0.068-0.426 0.151-0.083 0.445-0.17 0.511-0.098 0.388 0.427 0.728 0.897 1.079 1.357 0.034 0.046 0.024 0.125 0.059 0.346zM18.351 23.669c0.179 0.014 0.533 0.025 0.878 0.084 0.086 0.015 0.201 0.183 0.201 0.283s-0.099 0.274-0.185 0.295c-0.671 0.166-1.338 0.207-1.932-0.241-0.059-0.055-0.095-0.133-0.095-0.22 0-0.010 0-0.019 0.001-0.028l-0 0.001c0.012-0.067 0.117-0.16 0.186-0.166 0.258-0.021 0.516-0.009 0.946-0.009zM39.372 9.562l0.254 0.139c-0.072 0.129-0.116 0.336-0.221 0.373-0.483 0.177-0.979 0.319-1.483 0.423-0.145 0.029-0.355-0.114-0.489-0.232-0.154-0.136-0.062-0.431 0.132-0.461 0.571-0.088 1.147-0.155 1.807-0.242zM22.297 26.54c0.268 0.125 0.493 0.161 0.602 0.294 0.3 0.373 0.575 0.764 0.822 1.174 0.12 0.195 0.011 0.406-0.192 0.462-0.111 0.031-0.313-0.059-0.395-0.16-0.305-0.364-0.604-0.768-0.878-1.189l-0.030-0.049c-0.064-0.102 0.035-0.308 0.071-0.532zM32.824 11.018c0.017-0.114 0-0.244 0.054-0.294 0.072-0.066 0.227-0.12 0.302-0.085 0.102 0.049 0.168 0.182 0.237 0.287 0.123 0.175 0.312 0.462 0.496 0.753l0.076 0.129c0.083 0.134 0.194 0.276 0.201 0.42 0.008 0.133-0.073 0.306-0.174 0.398-0.056 0.051-0.286 0.018-0.343-0.053-0.371-0.472-0.817-0.913-0.849-1.555zM33.979 6.010c-0.080 0.482-0.112 0.836-0.206 1.175-0.062 0.189-0.173 0.347-0.319 0.463l-0.002 0.002c-0.107 0.086-0.292 0.073-0.442 0.105-0.012-0.14-0.056-0.286-0.031-0.419 0.078-0.41 0.183-0.815 0.277-1.222 0.008-0.032 0.005-0.065 0.014-0.096 0.074-0.245 0.234-0.433 0.49-0.331 0.129 0.052 0.189 0.277 0.218 0.324zM27.054 9.141c0.226 0.028 0.518 0.043 0.797 0.111 0.095 0.023 0.236 0.194 0.219 0.268-0.029 0.132-0.139 0.306-0.255 0.345-0.086 0.028-0.185 0.044-0.287 0.044-0.099 0-0.195-0.015-0.285-0.043l0.007 0.002c-0.321-0.102-0.62-0.136-0.941-0.002-0.21 0.088-0.408-0.005-0.464-0.214-0.075-0.281 0.136-0.417 0.373-0.457 0.253-0.042 0.515-0.035 0.837-0.053zM32.064 22.97c-0.091 0.398-0.161 0.748-0.259 1.089-0.019 0.067-0.161 0.157-0.22 0.142-0.107-0.026-0.257-0.11-0.279-0.198-0.026-0.097-0.041-0.209-0.041-0.325 0-0.089 0.009-0.177 0.026-0.261l-0.001 0.008c0.075-0.35 0.15-0.682 0.008-1.039-0.067-0.171-0.048-0.444 0.212-0.443 0.14 0 0.342 0.173 0.405 0.316 0.102 0.229 0.109 0.499 0.149 0.71zM28.111 22.868c-0.052 0.094-0.078 0.204-0.146 0.251-0.423 0.291-0.847 0.584-1.292 0.838-0.114 0.065-0.313 0.025-0.458-0.018-0.212-0.063-0.257-0.343-0.080-0.456 0.487-0.312 0.976-0.621 1.478-0.908 0.081-0.046 0.241 0.004 0.345 0.055 0.070 0.035 0.1 0.149 0.154 0.237zM22.723 4.155c0.069 0.040 0.198 0.075 0.215 0.139 0.168 0.618 0.33 1.238 0.463 1.864 0.037 0.174-0.193 0.271-0.347 0.167-0.486-0.327-0.788-1.536-0.505-2.042 0.029-0.050 0.101-0.075 0.174-0.127zM28.724 5.911c-0.146-0.098-0.304-0.147-0.325-0.232-0.023-0.091 0.053-0.247 0.134-0.321 0.335-0.3 0.699-0.594 1.077-0.869l0.040-0.027c0.13-0.092 0.401-0.157 0.502-0.085 0.237 0.166 0.113 0.401-0.053 0.573-0.221 0.232-0.442 0.475-0.697 0.663-0.196 0.14-0.447 0.201-0.678 0.299zM19.489 9.177l-0.355 0.335c-0.102-0.109-0.251-0.2-0.294-0.331-0.171-0.512-0.313-1.033-0.448-1.555-0.019-0.072 0.040-0.219 0.101-0.244 0.098-0.040 0.26-0.056 0.335 0 0.147 0.108 0.315 0.254 0.364 0.418 0.127 0.425 0.193 0.87 0.298 1.377zM15.602 17.757c-0.326 0.596-0.573 1.207-1.18 1.533-0.102 0.055-0.328-0.015-0.437-0.102-0.186-0.148 0-0.27 0.090-0.395 0.285-0.392 0.548-0.8 0.85-1.176 0.078-0.097 0.276-0.145 0.41-0.131 0.092 0.009 0.166 0.164 0.266 0.273zM19.282 17.807c0.17 0.098 0.293 0.128 0.316 0.192 0.038 0.106 0.057 0.273 0 0.346-0.093 0.117-0.253 0.184-0.39 0.263-0.357 0.204-0.708 0.419-1.078 0.594-0.113 0.053-0.317 0.037-0.418-0.035-0.207-0.147-0.134-0.383 0.032-0.487 0.508-0.318 1.043-0.597 1.538-0.873zM37.698 15.106c-0.131 0.295-0.315 0.74-0.533 1.167-0.034 0.066-0.245 0.102-0.334 0.063-0.083-0.038-0.174-0.205-0.157-0.295 0.088-0.475 0.184-0.952 0.332-1.411 0.045-0.14 0.248-0.267 0.404-0.314 0.058-0.017 0.209 0.201 0.281 0.334 0.041 0.075 0.007 0.191 0.007 0.457zM15.5 11.562c0.576 0.517 0.507 1.218 0.571 1.866 0.012 0.12-0.138 0.293-0.258 0.379-0.063 0.046-0.317-0.028-0.323-0.070-0.072-0.474-0.149-1.15-0.207-1.832l-0.010-0.138c-0.005-0.056 0.131-0.125 0.226-0.205zM28.969 27.56c0.097 0.026 0.192 0.056 0.285 0.093 0.346 0.16 0.695 0.316 1.032 0.493 0.161 0.083 0.321 0.187 0.437 0.321 0.133 0.154-0.019 0.451-0.204 0.41-0.629-0.136-1.242-0.325-1.712-0.794-0.069-0.069-0.068-0.243-0.045-0.358 0.013-0.065 0.134-0.11 0.208-0.165zM21.324 11.751c0.033 0.104 0.147 0.265 0.107 0.366-0.211 0.535-0.456 1.059-0.704 1.578-0.030 0.064-0.161 0.12-0.238 0.11-0.068-0.008-0.161-0.103-0.178-0.175-0.132-0.579 0.283-1.615 0.747-1.876 0.048-0.027 0.124-0.004 0.266-0.004zM39.288 20.539c-0.072-0.046-0.223-0.102-0.301-0.209-0.031-0.043 0.070-0.239 0.157-0.301 0.337-0.251 0.726-0.512 1.127-0.753l0.065-0.036c0.111-0.064 0.341-0.069 0.423 0.003 0.075 0.067 0.086 0.321 0.018 0.414-0.345 0.479-0.779 0.845-1.49 0.882zM36.901 24.67c-0.298-0.031-0.428-0.034-0.552-0.062-0.053-0.012-0.131-0.074-0.132-0.114-0.001-0.008-0.001-0.017-0.001-0.026 0-0.086 0.026-0.167 0.070-0.234l-0.001 0.002c0.063-0.071 0.145-0.124 0.238-0.15l0.004-0.001c0.459-0.138 0.919-0.276 1.386-0.388 0.101-0.024 0.314 0.043 0.328 0.1 0.031 0.137-0.006 0.303-0.060 0.441-0.029 0.073-0.142 0.134-0.23 0.16-0.399 0.11-0.8 0.207-1.049 0.272zM23.064 21.355c-0.033 0.14-0.087 0.45-0.19 0.743-0.026 0.073-0.227 0.142-0.319 0.116s-0.201-0.178-0.198-0.274c0.009-0.584 0.042-1.147 0.098-1.704l-0.007 0.082c0.012-0.117 0.161-0.221 0.247-0.331 0.103 0.109 0.27 0.204 0.296 0.329 0.058 0.279 0.046 0.573 0.073 1.038zM44.599 4.422c0-1.146 0.278-2.016 0.833-2.607 0.561-0.599 1.28-0.898 2.157-0.898s1.574 0.258 2.091 0.775c0.524 0.517 0.785 1.342 0.785 2.475s-0.277 1.99-0.832 2.57c-0.555 0.58-1.296 0.87-2.223 0.87-0.801 0-1.457-0.23-1.968-0.69-0.265-0.239-0.473-0.57-0.625-0.992-0.145-0.428-0.218-0.929-0.218-1.502zM47.56 1.012c-0.637 0-1.16 0.283-1.57 0.85-0.404 0.567-0.606 1.398-0.606 2.494s0.192 1.896 0.577 2.4c0.385 0.504 0.896 0.756 1.533 0.756 0.643 0 1.167-0.283 1.571-0.85 0.41-0.573 0.615-1.402 0.615-2.485 0-1.090-0.195-1.89-0.587-2.4-0.385-0.51-0.896-0.765-1.533-0.765zM52.101 7.569h-0.785v-6.613h0.785v3.042h3.075v-3.042h0.785v6.613h-0.785v-3.477h-3.075v3.477zM59.997 7.569h-0.123l0.823-6.613h0.312l1.987 6.113 1.977-6.113h0.312l0.823 6.613h-0.785l-0.653-5.291-1.713 5.291h-0.596l-1.731-5.225-0.634 5.225zM71.35 0.955c0.12 0.12 0.18 0.274 0.18 0.463 0 0.157-0.035 0.318-0.104 0.482l-1.694 3.43v2.239h-0.785v-2.031l-1.892-4.582h0.804l1.807 4.261 1.646-3.316c0.069-0.157 0.104-0.321 0.104-0.491s-0.047-0.302-0.142-0.397l0.076-0.056zM1.334 9.306c0.427-0.021 0.928-0.033 1.432-0.034h0.001c0.478 0 0.978 0.050 1.501 0.15 0.533 0.1 1.056 0.289 1.567 0.566 0.523 0.266 0.962 0.616 1.317 1.049 0.367 0.422 0.661 0.983 0.884 1.682s0.334 1.548 0.334 2.547c0 0.999-0.167 1.898-0.5 2.697-0.322 0.788-0.767 1.393-1.334 1.815-1.1 0.821-2.428 1.232-3.984 1.232-0.545 0-1.117-0.022-1.717-0.067h-0.834v-11.637h1.334zM1.384 20.811c0.233 0.022 0.528 0.033 0.884 0.033s0.622-0.006 0.8-0.017c0.178-0.011 0.422-0.056 0.734-0.133 0.332-0.094 0.619-0.214 0.889-0.361l-0.022 0.011c0.267-0.144 0.544-0.355 0.833-0.632 0.3-0.291 0.555-0.626 0.756-0.994l0.011-0.022c0.478-0.91 0.717-2.098 0.717-3.563 0-1.043-0.128-1.943-0.383-2.697-0.256-0.766-0.55-1.332-0.884-1.698-0.323-0.364-0.718-0.656-1.162-0.857l-0.022-0.009c-0.467-0.222-0.839-0.349-1.117-0.383-0.272-0.032-0.586-0.050-0.905-0.050-0.022 0-0.043 0-0.065 0l0.003-0c-0.367 0-0.723 0.017-1.067 0.050v11.322zM44.869 20.944h-0.216v-11.654h0.567l6.936 10.772v-10.773h0.216v11.654h-1.217l-6.286-9.656v9.656zM62.638 9.289h0.217v6.66c0 1.743-0.344 3.025-1.034 3.846-0.689 0.81-1.589 1.215-2.701 1.215-0.7 0-1.295-0.061-1.784-0.183-0.489-0.133-0.95-0.372-1.384-0.716-0.889-0.688-1.333-2.075-1.333-4.162v-6.66h1.384v6.643c0 2.020 0.306 3.369 0.917 4.046 0.311 0.333 0.634 0.561 0.967 0.683 0.345 0.122 0.756 0.183 1.234 0.183 1.067 0 1.917-0.389 2.551-1.166 0.645-0.788 0.967-2.037 0.967-3.746v-6.643zM68.542 20.944h-1.384v-11.488h-2.884v-0.166h7.169v0.166h-2.901v11.488z"></path>
</symbol>

<!-- burger -->

<symbol id="close-burger" viewBox="0 0 32 32">
<path d="M30.354 32c0.909-0.001 1.645-0.737 1.645-1.646 0-0.455-0.184-0.866-0.483-1.164l-28.704-28.709c-0.298-0.298-0.71-0.482-1.164-0.482-0.909 0-1.647 0.737-1.647 1.647 0 0.455 0.184 0.866 0.482 1.164l28.708 28.708c0.322 0.32 0.743 0.484 1.164 0.484z"></path>
<path d="M1.644 32c0.421 0 0.843-0.16 1.164-0.484l28.709-28.706c0.298-0.298 0.482-0.71 0.482-1.164 0-0.909-0.737-1.647-1.647-1.647-0.455 0-0.866 0.184-1.164 0.482l-28.709 28.709c-0.297 0.298-0.481 0.709-0.481 1.163 0 0.909 0.736 1.646 1.645 1.646h0z"></path>
</symbol>
<symbol id="burger" viewBox="0 0 60 32">
<path d="M2 0h56c1.105 0 2 0.895 2 2s-0.895 2-2 2h-56c-1.105 0-2-0.895-2-2s0.895-2 2-2z"></path>
<path d="M2 14h56c1.105 0 2 0.895 2 2s-0.895 2-2 2h-56c-1.105 0-2-0.895-2-2s0.895-2 2-2z"></path>
<path d="M2 28h56c1.105 0 2 0.895 2 2s-0.895 2-2 2h-56c-1.105 0-2-0.895-2-2s0.895-2 2-2z"></path>
</symbol>

<!-- footer -->

<symbol id="phone" viewBox="0 0 32 32">
<path d="M29.43 20.47c-0.010 0-0.021 0-0.033 0-2.027 0-3.978-0.324-5.805-0.924l0.131 0.037c-0.894-0.295-1.991-0.025-2.535 0.519l-3.599 2.649c-4.172-2.171-6.742-4.677-8.938-8.711l2.634-3.414c0.687-0.667 0.93-1.642 0.638-2.555-0.577-1.653-0.911-3.559-0.911-5.543 0-0.009 0-0.018 0-0.026v0.001c-0.002-1.381-1.157-2.503-2.57-2.503h-5.876c-1.415 0-2.567 1.122-2.567 2.503 0 15.815 13.201 28.682 29.43 28.682 1.415 0 2.567-1.122 2.567-2.503v-5.711c0-1.378-1.152-2.501-2.567-2.501z"></path>
</symbol>
<symbol id="location" viewBox="0 0 23 32">
<path d="M11.733 0c6.47 0 11.733 5.131 11.733 11.435 0 2.496-0.811 4.866-2.34 6.854l-8.67 11.381c-0.021 0.026-0.055 0.036-0.079 0.062-0.163 0.178-0.396 0.29-0.656 0.29-0.289 0-0.546-0.138-0.708-0.352l-0.002-0.002c-2.498-3.245-7.074-9.308-8.832-11.595l-0.004-0.004-0.011-0.013c-1.353-1.824-2.165-4.12-2.165-6.605 0-0.006 0-0.012 0-0.017v0.001c0-6.304 5.263-11.435 11.733-11.435zM11.733 17.604c3.484 0 6.33-2.773 6.33-6.17 0-3.394-2.846-6.17-6.33-6.17s-6.33 2.773-6.33 6.17c0 3.394 2.846 6.17 6.33 6.17z"></path>
</symbol>

<!-- star -->

<symbol id="star-check" viewBox="0 0 34 32">
<path fill="#ab816c" d="M15.24 1.561c0.505-1.551 2.7-1.551 3.203 0l2.558 7.872c0.227 0.68 0.857 1.162 1.6 1.162h8.278c1.632 0 2.309 2.088 0.99 3.048l-6.696 4.864c-0.423 0.31-0.694 0.804-0.694 1.362 0 0.186 0.030 0.365 0.086 0.533l-0.003-0.012 2.557 7.872c0.505 1.553-1.272 2.843-2.592 1.883l-6.695-4.864c-0.274-0.201-0.618-0.322-0.99-0.322s-0.716 0.121-0.995 0.325l0.005-0.003-6.696 4.864c-1.319 0.96-3.096-0.332-2.59-1.883l2.557-7.872c0.052-0.155 0.082-0.335 0.082-0.521 0-0.558-0.271-1.052-0.689-1.359l-0.005-0.003-6.696-4.864c-1.319-0.96-0.64-3.048 0.99-3.048h8.276c0 0 0 0 0 0 0.744 0 1.374-0.482 1.598-1.15l0.003-0.012 2.56-7.872z"></path>
</symbol>
<symbol id="star-no-check" viewBox="0 0 34 32">
<path fill="none" stroke="#ab816c" stroke-linejoin="miter" stroke-linecap="butt" stroke-miterlimit="4" stroke-width="1.6842" d="M16.040 1.822c0.112-0.342 0.429-0.584 0.802-0.584s0.689 0.242 0.8 0.578l0.002 0.006 2.557 7.87c0.339 1.022 1.286 1.747 2.403 1.747 0 0 0 0 0 0h8.276c0.465 0.001 0.841 0.377 0.841 0.842 0 0.279-0.135 0.525-0.344 0.679l-0.002 0.002-6.696 4.866c-0.634 0.465-1.041 1.207-1.041 2.044 0 0.279 0.045 0.547 0.129 0.798l-0.005-0.018 2.558 7.872c0.026 0.078 0.041 0.168 0.041 0.261 0 0.465-0.377 0.842-0.842 0.842-0.187 0-0.359-0.061-0.499-0.163l0.002 0.002-6.695-4.866c-0.411-0.302-0.927-0.483-1.485-0.483s-1.074 0.181-1.493 0.488l0.007-0.005-6.695 4.866c-0.137 0.101-0.31 0.162-0.497 0.162-0.465 0-0.842-0.377-0.842-0.842 0-0.094 0.015-0.185 0.044-0.269l-0.002 0.006 2.558-7.87c0.078-0.233 0.124-0.502 0.124-0.78 0-0.837-0.407-1.579-1.034-2.039l-0.007-0.005-6.698-4.866c-0.211-0.155-0.346-0.402-0.346-0.68 0-0.465 0.376-0.842 0.841-0.842h8.276c0 0 0 0 0 0 1.117 0 2.064-0.724 2.398-1.729l0.005-0.018 2.557-7.87z"></path>
</symbol>
<symbol></symbol>

<!-- slider -->

<symbol id="icon-next-hover" viewBox="0 0 144 32">
<path fill="#876655" style="fill: var(--color1, #876655)" d="M141.414 17.414c0.781-0.781 0.781-2.047 0-2.828l-12.728-12.728c-0.781-0.781-2.048-0.781-2.828 0s-0.781 2.047 0 2.828l11.314 11.314-11.314 11.314c-0.781 0.781-0.781 2.047 0 2.828s2.047 0.781 2.828 0l12.728-12.728zM0 18h140v-4h-140v4z"></path>
</symbol>
<symbol id="icon-prev-hover" viewBox="0 0 144 32">
<path fill="#876655" style="fill: var(--color1, #876655)" d="M2.586 14.586c-0.781 0.781-0.781 2.047 0 2.828l12.728 12.728c0.781 0.781 2.047 0.781 2.828 0s0.781-2.047 0-2.828l-11.314-11.314 11.314-11.314c0.781-0.781 0.781-2.047 0-2.828s-2.047-0.781-2.828 0l-12.728 12.728zM144 14h-140v4h140v-4z"></path>
</symbol>
<symbol id="icon-line" viewBox="0 0 144 32">
<path fill="#876655" style="fill: var(--color1, #876655)" d="M142.83 14.585h-140v4h140v-4z"></path>

<!-- program -->

<symbol id="chef-hat" viewBox="0 0 32 32">
<path fill="#674d40" d="M23.048 8.572c-0.122-0.002-0.231-0.057-0.304-0.144l-0-0.001c-0.078-0.092-0.125-0.212-0.125-0.343 0-0.002 0-0.003 0-0.005v0c-0.033-1.889-0.712-3.689-1.888-5.011s-2.757-2.063-4.404-2.063-3.228 0.741-4.404 2.063c-1.178 1.322-1.855 3.122-1.888 5.011 0 0.131-0.045 0.256-0.125 0.348-0.074 0.087-0.182 0.143-0.304 0.145h-0c-0.122-0.002-0.23-0.058-0.303-0.144l-0.001-0.001c-0.079-0.092-0.127-0.213-0.127-0.345 0-0.001 0-0.002 0-0.004v0c0.029-2.154 0.796-4.209 2.134-5.722 1.34-1.509 3.141-2.358 5.018-2.358 1.879 0 3.681 0.847 5.020 2.359 1.338 1.51 2.104 3.566 2.132 5.72 0 0.131-0.045 0.256-0.125 0.348-0.073 0.087-0.182 0.143-0.303 0.145h-0z"></path>
<path fill="#674d40" d="M24.302 19.732c-0.122-0.001-0.231-0.056-0.304-0.143l-0-0.001c-0.080-0.092-0.128-0.213-0.128-0.346 0-0 0-0.001 0-0.001v0c0-0.132 0.044-0.256 0.124-0.351 0.073-0.088 0.181-0.143 0.303-0.146h0c1.637-0.012 3.205-0.759 4.366-2.083 1.162-1.322 1.824-3.116 1.846-4.995-0.017-1.896-0.687-3.707-1.866-5.037s-2.769-2.068-4.422-2.054c-0.635 0-1.266 0.106-1.873 0.32-0.035 0.012-0.076 0.019-0.119 0.019-0.076 0-0.147-0.022-0.207-0.061l0.002 0.001c-0.102-0.066-0.176-0.167-0.207-0.286l-0.001-0.003c-0.012-0.043-0.019-0.093-0.019-0.144 0-0.082 0.018-0.16 0.050-0.231l-0.001 0.003c0.052-0.115 0.142-0.202 0.25-0.243 0.631-0.229 1.359-0.361 2.118-0.361 0.003 0 0.005 0 0.008 0h-0c1.882-0.014 3.69 0.828 5.030 2.342s2.102 3.578 2.118 5.734c-0.023 2.138-0.774 4.179-2.095 5.687-1.32 1.508-3.104 2.362-4.966 2.377h-0.005zM8.346 19.732h-0.004c-1.864-0.015-3.647-0.869-4.966-2.377-1.322-1.508-2.075-3.549-2.095-5.687 0.017-2.157 0.778-4.22 2.118-5.734s3.149-2.356 5.030-2.342c0.719-0.001 1.435 0.12 2.125 0.362 0.058 0.020 0.108 0.051 0.15 0.090l-0-0c0.044 0.041 0.080 0.091 0.106 0.146l0.001 0.003c0.033 0.069 0.053 0.149 0.053 0.235 0 0.118-0.037 0.228-0.101 0.317l0.001-0.002c-0.036 0.049-0.079 0.090-0.13 0.12l-0.002 0.001c-0.057 0.034-0.126 0.055-0.199 0.055-0.047 0-0.092-0.008-0.134-0.024l0.003 0.001c-0.556-0.202-1.198-0.319-1.867-0.319-0.002 0-0.005 0-0.007 0h0c-1.651-0.013-3.242 0.724-4.421 2.054s-1.851 3.141-1.866 5.037c0.020 1.879 0.684 3.672 1.844 4.995 1.162 1.324 2.73 2.071 4.367 2.083 0.060 0.001 0.116 0.015 0.166 0.039l-0.002-0.001c0.051 0.026 0.1 0.061 0.14 0.108 0.075 0.094 0.121 0.215 0.121 0.346 0 0.134-0.047 0.256-0.126 0.352l0.001-0.001c-0.039 0.044-0.085 0.080-0.138 0.105l-0.003 0.001c-0.048 0.023-0.104 0.037-0.164 0.037h-0z"></path>
<path fill="#674d40" d="M24.302 32h-15.956c-0.122-0.002-0.231-0.057-0.304-0.144l-0.001-0.001c-0.078-0.092-0.125-0.212-0.125-0.343 0-0.002 0-0.003 0-0.005v0-12.269c0-0.131 0.045-0.256 0.125-0.349 0.074-0.087 0.183-0.142 0.304-0.143h0c0.114 0 0.223 0.051 0.303 0.143 0.081 0.093 0.125 0.218 0.125 0.349v11.773h15.098v-11.773c0-0.131 0.045-0.256 0.125-0.349 0.074-0.087 0.183-0.142 0.304-0.143h0c0.114 0 0.223 0.051 0.303 0.143 0.081 0.093 0.127 0.218 0.127 0.349v12.268c0 0.131-0.046 0.256-0.127 0.348-0.073 0.087-0.182 0.143-0.303 0.145h-0z"></path>
<path fill="#674d40" d="M27.293 27.222h-15.955c-0.122-0.002-0.231-0.057-0.304-0.144l-0.001-0.001c-0.078-0.092-0.125-0.212-0.125-0.343 0-0.002 0-0.004 0-0.006v0c0-0.131 0.045-0.256 0.125-0.348 0.074-0.087 0.182-0.143 0.304-0.145h15.955c0.115 0 0.224 0.051 0.305 0.145 0.081 0.092 0.125 0.218 0.125 0.348 0 0.132-0.045 0.256-0.125 0.349-0.074 0.087-0.182 0.143-0.304 0.145h-0z"></path>
</symbol>
<symbol id="people" viewBox="0 0 32 32">
<path fill="#674d40" d="M11.887 0c-3.293 0-5.974 3.077-5.974 6.856s2.682 6.856 5.975 6.856 5.975-3.077 5.975-6.856-2.683-6.856-5.975-6.856zM11.887 12.562c-2.749 0-4.979-2.566-4.979-5.714 0-3.146 2.236-5.713 4.979-5.713 2.749 0 4.979 2.566 4.979 5.713 0 3.149-2.236 5.714-4.979 5.714zM24.125 2.845c-2.474 0-4.484 2.307-4.484 5.146s2.010 5.146 4.484 5.146c2.476 0 4.485-2.307 4.485-5.146s-2.010-5.146-4.485-5.146zM24.125 12c-1.924 0-3.488-1.795-3.488-4.003s1.564-4.003 3.488-4.003c1.925 0 3.489 1.795 3.489 4.003s-1.564 4.003-3.489 4.003z"></path>
<path fill="#674d40" d="M32.148 20.678c-0.452-3.126-2.145-5.761-5.029-7.142 0 0-1.276 1.107-2.994 1.073-1.875-0.042-2.994-1.073-2.994-1.073s-1.393 0.596-2.516 1.837c-1.039-1.059-2.793-1.92-2.793-1.92s-1.606 1.402-3.941 1.38c-2.45-0.020-3.928-1.381-3.928-1.381s-5.298 2.089-6.415 9.176c0 0-1.198 3.757 1.576 9.372h17.554s1.247-2.488 1.467-4.003h8.731c2.145-3.73 1.284-7.319 1.284-7.319zM20.050 30.857h-16.32c-2.131-4.646-1.21-8.040-1.21-8.040 0.52-3.555 2.511-6.554 5.359-8.077 1.123 0.773 2.513 1.235 4.011 1.235s2.888-0.462 4.035-1.251l-0.024 0.016c2.848 1.523 4.838 4.522 5.359 8.077-0.006 0 0.879 4.178-1.211 8.040zM30.285 26.854h-7.949c0.305-2.019-0.099-4.227-0.099-4.227-0.36-2.496-1.386-4.746-2.89-6.484 0.49-0.513 1.051-0.951 1.669-1.3l0.036-0.019c0.863 0.58 1.926 0.925 3.070 0.925s2.207-0.345 3.090-0.938l-0.020 0.013c2.108 1.157 3.588 3.393 3.972 6.043 0 0 0.727 2.833-0.879 5.987z"></path>
</symbol>
<symbol id="clock" viewBox="0 0 32 32">
<path fill="#674d40" d="M16 0c-8.823 0-16 7.177-16 16 0 8.822 7.177 16 16 16 8.822 0 16-7.178 16-16 0-8.823-7.178-16-16-16zM16 30.934c-8.234 0-14.934-6.7-14.934-14.934s6.7-14.934 14.934-14.934 14.934 6.7 14.934 14.934-6.7 14.934-14.934 14.934z"></path>
<path fill="#674d40" d="M16.534 13.878v-5.409c0-0.295-0.239-0.534-0.534-0.534s-0.534 0.239-0.534 0.534v5.409c-0.747 0.2-1.324 0.777-1.52 1.51l-0.003 0.015h-3.809c-0.008-0-0.017-0.001-0.026-0.001-0.295 0-0.534 0.239-0.534 0.534s0.239 0.534 0.534 0.534c0.009 0 0.018-0 0.027-0.001l-0.001 0h3.809c0.238 0.918 1.066 1.6 2.057 1.6 1.178 0 2.134-0.956 2.134-2.132 0-0.992-0.684-1.819-1.6-2.058zM16 17.002c-0.589-0.001-1.066-0.478-1.066-1.068s0.478-1.068 1.068-1.068c0 0 0.001 0 0.001 0h-0c0.589 0.001 1.066 0.478 1.066 1.068s-0.478 1.068-1.068 1.068c-0 0-0.001 0-0.001 0h0zM16 5.268c0.294 0 0.534-0.238 0.534-0.532v-0.534c0-0.295-0.239-0.534-0.534-0.534s-0.534 0.239-0.534 0.534v0 0.534c0 0.294 0.239 0.532 0.534 0.532zM16 26.602c-0.295 0-0.534 0.239-0.534 0.534v0 0.532c0 0.295 0.239 0.534 0.534 0.534s0.534-0.239 0.534-0.534v-0.532c0-0 0-0.001 0-0.001 0-0.294-0.238-0.532-0.532-0.532-0 0-0.001 0-0.001 0h0zM27.734 15.402h-0.534c-0.008-0-0.017-0.001-0.026-0.001-0.295 0-0.534 0.239-0.534 0.534s0.239 0.534 0.534 0.534c0.009 0 0.018-0 0.027-0.001l-0.001 0h0.534c0.008 0 0.017 0.001 0.026 0.001 0.295 0 0.534-0.239 0.534-0.534s-0.239-0.534-0.534-0.534c-0.009 0-0.018 0-0.027 0.001l0.001-0zM4.8 15.402h-0.534c-0.294 0-0.533 0.239-0.533 0.533s0.239 0.533 0.533 0.533v0h0.534c0.008 0 0.017 0.001 0.026 0.001 0.295 0 0.534-0.239 0.534-0.534s-0.239-0.534-0.534-0.534c-0.009 0-0.018 0-0.027 0.001l0.001-0zM23.919 7.261l-0.378 0.378c-0.096 0.097-0.156 0.23-0.156 0.377 0 0.295 0.239 0.534 0.534 0.534 0.148 0 0.281-0.060 0.378-0.157v0l0.376-0.378c0.096-0.096 0.156-0.23 0.156-0.377 0-0.294-0.239-0.533-0.533-0.533-0.147 0-0.28 0.060-0.377 0.156v0zM7.703 23.478l-0.376 0.378c-0.096 0.096-0.156 0.23-0.156 0.377 0 0.294 0.239 0.533 0.533 0.533 0.147 0 0.28-0.060 0.377-0.156l0.378-0.378c0.096-0.097 0.156-0.23 0.156-0.377 0-0.295-0.239-0.534-0.534-0.534-0.147 0-0.281 0.060-0.378 0.157v0zM24.297 23.478c-0.097-0.097-0.23-0.156-0.378-0.156-0.295 0-0.534 0.239-0.534 0.534 0 0.147 0.060 0.281 0.156 0.378v0l0.378 0.376c0.096 0.097 0.23 0.158 0.378 0.158s0.281-0.060 0.378-0.158l0-0c0.097-0.096 0.157-0.23 0.157-0.378s-0.060-0.281-0.157-0.378l-0-0-0.378-0.376zM8.081 7.261c-0.097-0.097-0.23-0.156-0.378-0.156-0.295 0-0.534 0.239-0.534 0.534 0 0.147 0.060 0.281 0.156 0.378v0l0.378 0.376c0.096 0.097 0.23 0.157 0.378 0.157s0.281-0.060 0.378-0.157l0-0c0.097-0.096 0.157-0.23 0.157-0.378s-0.060-0.281-0.157-0.378l-0-0-0.378-0.376z"></path>
</symbol>
<symbol id="chat" viewBox="0 0 32 32">
<path fill="#674d40" d="M24.621 14.939c0-6.705-6.161-11.099-12.311-11.099-6.175 0-12.31 4.416-12.31 11.099 0 2.529 0.965 5.002 2.719 6.963 0.048 0.057 0.077 0.132 0.077 0.214 0 0.030-0.004 0.058-0.011 0.086l0.001-0.002c-0.55 2.314-1.855 4.403-2.39 5.197-0.092 0.138-0.147 0.307-0.147 0.49 0 0.13 0.028 0.253 0.078 0.364l-0.002-0.006c0.12 0.271 0.357 0.438 0.621 0.438h0.018c2.619-0.074 5.654-0.922 7.529-3.039 0.045-0.053 0.112-0.086 0.187-0.086 0.023 0 0.046 0.003 0.067 0.009l-0.002-0c1.152 0.312 2.353 0.472 3.566 0.472 6.173 0 12.311-4.415 12.311-11.1zM8.96 24.52c-0.085-0.023-0.182-0.037-0.282-0.037-0.338 0-0.64 0.152-0.842 0.392l-0.001 0.002c-1.876 2.116-4.94 2.598-6.39 2.705 0.663-1.050 1.74-2.976 2.245-5.1 0.028-0.11 0.045-0.236 0.045-0.366 0-0.377-0.137-0.721-0.364-0.987l0.002 0.002c-1.594-1.782-2.436-3.923-2.436-6.193 0-5.527 5.102-10.022 11.373-10.022 6.272 0 11.373 4.495 11.373 10.022s-5.101 10.024-11.373 10.024c-0.005 0-0.011 0-0.016 0-1.186 0-2.334-0.162-3.423-0.464l0.090 0.021z"></path>
<path fill="#674d40" d="M27.635 23.875c2.733-1.585 4.365-4.285 4.365-7.224 0-4.154-3.273-7.703-7.782-8.439-0.256-0.042-0.494 0.163-0.53 0.456-0.037 0.294 0.141 0.567 0.397 0.609 4.045 0.659 6.979 3.761 6.979 7.374 0 2.525-1.44 4.867-3.85 6.264-0.47 0.273-0.721 0.873-0.611 1.462 0.228 1.233 0.714 2.373 1.103 3.146-2.767-0.529-3.817-2.052-4.148-2.711-0.205-0.408-0.589-0.66-1.001-0.66h-0.038c-0.52 0-1.041-0.041-1.546-0.123-0.256-0.041-0.494 0.164-0.53 0.458s0.142 0.566 0.399 0.607c0.549 0.090 1.114 0.134 1.677 0.134h0.038c0.079 0 0.151 0.046 0.188 0.122 1.27 2.524 4.188 3.168 5.385 3.328 0.264 0.035 0.515-0.102 0.655-0.362 0.066-0.12 0.105-0.262 0.105-0.414 0-0.154-0.040-0.299-0.111-0.425l0.002 0.004c-0.361-0.644-1.004-1.933-1.262-3.328-0.004-0.016-0.006-0.035-0.006-0.055 0-0.093 0.048-0.175 0.121-0.223l0.001-0.001zM5.016 13.015c-0.896 0-1.626 0.837-1.626 1.865s0.73 1.864 1.626 1.864c0.896 0 1.626-0.836 1.626-1.864s-0.73-1.865-1.626-1.865zM5.016 15.668c-0.379 0-0.687-0.355-0.687-0.788 0-0.435 0.307-0.788 0.687-0.788 0.379 0 0.687 0.353 0.687 0.788s-0.308 0.788-0.687 0.788zM9.651 13.015c-0.896 0-1.626 0.837-1.626 1.865s0.73 1.864 1.626 1.864c0.896 0 1.624-0.836 1.624-1.864s-0.73-1.865-1.626-1.865zM9.651 15.668c-0.379 0-0.687-0.355-0.687-0.788 0-0.435 0.307-0.788 0.687-0.788 0.378 0 0.686 0.353 0.686 0.788s-0.307 0.788-0.686 0.788zM14.285 13.015c-0.896 0-1.624 0.837-1.624 1.865s0.73 1.864 1.626 1.864c0.896 0 1.624-0.836 1.624-1.864s-0.73-1.865-1.626-1.865zM14.285 15.668c-0.379 0-0.686-0.355-0.686-0.788 0-0.435 0.307-0.788 0.686-0.788s0.687 0.353 0.687 0.788c0 0.435-0.307 0.788-0.687 0.788zM18.92 13.015c-0.896 0-1.626 0.837-1.626 1.865s0.73 1.864 1.626 1.864c0.896 0 1.626-0.836 1.626-1.864s-0.73-1.865-1.626-1.865zM18.92 15.668c-0.379 0-0.687-0.355-0.687-0.788 0-0.435 0.308-0.788 0.687-0.788s0.687 0.353 0.687 0.788c0 0.435-0.308 0.788-0.687 0.788z"></path>
</symbol>
</defs>
</svg>
